{
.appVersion = "1060";
copyright = "Copyright 2017 Google Inc. All Rights Reserved.";
customParameters = (
{
name = vendorID;
value = GOOG;
},
{
name = unicodeRanges;
value = (
0,
1,
13,
31,
38,
45,
63
);
},
{
name = codePageRanges;
value = (
1252,
1256
);
},
{
name = glyphOrder;
value = (
.notdef,
NULL,
CR,
space,
uni00A0,
bar,
uni200C,
ZWSP,
uni200D,
uni200E,
uni200F,
OneDot,
TwoDots,
ThreeDotsUp,
ThreeDotsDown,
OneDotAboveNS,
TwoDotsAboveNS,
ThreeDotsUpAboveNS,
OneDotBelowNS,
TwoDotsBelowNS,
ThreeDotsDownBelowNS,
ThreeDotsDownAboveNS,
OneDotEnclNS,
OneDotEnclTNS,
ThreeDotsDownEnclNS,
ThreeDotsUpEnclNS,
TwoDotsEnclNS,
TwoDotsVertEnclNS,
TwoDotsVert,
FourDotsEnclNS,
FourDots,
TwoDotsVertAboveNS,
TwoDotsVertBelowNS,
FourDotsAboveNS,
FourDotsBelowNS,
MaddaNS,
Madda.shortNS,
Madda.shorterNS,
WaslaNS,
HamzaAboveNS,
HamzaBelowNS,
HamzaAboveAF_NS,
HamzaBelowAF_NS,
AlayhissalamNS,
AlefSuperiorNS,
AlefSuperiorTallNS,
AlefInferiorNS,
DammaNS,
UltapeshNS,
DammatanNS,
FathaNS,
FathatanNS,
KasraNS,
KasratanNS,
NoonGhunnaMarkNS,
NoonGhunnaMarkKshmrNS,
RadiallahNS,
RahmatullahNS,
SallallahNS,
ShaddaNS,
SharetKafNS,
SharetYehPashtoNS,
Crossbar,
SukunHahNS,
SukunJazmNS,
SukunNS,
SukunZeroNS,
TahSmallNS,
TahSmallBelowNS,
TahSmallEnclNS,
Tah2DotsEnclNS,
Tah2DotsBelowNS,
Tah2DotsAboveNS,
TakhallusNS,
AlefInferiorYB,
HamzaBelowYB,
KasraYB,
KasratanYB,
OneDotBelowYB,
ThreeDotsDownBelowYB,
TwoDotsBelowYB,
HehCommaNS,
HehCommaAltNS,
HehCommaYB,
FourDotsBelowYB,
WavyHamzaBelowYB,
WavyHamzaBelowNS,
Small4UrduBelowYB,
Small4UrduAboveNS,
TwoDotsVertBelowYB,
HamzaBelowAF_YB,
Tah2DotsBelowYB,
TahSmallBelowYB,
NullMk,
OneDotAboveAltNS,
TwoDotsAboveAltNS,
ThreeDotsUpAboveAltNS,
MaddaAltNS,
Madda.shortAltNS,
Madda.shorterAltNS,
WaslaAltNS,
HamzaAboveAltNS,
HamzaAboveAF_AltNS,
AlayhissalamAltNS,
AlefSuperiorAltNS,
DammaAltNS,
UltapeshAltNS,
DammatanAltNS,
FathaAltNS,
FathatanAltNS,
NoonGhunnaMarkAltNS,
RadiallahAltNS,
RahmatullahAltNS,
SallallahAltNS,
ShaddaAltNS,
Tah2DotsAboveAltNS,

glyphs = (
{
glyphname = .notdef;
lastChange = "2017-06-19 19:10:36 +0000";
layers = (
{
layerId = "67C28EBA-5AA6-4F74-BBA1-5BB358529C60";
paths = (
{
closed = 1;
nodes = (
"829 0 LINE",
"829 1197 LINE",
"71 1197 LINE",
"71 0 LINE"
);
},
{
closed = 1;
nodes = (
"155 1113 LINE",
"745 1113 LINE",
"745 84 LINE",
"155 84 LINE"
);
}
);
width = 900;
},
{
layerId = "0A5D7F3A-D11E-4113-AD15-39410F1DC5C2";
paths = (
{
closed = 1;
nodes = (
"829 0 LINE",
"829 1197 LINE",
"71 1197 LINE",
"71 0 LINE"
);
},
{
closed = 1;
nodes = (
"155 1113 LINE",
"745 1113 LINE",
"745 84 LINE",
"155 84 LINE"
);
}
);
width = 900;
}
);
note = .notdef;
},
{
glyphname = bar;
lastChange = "2017-06-19 19:10:36 +0000";
layers = (
{
layerId = "67C28EBA-5AA6-4F74-BBA1-5BB358529C60";
paths = (
{
closed = 1;
nodes = (
"90 -164 LINE",
"90 1140 LINE",
"26 1140 LINE",
"26 -164 LINE"
);
}
);
width = 116;
},
{
layerId = "0A5D7F3A-D11E-4113-AD15-39410F1DC5C2";
paths = (
{
closed = 1;
nodes = (
"90 -165 LINE",
"90 1140 LINE",
"26 1140 LINE",
"26 -165 LINE"
);
}
);
width = 116;
}
);
note = bar;
unicode = 007C;
},
{
glyphname = uni200C;
lastChange = "2017-06-19 19:10:36 +0000";
layers = (
{
layerId = "67C28EBA-5AA6-4F74-BBA1-5BB358529C60";
paths = (
{
closed = 1;
nodes = (
"32 161 LINE",
"32 1465 LINE",
"-32 1465 LINE",
"-32 161 LINE"
);
}
);
width = 0;
},
{
layerId = "0A5D7F3A-D11E-4113-AD15-39410F1DC5C2";
paths = (
{
closed = 1;
nodes = (
"32 161 LINE",
"32 1465 LINE",
"-32 1465 LINE",
"-32 161 LINE"
);
}
);
width = 0;
}
);
note = uni200C;
unicode = 200C;
},
{
glyphname = uni200D;
lastChange = "2017-06-19 19:10:36 +0000";
layers = (
{
layerId = "67C28EBA-5AA6-4F74-BBA1-5BB358529C60";
paths = (
{
closed = 1;
nodes = (
"32 161 LINE",
"32 1202 LINE",
"149 1083 LINE",
"192 1126 LINE",
"42 1274 LINE",
"192 1422 LINE",
"149 1465 LINE",
"0 1315 LINE",
"-149 1465 LINE",
"-192 1422 LINE",
"-42 1274 LINE",
"-192 1126 LINE",
"-149 1083 LINE",
"-32 1202 LINE",
"-32 161 LINE"
);
}
);
width = 0;
},
{
layerId = "0A5D7F3A-D11E-4113-AD15-39410F1DC5C2";
paths = (
{
closed = 1;
nodes = (
"32 161 LINE",
"32 1202 LINE",
"149 1083 LINE",
"192 1126 LINE",
"42 1274 LINE",
"192 1422 LINE",
"149 1465 LINE",
"0 1315 LINE",
"-149 1465 LINE",
"-192 1422 LINE",
"-42 1274 LINE",
"-192 1126 LINE",
"-149 1083 LINE",
"-32 1202 LINE",
"-32 161 LINE"
);
}
);
width = 0;
}
);
note = uni200D;
unicode = 200D;
},
{
glyphname = uni200E;
lastChange = "2017-06-19 19:10:36 +0000";
layers = (
{
layerId = "67C28EBA-5AA6-4F74-BBA1-5BB358529C60";
paths = (
{
closed = 1;
nodes = (
"31 161 LINE",
"31 1246 LINE",
"265 1246 LINE",
"144 1131 LINE",
"187 1088 LINE",
"378 1276 LINE",
"187 1465 LINE",
"144 1422 LINE",
"265 1308 LINE",
"-32 1308 LINE",
"-32 161 LINE"
);
}
);
width = 0;
},
{
layerId = "0A5D7F3A-D11E-4113-AD15-39410F1DC5C2";
paths = (
{
closed = 1;
nodes = (
"31 161 LINE",
"31 1246 LINE",
"265 1246 LINE",
"144 1131 LINE",
"187 1088 LINE",
"378 1276 LINE",
"187 1465 LINE",
"144 1422 LINE",
"265 1308 LINE",
"-32 1308 LINE",
"-32 161 LINE"
);
}
);
width = 0;
}
);
note = uni200E;
unicode = 200E;
},
{
glyphname = uni200F;
lastChange = "2017-06-19 19:10:36 +0000";
layers = (
{
layerId = "67C28EBA-5AA6-4F74-BBA1-5BB358529C60";
paths = (
{
closed = 1;
nodes = (
"31 161 LINE",
"31 1308 LINE",
"-266 1308 LINE",
"-145 1422 LINE",
"-188 1465 LINE",
"-379 1276 LINE",
"-188 1088 LINE",
"-145 1131 LINE",
"-266 1246 LINE",
"-32 1246 LINE",
"-32 161 LINE"
);
}
);
width = 0;
},
{
layerId = "0A5D7F3A-D11E-4113-AD15-39410F1DC5C2";
paths = (
{
closed = 1;
nodes = (
"31 161 LINE",
"31 1308 LINE",
"-266 1308 LINE",
"-145 1422 LINE",
"-188 1465 LINE",
"-379 1276 LINE",
"-188 1088 LINE",
"-145 1131 LINE",
"-266 1246 LINE",
"-32 1246 LINE",
"-32 161 LINE"
);
}
);
width = 0;
}
);
note = uni200F;
unicode = 200F;
},
{
glyphname = OneDotAboveNS;
lastChange = "2017-06-19 19:10:36 +0000";
layers = (
{
layerId = "67C28EBA-5AA6-4F74-BBA1-5BB358529C60";
paths = (
{
closed = 1;
nodes = (
"3 823 LINE",
"49 855 OFFCURVE",
"95 895 OFFCURVE",
"95 928 CURVE SMOOTH",
"95 960 OFFCURVE",
"64 985 OFFCURVE",
"9 1020 CURVE",
"-1 1020 LINE",
"-18 1009 OFFCURVE",
"-79 942 OFFCURVE",
"-97 914 CURVE",
"-97 904 LINE",
"-68 883 OFFCURVE",
"-59 875 OFFCURVE",
"-5 823 CURVE"
);
}
);
width = 0;
},
{
layerId = "0A5D7F3A-D11E-4113-AD15-39410F1DC5C2";
paths = (
{
closed = 1;
nodes = (
"4 832 LINE",
"60 871 OFFCURVE",
"87 903 OFFCURVE",
"87 926 CURVE SMOOTH",
"87 949 OFFCURVE",
"70 972 OFFCURVE",
"9 1011 CURVE",
"0 1011 LINE",
"-17 1000 OFFCURVE",
"-70 941 OFFCURVE",
"-87 915 CURVE",
"-87 906 LINE",
"-60 885 OFFCURVE",
"-32 860 OFFCURVE",
"-4 832 CURVE"
);
}
);
width = 0;
}
);
note = OneDotAboveNS;
},
{
glyphname = TwoDotsAboveNS;
lastChange = "2017-06-19 19:10:36 +0000";
layers = (
{
layerId = "67C28EBA-5AA6-4F74-BBA1-5BB358529C60";
paths = (
{
closed = 1;
nodes = (
"-69 815 LINE",
"-32 840 OFFCURVE",
"-4 865 OFFCURVE",
"11 888 CURVE",
"27 875 OFFCURVE",
"43 860 OFFCURVE",
"71 833 CURVE",
"79 833 LINE",
"125 865 OFFCURVE",
"171 905 OFFCURVE",
"171 938 CURVE SMOOTH",
"171 970 OFFCURVE",
"140 995 OFFCURVE",
"85 1030 CURVE",
"75 1030 LINE",
"63 1022 OFFCURVE",
"33 991 OFFCURVE",
"5 958 CURVE",
"-8 973 OFFCURVE",
"-29 990 OFFCURVE",
"-63 1012 CURVE",
"-73 1012 LINE",
"-90 1001 OFFCURVE",
"-151 934 OFFCURVE",
"-169 906 CURVE",
"-169 896 LINE",
"-140 875 OFFCURVE",
"-126 862 OFFCURVE",
"-77 815 CURVE"
);
}
);
width = 0;
},
{
layerId = "0A5D7F3A-D11E-4113-AD15-39410F1DC5C2";
paths = (
{
closed = 1;
nodes = (
"-68 824 LINE",
"-26 854 OFFCURVE",
"0 880 OFFCURVE",
"10 900 CURVE",
"29 884 OFFCURVE",
"50 865 OFFCURVE",
"73 842 CURVE",
"82 842 LINE",
"135 880 OFFCURVE",
"162 912 OFFCURVE",
"162 937 CURVE SMOOTH",
"162 964 OFFCURVE",
"136 987 OFFCURVE",
"83 1021 CURVE",
"75 1021 LINE",
"62 1013 OFFCURVE",
"26 975 OFFCURVE",
"4 947 CURVE",
"-8 965 OFFCURVE",
"-32 983 OFFCURVE",
"-64 1003 CURVE",
"-73 1003 LINE",
"-89 993 OFFCURVE",
"-141 934 OFFCURVE",
"-160 907 CURVE",
"-160 898 LINE",
"-134 877 OFFCURVE",
"-106 853 OFFCURVE",
"-77 824 CURVE"
);
}
);
width = 0;
}
);
note = TwoDotsAboveNS;
},
{
glyphname = ThreeDotsUpAboveNS;
lastChange = "2017-06-19 19:10:36 +0000";
layers = (
{
layerId = "67C28EBA-5AA6-4F74-BBA1-5BB358529C60";
paths = (
{
closed = 1;
nodes = (
"-70 814 LINE",
"-33 839 OFFCURVE",
"-5 864 OFFCURVE",
"10 887 CURVE",
"26 874 OFFCURVE",
"42 859 OFFCURVE",
"70 832 CURVE",
"78 832 LINE",
"124 864 OFFCURVE",
"170 904 OFFCURVE",
"170 937 CURVE SMOOTH",
"170 967 OFFCURVE",
"146 991 OFFCURVE",
"86 1029 CURVE",
"76 1029 LINE",
"64 1021 OFFCURVE",
"32 990 OFFCURVE",
"4 957 CURVE",
"-9 973 OFFCURVE",
"-31 991 OFFCURVE",
"-62 1011 CURVE",
"-72 1011 LINE",
"-85 1003 OFFCURVE",
"-149 936 OFFCURVE",
"-170 905 CURVE",
"-170 895 LINE",
"-141 874 OFFCURVE",
"-133 866 OFFCURVE",
"-78 814 CURVE"
);
},
{
closed = 1;
nodes = (
"3 997 LINE",
"59 1041 OFFCURVE",
"81 1069 OFFCURVE",
"81 1089 CURVE SMOOTH",
"81 1107 OFFCURVE",
"64 1126 OFFCURVE",
"7 1164 CURVE",
"-1 1164 LINE",
"-19 1152 OFFCURVE",
"-66 1102 OFFCURVE",
"-84 1076 CURVE",
"-84 1068 LINE",
"-43 1034 OFFCURVE",
"-34 1025 OFFCURVE",
"-6 997 CURVE"
);
}
);
width = 0;
},
{
layerId = "0A5D7F3A-D11E-4113-AD15-39410F1DC5C2";
paths = (
{
closed = 1;
nodes = (
"-68 824 LINE",
"-26 854 OFFCURVE",
"0 880 OFFCURVE",
"10 900 CURVE",
"29 884 OFFCURVE",
"50 865 OFFCURVE",
"73 842 CURVE",
"82 842 LINE",
"135 880 OFFCURVE",
"162 912 OFFCURVE",
"162 937 CURVE SMOOTH",
"162 964 OFFCURVE",
"136 987 OFFCURVE",
"83 1021 CURVE",
"75 1021 LINE",
"62 1013 OFFCURVE",
"27 975 OFFCURVE",
"4 947 CURVE",
"-8 964 OFFCURVE",
"-30 981 OFFCURVE",
"-64 1003 CURVE",
"-73 1003 LINE",
"-89 993 OFFCURVE",
"-141 934 OFFCURVE",
"-160 907 CURVE",
"-160 898 LINE",
"-134 877 OFFCURVE",
"-106 853 OFFCURVE",
"-77 824 CURVE"
);
},
{
closed = 1;
nodes = (
"1 998 LINE",
"55 1042 OFFCURVE",
"79 1068 OFFCURVE",
"79 1089 CURVE SMOOTH",
"79 1109 OFFCURVE",
"58 1128 OFFCURVE",
"5 1165 CURVE",
"-2 1165 LINE",
"-11 1161 OFFCURVE",
"-57 1118 OFFCURVE",
"-86 1077 CURVE",
"-86 1069 LINE",
"-79 1063 OFFCURVE",
"-24 1016 OFFCURVE",
"-8 998 CURVE"
);
}
);
width = 0;
}
);
note = ThreeDotsUpAboveNS;
},
{
glyphname = OneDotBelowNS;
lastChange = "2017-06-19 19:10:36 +0000";
layers = (
{
layerId = "67C28EBA-5AA6-4F74-BBA1-5BB358529C60";
paths = (
{
closed = 1;
nodes = (
"3 -196 LINE",
"49 -164 OFFCURVE",
"95 -124 OFFCURVE",
"95 -91 CURVE SMOOTH",
"95 -59 OFFCURVE",
"64 -34 OFFCURVE",
"9 1 CURVE",
"-1 1 LINE",
"-18 -10 OFFCURVE",
"-79 -77 OFFCURVE",
"-97 -105 CURVE",
"-97 -115 LINE",
"-68 -136 OFFCURVE",
"-56 -147 OFFCURVE",
"-5 -196 CURVE"
);
}
);
width = 0;
},
{
layerId = "0A5D7F3A-D11E-4113-AD15-39410F1DC5C2";
paths = (
{
closed = 1;
nodes = (
"4 -187 LINE",
"60 -147 OFFCURVE",
"87 -116 OFFCURVE",
"87 -92 CURVE SMOOTH",
"87 -66 OFFCURVE",
"61 -41 OFFCURVE",
"9 -8 CURVE",
"0 -8 LINE",
"-17 -19 OFFCURVE",
"-69 -78 OFFCURVE",
"-87 -104 CURVE",
"-87 -112 LINE",
"-60 -133 OFFCURVE",
"-32 -158 OFFCURVE",
"-4 -187 CURVE"
);
}
);
width = 0;
}
);
note = OneDotBelowNS;
},
{
glyphname = TwoDotsBelowNS;
lastChange = "2017-06-19 19:10:36 +0000";
layers = (
{
layerId = "67C28EBA-5AA6-4F74-BBA1-5BB358529C60";
paths = (
{
closed = 1;
nodes = (
"-70 -207 LINE",
"-33 -182 OFFCURVE",
"-5 -157 OFFCURVE",
"10 -134 CURVE",
"26 -147 OFFCURVE",
"42 -162 OFFCURVE",
"70 -189 CURVE",
"78 -189 LINE",
"124 -157 OFFCURVE",
"170 -117 OFFCURVE",
"170 -84 CURVE SMOOTH",
"170 -52 OFFCURVE",
"139 -27 OFFCURVE",
"84 8 CURVE",
"74 8 LINE",
"62 0 OFFCURVE",
"32 -31 OFFCURVE",
"4 -64 CURVE",
"-9 -49 OFFCURVE",
"-30 -32 OFFCURVE",
"-64 -10 CURVE",
"-74 -10 LINE",
"-91 -21 OFFCURVE",
"-152 -88 OFFCURVE",
"-170 -116 CURVE",
"-170 -126 LINE",
"-141 -147 OFFCURVE",
"-132 -155 OFFCURVE",
"-78 -207 CURVE"
);
}
);
width = 0;
},
{
layerId = "0A5D7F3A-D11E-4113-AD15-39410F1DC5C2";
paths = (
{
closed = 1;
nodes = (
"-68 -198 LINE",
"-26 -168 OFFCURVE",
"0 -142 OFFCURVE",
"9 -121 CURVE",
"29 -137 OFFCURVE",
"50 -156 OFFCURVE",
"73 -179 CURVE",
"82 -179 LINE",
"135 -141 OFFCURVE",
"162 -109 OFFCURVE",
"162 -84 CURVE SMOOTH",
"162 -57 OFFCURVE",
"136 -33 OFFCURVE",
"83 0 CURVE",
"75 0 LINE",
"63 -7 OFFCURVE",
"28 -45 OFFCURVE",
"4 -74 CURVE",
"-8 -56 OFFCURVE",
"-31 -39 OFFCURVE",
"-64 -19 CURVE",
"-73 -19 LINE",
"-89 -28 OFFCURVE",
"-143 -89 OFFCURVE",
"-160 -114 CURVE",
"-160 -123 LINE",
"-134 -144 OFFCURVE",
"-106 -169 OFFCURVE",
"-77 -198 CURVE"
);
}
);
width = 0;
}
);
note = TwoDotsBelowNS;
},
{
glyphname = ThreeDotsDownBelowNS;
lastChange = "2017-06-19 19:10:36 +0000";
layers = (
{
layerId = "67C28EBA-5AA6-4F74-BBA1-5BB358529C60";
paths = (
{
closed = 1;
nodes = (
"-72 -207 LINE",
"-35 -180 OFFCURVE",
"-8 -154 OFFCURVE",
"6 -133 CURVE",
"53 -174 OFFCURVE",
"60 -180 OFFCURVE",
"68 -189 CURVE",
"76 -189 LINE",
"122 -157 OFFCURVE",
"168 -117 OFFCURVE",
"168 -84 CURVE SMOOTH",
"168 -52 OFFCURVE",
"137 -27 OFFCURVE",
"82 8 CURVE",
"72 8 LINE",
"61 1 OFFCURVE",
"32 -29 OFFCURVE",
"2 -63 CURVE",
"-11 -49 OFFCURVE",
"-32 -32 OFFCURVE",
"-66 -10 CURVE",
"-76 -10 LINE",
"-93 -21 OFFCURVE",
"-154 -88 OFFCURVE",
"-172 -116 CURVE",
"-172 -126 LINE",
"-143 -147 OFFCURVE",
"-136 -155 OFFCURVE",
"-80 -207 CURVE"
);
},
{
closed = 1;
nodes = (
"4 -343 LINE",
"56 -304 OFFCURVE",
"82 -280 OFFCURVE",
"82 -256 CURVE SMOOTH",
"82 -229 OFFCURVE",
"43 -198 OFFCURVE",
"11 -176 CURVE",
"3 -176 LINE",
"-19 -193 OFFCURVE",
"-62 -233 OFFCURVE",
"-83 -264 CURVE",
"-83 -272 LINE",
"-49 -300 OFFCURVE",
"-39 -309 OFFCURVE",
"-5 -343 CURVE"
);
}
);
width = 0;
},
{
layerId = "0A5D7F3A-D11E-4113-AD15-39410F1DC5C2";
paths = (
{
closed = 1;
nodes = (
"-70 -198 LINE",
"-28 -168 OFFCURVE",
"-2 -142 OFFCURVE",
"7 -121 CURVE",
"27 -137 OFFCURVE",
"48 -156 OFFCURVE",
"71 -179 CURVE",
"80 -179 LINE",
"133 -141 OFFCURVE",
"160 -109 OFFCURVE",
"160 -84 CURVE SMOOTH",
"160 -57 OFFCURVE",
"134 -33 OFFCURVE",
"82 0 CURVE",
"73 0 LINE",
"61 -7 OFFCURVE",
"25 -45 OFFCURVE",
"2 -74 CURVE",
"-10 -57 OFFCURVE",
"-33 -40 OFFCURVE",
"-66 -19 CURVE",
"-75 -19 LINE",
"-90 -28 OFFCURVE",
"-144 -88 OFFCURVE",
"-162 -114 CURVE",
"-162 -123 LINE",
"-135 -144 OFFCURVE",
"-108 -169 OFFCURVE",
"-79 -198 CURVE"
);
},
{
closed = 1;
nodes = (
"5 -342 LINE",
"66 -297 OFFCURVE",
"83 -275 OFFCURVE",
"83 -255 CURVE SMOOTH",
"83 -234 OFFCURVE",
"60 -208 OFFCURVE",
"12 -175 CURVE",
"4 -175 LINE",
"-6 -181 OFFCURVE",
"-53 -224 OFFCURVE",
"-82 -263 CURVE",
"-82 -271 LINE",
"-74 -276 OFFCURVE",
"-20 -323 OFFCURVE",
"-3 -342 CURVE"
);
}
);
width = 0;
}
);
note = ThreeDotsDownBelowNS;
},
{
glyphname = ThreeDotsDownAboveNS;
lastChange = "2017-06-19 19:10:36 +0000";
layers = (
{
layerId = "67C28EBA-5AA6-4F74-BBA1-5BB358529C60";
paths = (
{
closed = 1;
nodes = (
"-72 967 LINE",
"-35 994 OFFCURVE",
"-8 1020 OFFCURVE",
"6 1041 CURVE",
"53 1000 OFFCURVE",
"60 994 OFFCURVE",
"68 985 CURVE",
"76 985 LINE",
"122 1017 OFFCURVE",
"168 1057 OFFCURVE",
"168 1090 CURVE SMOOTH",
"168 1122 OFFCURVE",
"137 1147 OFFCURVE",
"82 1182 CURVE",
"72 1182 LINE",
"61 1175 OFFCURVE",
"32 1145 OFFCURVE",
"2 1111 CURVE",
"-11 1125 OFFCURVE",
"-32 1142 OFFCURVE",
"-66 1164 CURVE",
"-76 1164 LINE",
"-93 1153 OFFCURVE",
"-154 1086 OFFCURVE",
"-172 1058 CURVE",
"-172 1048 LINE",
"-143 1027 OFFCURVE",
"-129 1014 OFFCURVE",
"-80 967 CURVE"
);
},
{
closed = 1;
nodes = (
"4 831 LINE",
"56 870 OFFCURVE",
"82 894 OFFCURVE",
"82 918 CURVE SMOOTH",
"82 945 OFFCURVE",
"43 976 OFFCURVE",
"11 998 CURVE",
"3 998 LINE",
"-19 982 OFFCURVE",
"-62 941 OFFCURVE",
"-83 910 CURVE",
"-83 902 LINE",
"-59 883 OFFCURVE",
"-42 868 OFFCURVE",
"-5 831 CURVE"
);
}
);
width = 0;
},
{
layerId = "0A5D7F3A-D11E-4113-AD15-39410F1DC5C2";
paths = (
{
closed = 1;
nodes = (
"-70 977 LINE",
"-28 1007 OFFCURVE",
"-2 1033 OFFCURVE",
"8 1053 CURVE",
"27 1037 OFFCURVE",
"48 1018 OFFCURVE",
"71 995 CURVE",
"80 995 LINE",
"133 1034 OFFCURVE",
"160 1065 OFFCURVE",
"160 1090 CURVE SMOOTH",
"160 1118 OFFCURVE",
"134 1141 OFFCURVE",
"82 1174 CURVE",
"73 1174 LINE",
"61 1167 OFFCURVE",
"25 1129 OFFCURVE",
"2 1100 CURVE",
"-10 1118 OFFCURVE",
"-33 1135 OFFCURVE",
"-66 1156 CURVE",
"-75 1156 LINE",
"-90 1146 OFFCURVE",
"-144 1086 OFFCURVE",
"-162 1060 CURVE",
"-162 1051 LINE",
"-135 1030 OFFCURVE",
"-108 1005 OFFCURVE",
"-79 977 CURVE"
);
},
{
closed = 1;
nodes = (
"5 833 LINE",
"66 877 OFFCURVE",
"83 899 OFFCURVE",
"83 919 CURVE SMOOTH",
"83 940 OFFCURVE",
"60 967 OFFCURVE",
"12 1000 CURVE",
"4 1000 LINE",
"-6 993 OFFCURVE",
"-53 951 OFFCURVE",
"-82 912 CURVE",
"-82 904 LINE",
"-74 898 OFFCURVE",
"-20 851 OFFCURVE",
"-3 833 CURVE"
);
}
);
width = 0;
}
);
note = ThreeDotsDownAboveNS;
},
{
glyphname = OneDotEnclNS;
lastChange = "2017-06-19 19:10:36 +0000";
layers = (
{
layerId = "67C28EBA-5AA6-4F74-BBA1-5BB358529C60";
paths = (
{
closed = 1;
nodes = (
"3 120 LINE",
"49 152 OFFCURVE",
"95 192 OFFCURVE",
"95 225 CURVE SMOOTH",
"95 257 OFFCURVE",
"64 282 OFFCURVE",
"9 317 CURVE",
"-1 317 LINE",
"-18 306 OFFCURVE",
"-79 239 OFFCURVE",
"-97 211 CURVE",
"-97 201 LINE",
"-70 181 OFFCURVE",
"-45 160 OFFCURVE",
"-5 120 CURVE"
);
}
);
width = 0;
},
{
layerId = "0A5D7F3A-D11E-4113-AD15-39410F1DC5C2";
paths = (
{
closed = 1;
nodes = (
"4 128 LINE",
"60 168 OFFCURVE",
"87 200 OFFCURVE",
"87 223 CURVE SMOOTH",
"87 246 OFFCURVE",
"70 269 OFFCURVE",
"9 308 CURVE",
"0 308 LINE",
"-17 297 OFFCURVE",
"-70 238 OFFCURVE",
"-87 212 CURVE",
"-87 203 LINE",
"-60 182 OFFCURVE",
"-32 157 OFFCURVE",
"-4 128 CURVE"
);
}
);
width = 0;
}
);
note = OneDotEnclNS;
},
{
glyphname = OneDotEnclTNS;
lastChange = "2017-06-19 19:10:36 +0000";
layers = (
{
layerId = "67C28EBA-5AA6-4F74-BBA1-5BB358529C60";
paths = (
{
closed = 1;
nodes = (
"3 120 LINE",
"49 152 OFFCURVE",
"95 192 OFFCURVE",
"95 225 CURVE SMOOTH",
"95 257 OFFCURVE",
"64 282 OFFCURVE",
"9 317 CURVE",
"-1 317 LINE",
"-18 306 OFFCURVE",
"-79 239 OFFCURVE",
"-97 211 CURVE",
"-97 201 LINE",
"-70 181 OFFCURVE",
"-45 160 OFFCURVE",
"-5 120 CURVE"
);
}
);
width = 0;
},
{
layerId = "0A5D7F3A-D11E-4113-AD15-39410F1DC5C2";
paths = (
{
closed = 1;
nodes = (
"4 128 LINE",
"60 168 OFFCURVE",
"87 200 OFFCURVE",
"87 223 CURVE SMOOTH",
"87 246 OFFCURVE",
"70 269 OFFCURVE",
"9 308 CURVE",
"0 308 LINE",
"-17 297 OFFCURVE",
"-70 238 OFFCURVE",
"-87 212 CURVE",
"-87 203 LINE",
"-60 182 OFFCURVE",
"-32 157 OFFCURVE",
"-4 128 CURVE"
);
}
);
width = 0;
}
);
note = OneDotEnclTNS;
},
{
glyphname = ThreeDotsDownEnclNS;
lastChange = "2017-06-19 19:10:36 +0000";
layers = (
{
layerId = "67C28EBA-5AA6-4F74-BBA1-5BB358529C60";
paths = (
{
closed = 1;
nodes = (
"-73 110 LINE",
"-36 137 OFFCURVE",
"-9 163 OFFCURVE",
"5 184 CURVE",
"52 143 OFFCURVE",
"59 137 OFFCURVE",
"67 128 CURVE",
"75 128 LINE",
"121 160 OFFCURVE",
"167 200 OFFCURVE",
"167 233 CURVE SMOOTH",
"167 265 OFFCURVE",
"136 290 OFFCURVE",
"81 325 CURVE",
"71 325 LINE",
"60 318 OFFCURVE",
"31 288 OFFCURVE",
"1 254 CURVE",
"-12 268 OFFCURVE",
"-33 285 OFFCURVE",
"-67 307 CURVE",
"-77 307 LINE",
"-94 296 OFFCURVE",
"-155 229 OFFCURVE",
"-173 201 CURVE",
"-173 191 LINE",
"-144 170 OFFCURVE",
"-125 152 OFFCURVE",
"-81 110 CURVE"
);
},
{
closed = 1;
nodes = (
"3 -26 LINE",
"55 13 OFFCURVE",
"81 37 OFFCURVE",
"81 61 CURVE SMOOTH",
"81 88 OFFCURVE",
"42 119 OFFCURVE",
"10 141 CURVE",
"2 141 LINE",
"-20 124 OFFCURVE",
"-63 84 OFFCURVE",
"-84 53 CURVE",
"-84 45 LINE",
"-49 17 OFFCURVE",
"-40 7 OFFCURVE",
"-6 -26 CURVE"
);
}
);
width = 0;
},
{
layerId = "0A5D7F3A-D11E-4113-AD15-39410F1DC5C2";
paths = (
{
closed = 1;
nodes = (
"-72 119 LINE",
"-30 149 OFFCURVE",
"-4 174 OFFCURVE",
"6 195 CURVE",
"26 179 OFFCURVE",
"47 159 OFFCURVE",
"69 137 CURVE",
"78 137 LINE",
"131 176 OFFCURVE",
"158 208 OFFCURVE",
"158 232 CURVE SMOOTH",
"158 260 OFFCURVE",
"132 283 OFFCURVE",
"80 316 CURVE",
"71 316 LINE",
"59 309 OFFCURVE",
"23 271 OFFCURVE",
"0 243 CURVE",
"-13 261 OFFCURVE",
"-38 279 OFFCURVE",
"-68 298 CURVE",
"-77 298 LINE",
"-92 289 OFFCURVE",
"-146 229 OFFCURVE",
"-164 202 CURVE",
"-164 193 LINE",
"-137 172 OFFCURVE",
"-110 147 OFFCURVE",
"-81 119 CURVE"
);
},
{
closed = 1;
nodes = (
"3 -25 LINE",
"54 11 OFFCURVE",
"82 38 OFFCURVE",
"82 62 CURVE SMOOTH",
"82 82 OFFCURVE",
"58 109 OFFCURVE",
"11 142 CURVE",
"2 142 LINE",
"-7 136 OFFCURVE",
"-53 94 OFFCURVE",
"-83 54 CURVE",
"-83 46 LINE",
"-76 40 OFFCURVE",
"-21 -7 OFFCURVE",
"-5 -25 CURVE"
);
}
);
width = 0;
}
);
note = ThreeDotsDownEnclNS;
},
{
glyphname = TwoDotsEnclNS;
lastChange = "2017-06-19 19:10:36 +0000";
layers = (
{
layerId = "67C28EBA-5AA6-4F74-BBA1-5BB358529C60";
paths = (
{
closed = 1;
nodes = (
"-70 109 LINE",
"-33 134 OFFCURVE",
"-5 159 OFFCURVE",
"10 182 CURVE",
"26 169 OFFCURVE",
"42 154 OFFCURVE",
"70 127 CURVE",
"78 127 LINE",
"124 159 OFFCURVE",
"170 199 OFFCURVE",
"170 232 CURVE SMOOTH",
"170 264 OFFCURVE",
"139 289 OFFCURVE",
"84 324 CURVE",
"74 324 LINE",
"62 316 OFFCURVE",
"32 285 OFFCURVE",
"4 252 CURVE",
"-9 267 OFFCURVE",
"-30 284 OFFCURVE",
"-64 306 CURVE",
"-74 306 LINE",
"-91 295 OFFCURVE",
"-152 228 OFFCURVE",
"-170 200 CURVE",
"-170 190 LINE",
"-143 170 OFFCURVE",
"-129 158 OFFCURVE",
"-78 109 CURVE"
);
}
);
width = 0;
},
{
layerId = "0A5D7F3A-D11E-4113-AD15-39410F1DC5C2";
paths = (
{
closed = 1;
nodes = (
"-68 119 LINE",
"-26 149 OFFCURVE",
"0 175 OFFCURVE",
"10 195 CURVE",
"29 179 OFFCURVE",
"50 160 OFFCURVE",
"73 137 CURVE",
"82 137 LINE",
"135 176 OFFCURVE",
"162 208 OFFCURVE",
"162 232 CURVE SMOOTH",
"162 260 OFFCURVE",
"136 283 OFFCURVE",
"83 316 CURVE",
"75 316 LINE",
"63 309 OFFCURVE",
"28 271 OFFCURVE",
"4 242 CURVE",
"-8 260 OFFCURVE",
"-31 278 OFFCURVE",
"-64 298 CURVE",
"-73 298 LINE",
"-89 288 OFFCURVE",
"-143 228 OFFCURVE",
"-160 202 CURVE",
"-160 193 LINE",
"-134 172 OFFCURVE",
"-106 147 OFFCURVE",
"-77 119 CURVE"
);
}
);
width = 0;
}
);
note = TwoDotsEnclNS;
},
{
glyphname = TwoDotsVertEnclNS;
lastChange = "2017-06-19 19:10:36 +0000";
layers = (
{
layerId = "67C28EBA-5AA6-4F74-BBA1-5BB358529C60";
paths = (
{
closed = 1;
nodes = (
"-1 -16 LINE",
"50 18 OFFCURVE",
"90 60 OFFCURVE",
"90 89 CURVE SMOOTH",
"90 111 OFFCURVE",
"73 131 OFFCURVE",
"36 160 CURVE",
"68 188 OFFCURVE",
"88 214 OFFCURVE",
"88 235 CURVE SMOOTH",
"88 268 OFFCURVE",
"53 295 OFFCURVE",
"2 327 CURVE",
"-8 327 LINE",
"-25 316 OFFCURVE",
"-86 249 OFFCURVE",
"-104 221 CURVE",
"-104 211 LINE",
"-85 197 OFFCURVE",
"-73 187 OFFCURVE",
"-36 153 CURVE",
"-60 129 OFFCURVE",
"-83 101 OFFCURVE",
"-102 75 CURVE",
"-102 65 LINE",
"-73 44 OFFCURVE",
"-58 31 OFFCURVE",
"-10 -16 CURVE"
);
}
);
width = 0;
},
{
layerId = "0A5D7F3A-D11E-4113-AD15-39410F1DC5C2";
paths = (
{
closed = 1;
nodes = (
"2 -8 LINE",
"47 25 OFFCURVE",
"82 62 OFFCURVE",
"82 87 CURVE SMOOTH",
"82 108 OFFCURVE",
"65 129 OFFCURVE",
"23 159 CURVE",
"60 190 OFFCURVE",
"79 213 OFFCURVE",
"79 234 CURVE SMOOTH",
"79 260 OFFCURVE",
"57 283 OFFCURVE",
"1 318 CURVE",
"-8 318 LINE",
"-21 310 OFFCURVE",
"-77 250 OFFCURVE",
"-95 222 CURVE",
"-95 213 LINE",
"-78 200 OFFCURVE",
"-46 173 OFFCURVE",
"-26 153 CURVE",
"-47 132 OFFCURVE",
"-74 103 OFFCURVE",
"-92 76 CURVE",
"-92 67 LINE",
"-59 41 OFFCURVE",
"-49 33 OFFCURVE",
"-7 -8 CURVE"
);
}
);
width = 0;
}
);
note = TwoDotsVertEnclNS;
},
{
glyphname = FourDotsEnclNS;
lastChange = "2017-06-19 19:10:36 +0000";
layers = (
{
layerId = "67C28EBA-5AA6-4F74-BBA1-5BB358529C60";
paths = (
{
closed = 1;
nodes = (
"-70 8 LINE",
"-59 16 OFFCURVE",
"-48 24 OFFCURVE",
"-38 33 CURVE SMOOTH",
"-27 43 OFFCURVE",
"-18 52 OFFCURVE",
"-11 62 CURVE",
"10 44 OFFCURVE",
"29 27 OFFCURVE",
"34 22 CURVE",
"40 22 LINE",
"57 33 OFFCURVE",
"73 45 OFFCURVE",
"85 58 CURVE SMOOTH",
"99 73 OFFCURVE",
"109 87 OFFCURVE",
"109 100 CURVE SMOOTH",
"109 112 OFFCURVE",
"103 121 OFFCURVE",
"83 141 CURVE SMOOTH",
"78 146 OFFCURVE",
"71 151 OFFCURVE",
"63 157 CURVE",
"94 183 OFFCURVE",
"105 202 OFFCURVE",
"105 216 CURVE SMOOTH",
"105 234 OFFCURVE",
"93 250 OFFCURVE",
"72 264 CURVE SMOOTH",
"41 284 LINE",
"33 284 LINE",
"29 281 OFFCURVE",
"19 271 OFFCURVE",
"7 259 CURVE SMOOTH",
"-2 250 OFFCURVE",
"-11 240 OFFCURVE",
"-19 230 CURVE",
"-28 243 OFFCURVE",
"-41 252 OFFCURVE",
"-69 271 CURVE",
"-77 271 LINE",
"-82 267 OFFCURVE",
"-95 254 OFFCURVE",
"-110 238 CURVE SMOOTH",
"-123 224 OFFCURVE",
"-138 208 OFFCURVE",
"-149 192 CURVE",
"-149 184 LINE",
"-139 177 OFFCURVE",
"-130 171 OFFCURVE",
"-122 163 CURVE SMOOTH",
"-114 155 OFFCURVE",
"-104 147 OFFCURVE",
"-93 137 CURVE",
"-118 110 OFFCURVE",
"-135 90 OFFCURVE",
"-145 76 CURVE",
"-145 68 LINE",
"-131 57 OFFCURVE",
"-120 49 OFFCURVE",
"-110 40 CURVE SMOOTH",
"-99 30 OFFCURVE",
"-89 21 OFFCURVE",
"-77 8 CURVE"
);
},
{
closed = 1;
nodes = (
"-20 112 OFFCURVE",
"-26 118 OFFCURVE",
"-34 124 CURVE SMOOTH",
"-41 129 OFFCURVE",
"-48 137 OFFCURVE",
"-56 143 CURVE",
"-47 150 OFFCURVE",
"-39 157 OFFCURVE",
"-31 165 CURVE SMOOTH",
"-25 171 OFFCURVE",
"-19 178 OFFCURVE",
"-15 185 CURVE",
"24 150 LINE",
"15 141 OFFCURVE",
"9 135 OFFCURVE",
"4 129 CURVE SMOOTH",
"-8 115 OFFCURVE",
"-11 113 OFFCURVE",
"-15 107 CURVE"
);
}
);
width = 0;
},
{
layerId = "0A5D7F3A-D11E-4113-AD15-39410F1DC5C2";
paths = (
{
closed = 1;
nodes = (
"-75 7 LINE",
"-45 29 OFFCURVE",
"-17 52 OFFCURVE",
"-13 73 CURVE",
"-6 68 OFFCURVE",
"8 54 OFFCURVE",
"42 23 CURVE",
"50 23 LINE",
"76 42 OFFCURVE",
"110 73 OFFCURVE",
"110 96 CURVE SMOOTH",
"110 115 OFFCURVE",
"95 132 OFFCURVE",
"57 156 CURVE",
"93 187 OFFCURVE",
"106 206 OFFCURVE",
"106 221 CURVE SMOOTH",
"106 239 OFFCURVE",
"94 255 OFFCURVE",
"45 286 CURVE",
"39 286 LINE",
"29 278 OFFCURVE",
"-13 235 OFFCURVE",
"-21 222 CURVE",
"-28 235 OFFCURVE",
"-43 248 OFFCURVE",
"-77 270 CURVE",
"-83 270 LINE",
"-92 265 OFFCURVE",
"-129 225 OFFCURVE",
"-150 195 CURVE",
"-150 189 LINE",
"-130 176 OFFCURVE",
"-110 155 OFFCURVE",
"-90 135 CURVE",
"-113 112 OFFCURVE",
"-130 92 OFFCURVE",
"-145 71 CURVE",
"-145 65 LINE",
"-120 45 OFFCURVE",
"-103 31 OFFCURVE",
"-82 7 CURVE"
);
},
{
closed = 1;
nodes = (
"-21 109 OFFCURVE",
"-32 120 OFFCURVE",
"-66 142 CURVE",
"-31 170 OFFCURVE",
"-21 183 OFFCURVE",
"-18 196 CURVE",
"-5 186 OFFCURVE",
"10 174 OFFCURVE",
"33 152 CURVE",
"7 125 OFFCURVE",
"-3 114 OFFCURVE",
"-16 90 CURVE"
);
}
);
width = 0;
}
);
note = FourDotsEnclNS;
},
{
glyphname = TwoDotsVertAboveNS;
lastChange = "2017-06-19 19:10:36 +0000";
layers = (
{
layerId = "67C28EBA-5AA6-4F74-BBA1-5BB358529C60";
paths = (
{
closed = 1;
nodes = (
"118 2 LINE",
"169 36 OFFCURVE",
"209 78 OFFCURVE",
"209 107 CURVE SMOOTH",
"209 129 OFFCURVE",
"192 149 OFFCURVE",
"155 178 CURVE",
"187 206 OFFCURVE",
"207 232 OFFCURVE",
"207 253 CURVE SMOOTH",
"207 286 OFFCURVE",
"172 313 OFFCURVE",
"121 345 CURVE",
"111 345 LINE",
"94 334 OFFCURVE",
"33 267 OFFCURVE",
"15 239 CURVE",
"15 229 LINE",
"34 215 OFFCURVE",
"46 205 OFFCURVE",
"83 171 CURVE",
"59 147 OFFCURVE",
"36 119 OFFCURVE",
"17 93 CURVE",
"17 83 LINE",
"46 62 OFFCURVE",
"55 54 OFFCURVE",
"109 2 CURVE"
);
}
);
width = 0;
},
{
layerId = "0A5D7F3A-D11E-4113-AD15-39410F1DC5C2";
paths = (
{
closed = 1;
nodes = (
"121 10 LINE",
"166 43 OFFCURVE",
"200 79 OFFCURVE",
"200 104 CURVE SMOOTH",
"200 126 OFFCURVE",
"184 147 OFFCURVE",
"142 177 CURVE",
"179 208 OFFCURVE",
"198 231 OFFCURVE",
"198 251 CURVE SMOOTH",
"198 278 OFFCURVE",
"176 300 OFFCURVE",
"120 336 CURVE",
"111 336 LINE",
"98 327 OFFCURVE",
"42 268 OFFCURVE",
"24 240 CURVE",
"24 231 LINE",
"41 218 OFFCURVE",
"72 190 OFFCURVE",
"92 170 CURVE",
"72 149 OFFCURVE",
"44 121 OFFCURVE",
"26 93 CURVE",
"26 84 LINE",
"49 67 OFFCURVE",
"78 42 OFFCURVE",
"112 10 CURVE"
);
}
);
width = 0;
}
);
note = TwoDotsVertAboveNS;
},
{
glyphname = TwoDotsVertBelowNS;
lastChange = "2017-06-19 19:10:36 +0000";
layers = (
{
layerId = "67C28EBA-5AA6-4F74-BBA1-5BB358529C60";
paths = (
{
closed = 1;
nodes = (
"118 -350 LINE",
"169 -316 OFFCURVE",
"209 -274 OFFCURVE",
"209 -245 CURVE SMOOTH",
"209 -223 OFFCURVE",
"192 -203 OFFCURVE",
"155 -174 CURVE",
"187 -146 OFFCURVE",
"207 -120 OFFCURVE",
"207 -99 CURVE SMOOTH",
"207 -66 OFFCURVE",
"172 -39 OFFCURVE",
"121 -7 CURVE",
"111 -7 LINE",
"94 -18 OFFCURVE",
"33 -85 OFFCURVE",
"15 -113 CURVE",
"15 -123 LINE",
"34 -137 OFFCURVE",
"46 -147 OFFCURVE",
"83 -181 CURVE",
"59 -205 OFFCURVE",
"36 -233 OFFCURVE",
"17 -259 CURVE",
"17 -269 LINE",
"46 -290 OFFCURVE",
"55 -298 OFFCURVE",
"109 -350 CURVE"
);
}
);
width = 0;
},
{
layerId = "0A5D7F3A-D11E-4113-AD15-39410F1DC5C2";
paths = (
{
closed = 1;
nodes = (
"121 -342 LINE",
"166 -309 OFFCURVE",
"200 -272 OFFCURVE",
"200 -247 CURVE SMOOTH",
"200 -226 OFFCURVE",
"184 -205 OFFCURVE",
"142 -175 CURVE",
"179 -144 OFFCURVE",
"198 -121 OFFCURVE",
"198 -100 CURVE SMOOTH",
"198 -74 OFFCURVE",
"176 -51 OFFCURVE",
"120 -16 CURVE",
"111 -16 LINE",
"98 -24 OFFCURVE",
"42 -83 OFFCURVE",
"24 -112 CURVE",
"24 -121 LINE",
"41 -134 OFFCURVE",
"72 -161 OFFCURVE",
"92 -181 CURVE",
"72 -202 OFFCURVE",
"44 -231 OFFCURVE",
"26 -258 CURVE",
"26 -267 LINE",
"57 -290 OFFCURVE",
"68 -300 OFFCURVE",
"112 -342 CURVE"
);
}
);
width = 0;
}
);
note = TwoDotsVertBelowNS;
},
{
glyphname = FourDotsAboveNS;
lastChange = "2017-06-19 19:10:36 +0000";
layers = (
{
layerId = "67C28EBA-5AA6-4F74-BBA1-5BB358529C60";
paths = (
{
closed = 1;
nodes = (
"83 9 LINE",
"104 24 OFFCURVE",
"133 45 OFFCURVE",
"149 69 CURVE",
"165 55 OFFCURVE",
"177 46 OFFCURVE",
"199 24 CURVE",
"206 24 LINE",
"245 50 OFFCURVE",
"282 84 OFFCURVE",
"282 111 CURVE SMOOTH",
"282 131 OFFCURVE",
"268 147 OFFCURVE",
"231 174 CURVE",
"252 192 OFFCURVE",
"278 216 OFFCURVE",
"278 240 CURVE SMOOTH",
"278 267 OFFCURVE",
"252 287 OFFCURVE",
"207 316 CURVE",
"198 316 LINE",
"190 309 OFFCURVE",
"163 283 OFFCURVE",
"140 256 CURVE",
"130 270 OFFCURVE",
"113 282 OFFCURVE",
"84 301 CURVE",
"76 301 LINE",
"54 283 OFFCURVE",
"13 239 OFFCURVE",
"-4 213 CURVE",
"-4 205 LINE",
"19 190 OFFCURVE",
"38 171 OFFCURVE",
"58 152 CURVE",
"35 129 OFFCURVE",
"19 111 OFFCURVE",
"0 84 CURVE",
"0 76 LINE",
"25 57 OFFCURVE",
"51 36 OFFCURVE",
"76 9 CURVE"
);
},
{
closed = 1;
nodes = (
"134 131 OFFCURVE",
"115 146 OFFCURVE",
"99 159 CURVE",
"119 174 OFFCURVE",
"134 190 OFFCURVE",
"145 206 CURVE",
"188 167 LINE",
"161 139 OFFCURVE",
"152 129 OFFCURVE",
"144 119 CURVE"
);
}
);
width = 0;
},
{
layerId = "0A5D7F3A-D11E-4113-AD15-39410F1DC5C2";
paths = (
{
closed = 1;
nodes = (
"70 7 LINE",
"100 29 OFFCURVE",
"128 52 OFFCURVE",
"132 73 CURVE",
"137 69 OFFCURVE",
"154 54 OFFCURVE",
"188 23 CURVE",
"195 23 LINE",
"221 42 OFFCURVE",
"255 73 OFFCURVE",
"255 96 CURVE SMOOTH",
"255 115 OFFCURVE",
"240 132 OFFCURVE",
"202 156 CURVE",
"238 187 OFFCURVE",
"251 206 OFFCURVE",
"251 221 CURVE SMOOTH",
"251 239 OFFCURVE",
"239 255 OFFCURVE",
"190 286 CURVE",
"184 286 LINE",
"174 279 OFFCURVE",
"134 237 OFFCURVE",
"125 222 CURVE",
"117 235 OFFCURVE",
"102 248 OFFCURVE",
"68 270 CURVE",
"62 270 LINE",
"53 265 OFFCURVE",
"16 225 OFFCURVE",
"-5 195 CURVE",
"-5 189 LINE",
"15 176 OFFCURVE",
"35 156 OFFCURVE",
"55 135 CURVE",
"31 111 OFFCURVE",
"15 92 OFFCURVE",
"0 71 CURVE",
"0 65 LINE",
"24 46 OFFCURVE",
"42 31 OFFCURVE",
"63 7 CURVE"
);
},
{
closed = 1;
nodes = (
"124 109 OFFCURVE",
"113 120 OFFCURVE",
"79 142 CURVE",
"114 170 OFFCURVE",
"125 183 OFFCURVE",
"127 196 CURVE",
"140 186 OFFCURVE",
"153 175 OFFCURVE",
"178 152 CURVE",
"152 125 OFFCURVE",
"142 114 OFFCURVE",
"129 90 CURVE"
);
}
);
width = 0;
}
);
note = FourDotsAboveNS;
},
{
glyphname = FourDotsBelowNS;
lastChange = "2017-06-19 19:10:36 +0000";
layers = (
{
layerId = "67C28EBA-5AA6-4F74-BBA1-5BB358529C60";
paths = (
{
closed = 1;
nodes = (
"75 -317 LINE",
"88 -307 OFFCURVE",
"101 -297 OFFCURVE",
"113 -287 CURVE SMOOTH",
"122 -280 OFFCURVE",
"128 -271 OFFCURVE",
"134 -263 CURVE",
"155 -281 OFFCURVE",
"174 -298 OFFCURVE",
"179 -303 CURVE",
"185 -303 LINE",
"203 -291 OFFCURVE",
"219 -279 OFFCURVE",
"231 -266 CURVE SMOOTH",
"244 -251 OFFCURVE",
"254 -237 OFFCURVE",
"254 -225 CURVE SMOOTH",
"254 -214 OFFCURVE",
"251 -204 OFFCURVE",
"233 -189 CURVE SMOOTH",
"226 -183 OFFCURVE",
"218 -176 OFFCURVE",
"208 -168 CURVE",
"239 -142 OFFCURVE",
"250 -123 OFFCURVE",
"250 -109 CURVE SMOOTH",
"250 -93 OFFCURVE",
"240 -79 OFFCURVE",
"223 -66 CURVE SMOOTH",
"213 -58 OFFCURVE",
"200 -50 OFFCURVE",
"186 -41 CURVE",
"178 -41 LINE",
"174 -44 OFFCURVE",
"165 -53 OFFCURVE",
"155 -64 CURVE SMOOTH",
"146 -74 OFFCURVE",
"135 -84 OFFCURVE",
"126 -95 CURVE",
"117 -82 OFFCURVE",
"104 -73 OFFCURVE",
"76 -54 CURVE",
"68 -54 LINE",
"63 -58 OFFCURVE",
"50 -71 OFFCURVE",
"35 -87 CURVE SMOOTH",
"22 -101 OFFCURVE",
"7 -117 OFFCURVE",
"-4 -133 CURVE",
"-4 -141 LINE",
"6 -147 OFFCURVE",
"15 -155 OFFCURVE",
"24 -162 CURVE SMOOTH",
"35 -170 OFFCURVE",
"43 -180 OFFCURVE",
"52 -188 CURVE",
"23 -220 LINE",
"13 -232 OFFCURVE",
"5 -241 OFFCURVE",
"0 -249 CURVE",
"0 -257 LINE",
"11 -265 OFFCURVE",
"22 -273 OFFCURVE",
"32 -282 CURVE",
"44 -292 OFFCURVE",
"56 -303 OFFCURVE",
"68 -317 CURVE"
);
},
{
closed = 1;
nodes = (
"126 -214 OFFCURVE",
"120 -208 OFFCURVE",
"113 -202 CURVE SMOOTH",
"105 -195 OFFCURVE",
"98 -189 OFFCURVE",
"89 -182 CURVE",
"98 -175 OFFCURVE",
"105 -169 OFFCURVE",
"112 -162 CURVE SMOOTH",
"119 -155 OFFCURVE",
"125 -147 OFFCURVE",
"130 -140 CURVE",
"169 -175 LINE",
"161 -184 OFFCURVE",
"153 -191 OFFCURVE",
"147 -198 CURVE SMOOTH",
"139 -207 OFFCURVE",
"133 -213 OFFCURVE",
"130 -218 CURVE"
);
}
);
width = 0;
},
{
layerId = "0A5D7F3A-D11E-4113-AD15-39410F1DC5C2";
paths = (
{
closed = 1;
nodes = (
"70 -318 LINE",
"100 -296 OFFCURVE",
"128 -273 OFFCURVE",
"132 -252 CURVE",
"141 -258 OFFCURVE",
"166 -283 OFFCURVE",
"188 -302 CURVE",
"195 -302 LINE",
"221 -283 OFFCURVE",
"255 -252 OFFCURVE",
"255 -229 CURVE SMOOTH",
"255 -210 OFFCURVE",
"240 -193 OFFCURVE",
"202 -169 CURVE",
"238 -139 OFFCURVE",
"251 -119 OFFCURVE",
"251 -104 CURVE SMOOTH",
"251 -86 OFFCURVE",
"239 -70 OFFCURVE",
"190 -40 CURVE",
"184 -40 LINE",
"174 -45 OFFCURVE",
"134 -88 OFFCURVE",
"125 -103 CURVE",
"117 -90 OFFCURVE",
"102 -78 OFFCURVE",
"68 -55 CURVE",
"62 -55 LINE",
"53 -60 OFFCURVE",
"16 -100 OFFCURVE",
"-5 -130 CURVE",
"-5 -136 LINE",
"15 -148 OFFCURVE",
"35 -171 OFFCURVE",
"55 -190 CURVE",
"29 -217 OFFCURVE",
"13 -235 OFFCURVE",
"0 -254 CURVE",
"0 -260 LINE",
"21 -277 OFFCURVE",
"42 -296 OFFCURVE",
"63 -318 CURVE"
);
},
{
closed = 1;
nodes = (
"124 -216 OFFCURVE",
"113 -206 OFFCURVE",
"79 -184 CURVE",
"114 -155 OFFCURVE",
"125 -143 OFFCURVE",
"127 -129 CURVE",
"140 -139 OFFCURVE",
"153 -150 OFFCURVE",
"178 -173 CURVE",
"152 -200 OFFCURVE",
"142 -211 OFFCURVE",
"129 -235 CURVE"
);
}
);
width = 0;
}
);
note = FourDotsBelowNS;
},
{
glyphname = MaddaNS;
lastChange = "2017-06-19 19:10:36 +0000";
layers = (
{
layerId = "67C28EBA-5AA6-4F74-BBA1-5BB358529C60";
paths = (
{
closed = 1;
nodes = (
"-234 902 OFFCURVE",
"-223 921 OFFCURVE",
"-190 921 CURVE SMOOTH",
"-161 921 OFFCURVE",
"-108 900 OFFCURVE",
"-13 900 CURVE SMOOTH",
"94 900 OFFCURVE",
"207 943 OFFCURVE",
"295 1063 CURVE",
"278 1077 LINE",
"220 1029 OFFCURVE",
"160 1012 OFFCURVE",
"64 1012 CURVE SMOOTH",
"-34 1012 OFFCURVE",
"-92 1034 OFFCURVE",
"-130 1034 CURVE SMOOTH",
"-185 1034 OFFCURVE",
"-235 974 OFFCURVE",
"-277 885 CURVE",
"-255 875 LINE"
);
}
);
width = 0;
},
{
layerId = "0A5D7F3A-D11E-4113-AD15-39410F1DC5C2";
paths = (
{
closed = 1;
nodes = (
"-221 913 OFFCURVE",
"-207 925 OFFCURVE",
"-183 925 CURVE SMOOTH",
"-137 925 OFFCURVE",
"-110 907 OFFCURVE",
"-11 907 CURVE SMOOTH",
"75 907 OFFCURVE",
"190 939 OFFCURVE",
"279 1057 CURVE",
"266 1068 LINE",
"210 1021 OFFCURVE",
"141 1009 OFFCURVE",
"59 1009 CURVE SMOOTH",
"-35 1009 OFFCURVE",
"-96 1029 OFFCURVE",
"-128 1029 CURVE SMOOTH",
"-180 1029 OFFCURVE",
"-226 968 OFFCURVE",
"-262 893 CURVE",
"-242 884 LINE"
);
}
);
width = 0;
}
);
note = MaddaNS;
unicode = 0653;
},
{
glyphname = Madda.shortNS;
lastChange = "2017-06-19 19:10:36 +0000";
layers = (
{
layerId = "67C28EBA-5AA6-4F74-BBA1-5BB358529C60";
paths = (
{
closed = 1;
nodes = (
"-186 903 OFFCURVE",
"-170 921 OFFCURVE",
"-141 921 CURVE SMOOTH",
"-112 921 OFFCURVE",
"-49 901 OFFCURVE",
"16 901 CURVE SMOOTH",
"140 901 OFFCURVE",
"197 944 OFFCURVE",
"282 1053 CURVE",
"265 1067 LINE",
"216 1023 OFFCURVE",
"164 1013 OFFCURVE",
"85 1013 CURVE SMOOTH",
"28 1013 OFFCURVE",
"-44 1035 OFFCURVE",
"-84 1035 CURVE SMOOTH",
"-126 1035 OFFCURVE",
"-176 997 OFFCURVE",
"-229 885 CURVE",
"-206 875 LINE"
);
}
);
width = 0;
},
{
layerId = "0A5D7F3A-D11E-4113-AD15-39410F1DC5C2";
paths = (
{
closed = 1;
nodes = (
"-173 913 OFFCURVE",
"-160 925 OFFCURVE",
"-135 925 CURVE SMOOTH",
"-96 925 OFFCURVE",
"-42 907 OFFCURVE",
"17 907 CURVE SMOOTH",
"104 907 OFFCURVE",
"179 929 OFFCURVE",
"267 1047 CURVE",
"254 1057 LINE",
"211 1020 OFFCURVE",
"160 1009 OFFCURVE",
"80 1009 CURVE SMOOTH",
"32 1009 OFFCURVE",
"-58 1029 OFFCURVE",
"-81 1029 CURVE SMOOTH",
"-133 1029 OFFCURVE",
"-179 968 OFFCURVE",
"-214 893 CURVE",
"-194 884 LINE"
);
}
);
width = 0;
}
);
note = Madda.shortNS;
},
{
glyphname = Madda.shorterNS;
lastChange = "2017-06-19 19:10:36 +0000";
layers = (
{
layerId = "67C28EBA-5AA6-4F74-BBA1-5BB358529C60";
paths = (
{
closed = 1;
nodes = (
"-131 914 OFFCURVE",
"-117 926 OFFCURVE",
"-98 926 CURVE SMOOTH",
"-83 926 OFFCURVE",
"-16 907 OFFCURVE",
"27 907 CURVE SMOOTH",
"123 907 OFFCURVE",
"183 951 OFFCURVE",
"242 1043 CURVE",
"224 1057 LINE",
"183 1016 OFFCURVE",
"145 1009 OFFCURVE",
"87 1009 CURVE SMOOTH",
"35 1009 OFFCURVE",
"-7 1027 OFFCURVE",
"-47 1027 CURVE SMOOTH",
"-92 1027 OFFCURVE",
"-133 984 OFFCURVE",
"-172 892 CURVE",
"-149 883 LINE"
);
}
);
width = 0;
},
{
layerId = "0A5D7F3A-D11E-4113-AD15-39410F1DC5C2";
paths = (
{
closed = 1;
nodes = (
"-131 917 OFFCURVE",
"-121 925 OFFCURVE",
"-101 925 CURVE SMOOTH",
"-66 925 OFFCURVE",
"-31 907 OFFCURVE",
"27 907 CURVE SMOOTH",
"117 907 OFFCURVE",
"174 944 OFFCURVE",
"240 1047 CURVE",
"228 1056 LINE",
"193 1021 OFFCURVE",
"161 1009 OFFCURVE",
"87 1009 CURVE SMOOTH",
"41 1009 OFFCURVE",
"-13 1026 OFFCURVE",
"-47 1026 CURVE SMOOTH",
"-89 1026 OFFCURVE",
"-134 984 OFFCURVE",
"-172 892 CURVE",
"-152 884 LINE"
);
}
);
width = 0;
}
);
note = Madda.shorterNS;
},
{
glyphname = WaslaNS;
lastChange = "2017-06-19 19:10:36 +0000";
layers = (
{
layerId = "67C28EBA-5AA6-4F74-BBA1-5BB358529C60";
paths = (
{
closed = 1;
nodes = (
"-114 885 OFFCURVE",
"-101 891 OFFCURVE",
"-85 891 CURVE SMOOTH",
"-67 891 OFFCURVE",
"-43 872 OFFCURVE",
"-15 872 CURVE SMOOTH",
"66 872 OFFCURVE",
"136 950 OFFCURVE",
"136 1025 CURVE SMOOTH",
"136 1041 OFFCURVE",
"123 1058 OFFCURVE",
"94 1058 CURVE SMOOTH",
"65 1058 OFFCURVE",
"37 1045 OFFCURVE",
"12 1020 CURVE SMOOTH",
"-14 995 OFFCURVE",
"-35 970 OFFCURVE",
"-50 947 CURVE",
"-56 949 OFFCURVE",
"-64 950 OFFCURVE",
"-74 950 CURVE SMOOTH",
"-107 950 OFFCURVE",
"-132 909 OFFCURVE",
"-146 872 CURVE",
"-129 865 LINE"
);
},
{
closed = 1;
nodes = (
"-11 934 OFFCURVE",
"-20 936 OFFCURVE",
"-27 939 CURVE",
"-20 948 LINE SMOOTH",
"7 983 OFFCURVE",
"38 996 OFFCURVE",
"66 996 CURVE SMOOTH",
"76 996 OFFCURVE",
"100 993 OFFCURVE",
"100 979 CURVE SMOOTH",
"100 956 OFFCURVE",
"24 934 OFFCURVE",
"-2 934 CURVE SMOOTH"
);
}
);
width = 0;
},
{
layerId = "0A5D7F3A-D11E-4113-AD15-39410F1DC5C2";
paths = (
{
closed = 1;
nodes = (
"-105 894 OFFCURVE",
"-95 897 OFFCURVE",
"-82 897 CURVE SMOOTH",
"-73 897 OFFCURVE",
"-63 895 OFFCURVE",
"-50 889 CURVE",
"-38 884 OFFCURVE",
"-26 881 OFFCURVE",
"-14 881 CURVE SMOOTH",
"72 881 OFFCURVE",
"134 967 OFFCURVE",
"134 1021 CURVE SMOOTH",
"134 1035 OFFCURVE",
"125 1049 OFFCURVE",
"100 1049 CURVE SMOOTH",
"76 1049 OFFCURVE",
"52 1040 OFFCURVE",
"29 1021 CURVE SMOOTH",
"1 997 OFFCURVE",
"-12 982 OFFCURVE",
"-44 940 CURVE",
"-50 943 OFFCURVE",
"-57 945 OFFCURVE",
"-66 945 CURVE SMOOTH",
"-93 945 OFFCURVE",
"-117 919 OFFCURVE",
"-132 879 CURVE",
"-123 875 LINE"
);
},
{
closed = 1;
nodes = (
"-16 930 OFFCURVE",
"-20 931 OFFCURVE",
"-26 934 CURVE",
"-10 953 LINE SMOOTH",
"14 981 OFFCURVE",
"40 998 OFFCURVE",
"67 998 CURVE SMOOTH",
"74 998 OFFCURVE",
"97 995 OFFCURVE",
"97 979 CURVE SMOOTH",
"97 955 OFFCURVE",
"35 930 OFFCURVE",
"-1 930 CURVE SMOOTH"
);
}
);
width = 0;
}
);
note = WaslaNS;
},
{
glyphname = HamzaAboveNS;
lastChange = "2017-06-19 19:10:36 +0000";
layers = (
{
layerId = "67C28EBA-5AA6-4F74-BBA1-5BB358529C60";
paths = (
{
closed = 1;
nodes = (
"-68 837 OFFCURVE",
"-40 860 OFFCURVE",
"-13 907 CURVE SMOOTH",
"14 954 OFFCURVE",
"37 977 OFFCURVE",
"56 977 CURVE SMOOTH",
"74 977 OFFCURVE",
"84 966 OFFCURVE",
"84 953 CURVE SMOOTH",
"84 950 OFFCURVE",
"83 946 OFFCURVE",
"82 942 CURVE",
"100 937 LINE",
"117 957 OFFCURVE",
"134 1002 OFFCURVE",
"134 1029 CURVE SMOOTH",
"134 1065 OFFCURVE",
"112 1075 OFFCURVE",
"92 1075 CURVE SMOOTH",
"62 1075 OFFCURVE",
"42 1054 OFFCURVE",
"17 1015 CURVE SMOOTH",
"-12 970 LINE SMOOTH",
"-30 943 OFFCURVE",
"-45 935 OFFCURVE",
"-59 935 CURVE SMOOTH",
"-76 935 OFFCURVE",
"-84 944 OFFCURVE",
"-84 958 CURVE SMOOTH",
"-84 962 OFFCURVE",
"-83 966 OFFCURVE",
"-82 970 CURVE",
"-101 975 LINE",
"-116 957 OFFCURVE",
"-137 919 OFFCURVE",
"-137 882 CURVE SMOOTH",
"-137 853 OFFCURVE",
"-121 837 OFFCURVE",
"-98 837 CURVE SMOOTH"
);
}
);
width = 0;
},
{
layerId = "0A5D7F3A-D11E-4113-AD15-39410F1DC5C2";
paths = (
{
closed = 1;
nodes = (
"-65 848 OFFCURVE",
"-44 866 OFFCURVE",
"-19 905 CURVE SMOOTH",
"15 957 LINE SMOOTH",
"32 982 OFFCURVE",
"42 990 OFFCURVE",
"55 990 CURVE SMOOTH",
"64 990 OFFCURVE",
"75 983 OFFCURVE",
"75 964 CURVE",
"91 960 LINE",
"108 979 OFFCURVE",
"122 1005 OFFCURVE",
"122 1031 CURVE SMOOTH",
"122 1057 OFFCURVE",
"104 1064 OFFCURVE",
"88 1064 CURVE SMOOTH",
"64 1064 OFFCURVE",
"45 1049 OFFCURVE",
"17 1008 CURVE SMOOTH",
"-17 957 LINE SMOOTH",
"-35 931 OFFCURVE",
"-45 923 OFFCURVE",
"-58 923 CURVE SMOOTH",
"-68 923 OFFCURVE",
"-77 932 OFFCURVE",
"-77 948 CURVE",
"-94 952 LINE",
"-111 934 OFFCURVE",
"-125 907 OFFCURVE",
"-125 881 CURVE SMOOTH",
"-125 859 OFFCURVE",
"-112 848 OFFCURVE",
"-90 848 CURVE SMOOTH"
);
}
);
width = 0;
}
);
note = HamzaAboveNS;
unicode = 0654;
},
{
glyphname = HamzaBelowNS;
lastChange = "2017-06-19 19:10:36 +0000";
layers = (
{
layerId = "67C28EBA-5AA6-4F74-BBA1-5BB358529C60";
paths = (
{
closed = 1;
nodes = (
"-68 -288 OFFCURVE",
"-40 -265 OFFCURVE",
"-13 -218 CURVE SMOOTH",
"14 -171 OFFCURVE",
"37 -148 OFFCURVE",
"56 -148 CURVE SMOOTH",
"74 -148 OFFCURVE",
"84 -159 OFFCURVE",
"84 -172 CURVE SMOOTH",
"84 -175 OFFCURVE",
"83 -179 OFFCURVE",
"82 -183 CURVE",
"100 -188 LINE",
"117 -168 OFFCURVE",
"134 -123 OFFCURVE",
"134 -96 CURVE SMOOTH",
"134 -60 OFFCURVE",
"112 -50 OFFCURVE",
"92 -50 CURVE SMOOTH",
"62 -50 OFFCURVE",
"42 -71 OFFCURVE",
"17 -110 CURVE SMOOTH",
"-12 -155 LINE SMOOTH",
"-30 -182 OFFCURVE",
"-45 -190 OFFCURVE",
"-59 -190 CURVE SMOOTH",
"-76 -190 OFFCURVE",
"-84 -181 OFFCURVE",
"-84 -167 CURVE SMOOTH",
"-84 -163 OFFCURVE",
"-83 -159 OFFCURVE",
"-82 -155 CURVE",
"-101 -150 LINE",
"-116 -168 OFFCURVE",
"-137 -206 OFFCURVE",
"-137 -243 CURVE SMOOTH",
"-137 -272 OFFCURVE",
"-121 -288 OFFCURVE",
"-98 -288 CURVE SMOOTH"
);
}
);
width = 0;
},
{
layerId = "0A5D7F3A-D11E-4113-AD15-39410F1DC5C2";
paths = (
{
closed = 1;
nodes = (
"-65 -277 OFFCURVE",
"-44 -259 OFFCURVE",
"-19 -220 CURVE SMOOTH",
"15 -168 LINE SMOOTH",
"32 -143 OFFCURVE",
"42 -135 OFFCURVE",
"55 -135 CURVE SMOOTH",
"64 -135 OFFCURVE",
"75 -142 OFFCURVE",
"75 -161 CURVE",
"91 -165 LINE",
"108 -146 OFFCURVE",
"122 -120 OFFCURVE",
"122 -94 CURVE SMOOTH",
"122 -68 OFFCURVE",
"104 -61 OFFCURVE",
"88 -61 CURVE SMOOTH",
"64 -61 OFFCURVE",
"45 -75 OFFCURVE",
"17 -117 CURVE SMOOTH",
"-17 -168 LINE SMOOTH",
"-34 -194 OFFCURVE",
"-45 -202 OFFCURVE",
"-58 -202 CURVE SMOOTH",
"-68 -202 OFFCURVE",
"-77 -193 OFFCURVE",
"-77 -177 CURVE",
"-94 -173 LINE",
"-111 -191 OFFCURVE",
"-125 -218 OFFCURVE",
"-125 -244 CURVE SMOOTH",
"-125 -266 OFFCURVE",
"-112 -277 OFFCURVE",
"-90 -277 CURVE SMOOTH"
);
}
);
width = 0;
}
);
note = HamzaBelowNS;
unicode = 0655;
},
{
glyphname = HamzaAboveAF_NS;
lastChange = "2017-06-19 19:10:36 +0000";
layers = (
{
layerId = "67C28EBA-5AA6-4F74-BBA1-5BB358529C60";
paths = (
{
closed = 1;
nodes = (
"-79 826 OFFCURVE",
"-42 847 OFFCURVE",
"4 868 CURVE SMOOTH",
"93 909 OFFCURVE",
"125 923 OFFCURVE",
"145 983 CURVE",
"131 992 LINE",
"104 967 OFFCURVE",
"67 946 OFFCURVE",
"46 946 CURVE SMOOTH",
"11 946 OFFCURVE",
"-13 962 OFFCURVE",
"-13 986 CURVE SMOOTH",
"-13 1011 OFFCURVE",
"10 1030 OFFCURVE",
"39 1030 CURVE SMOOTH",
"53 1030 OFFCURVE",
"69 1023 OFFCURVE",
"77 1011 CURVE",
"85 1011 LINE",
"93 1017 OFFCURVE",
"103 1027 OFFCURVE",
"103 1046 CURVE SMOOTH",
"103 1069 OFFCURVE",
"83 1078 OFFCURVE",
"58 1078 CURVE SMOOTH",
"5 1078 OFFCURVE",
"-81 993 OFFCURVE",
"-81 940 CURVE SMOOTH",
"-81 918 OFFCURVE",
"-68 902 OFFCURVE",
"-57 895 CURVE",
"-58 891 LINE",
"-82 877 OFFCURVE",
"-108 852 OFFCURVE",
"-119 816 CURVE",
"-107 805 LINE"
);
}
);
width = 0;
},
{
layerId = "0A5D7F3A-D11E-4113-AD15-39410F1DC5C2";
paths = (
{
closed = 1;
nodes = (
"-66 838 OFFCURVE",
"-31 859 OFFCURVE",
"9 877 CURVE SMOOTH",
"99 917 OFFCURVE",
"116 930 OFFCURVE",
"133 979 CURVE",
"124 984 LINE",
"106 966 OFFCURVE",
"72 942 OFFCURVE",
"46 942 CURVE SMOOTH",
"8 942 OFFCURVE",
"-16 959 OFFCURVE",
"-16 983 CURVE SMOOTH",
"-16 1009 OFFCURVE",
"14 1024 OFFCURVE",
"36 1024 CURVE SMOOTH",
"49 1024 OFFCURVE",
"61 1019 OFFCURVE",
"70 1010 CURVE",
"75 1010 LINE",
"82 1013 OFFCURVE",
"90 1023 OFFCURVE",
"90 1037 CURVE SMOOTH",
"90 1058 OFFCURVE",
"70 1065 OFFCURVE",
"54 1065 CURVE SMOOTH",
"6 1065 OFFCURVE",
"-70 992 OFFCURVE",
"-70 940 CURVE SMOOTH",
"-70 927 OFFCURVE",
"-67 917 OFFCURVE",
"-61 912 CURVE SMOOTH",
"-54 906 OFFCURVE",
"-50 901 OFFCURVE",
"-47 896 CURVE",
"-48 893 LINE",
"-63 884 OFFCURVE",
"-93 858 OFFCURVE",
"-103 824 CURVE",
"-96 817 LINE"
);
}
);
width = 0;
}
);
note = HamzaAboveAF_NS;
},
{
glyphname = HamzaBelowAF_NS;
lastChange = "2017-06-19 19:10:36 +0000";
layers = (
{
layerId = "67C28EBA-5AA6-4F74-BBA1-5BB358529C60";
paths = (
{
closed = 1;
nodes = (
"-79 -317 OFFCURVE",
"-42 -296 OFFCURVE",
"4 -275 CURVE SMOOTH",
"93 -234 OFFCURVE",
"125 -220 OFFCURVE",
"145 -160 CURVE",
"131 -151 LINE",
"104 -176 OFFCURVE",
"67 -197 OFFCURVE",
"46 -197 CURVE SMOOTH",
"11 -197 OFFCURVE",
"-13 -181 OFFCURVE",
"-13 -157 CURVE SMOOTH",
"-13 -132 OFFCURVE",
"10 -113 OFFCURVE",
"39 -113 CURVE SMOOTH",
"53 -113 OFFCURVE",
"69 -120 OFFCURVE",
"77 -132 CURVE",
"85 -132 LINE",
"93 -126 OFFCURVE",
"103 -116 OFFCURVE",
"103 -97 CURVE SMOOTH",
"103 -74 OFFCURVE",
"83 -65 OFFCURVE",
"58 -65 CURVE SMOOTH",
"5 -65 OFFCURVE",
"-81 -150 OFFCURVE",
"-81 -203 CURVE SMOOTH",
"-81 -225 OFFCURVE",
"-68 -241 OFFCURVE",
"-57 -248 CURVE",
"-58 -252 LINE",
"-82 -266 OFFCURVE",
"-108 -291 OFFCURVE",
"-119 -327 CURVE",
"-107 -338 LINE"
);
}
);
width = 0;
},
{
layerId = "0A5D7F3A-D11E-4113-AD15-39410F1DC5C2";
paths = (
{
closed = 1;
nodes = (
"-66 -304 OFFCURVE",
"-31 -284 OFFCURVE",
"9 -266 CURVE SMOOTH",
"99 -226 OFFCURVE",
"116 -212 OFFCURVE",
"133 -164 CURVE",
"124 -158 LINE",
"106 -176 OFFCURVE",
"72 -200 OFFCURVE",
"46 -200 CURVE SMOOTH",
"8 -200 OFFCURVE",
"-16 -183 OFFCURVE",
"-16 -159 CURVE SMOOTH",
"-16 -133 OFFCURVE",
"14 -119 OFFCURVE",
"36 -119 CURVE SMOOTH",
"49 -119 OFFCURVE",
"61 -124 OFFCURVE",
"70 -133 CURVE",
"75 -133 LINE",
"82 -130 OFFCURVE",
"90 -120 OFFCURVE",
"90 -105 CURVE SMOOTH",
"90 -84 OFFCURVE",
"70 -77 OFFCURVE",
"54 -77 CURVE SMOOTH",
"6 -77 OFFCURVE",
"-70 -151 OFFCURVE",
"-70 -202 CURVE SMOOTH",
"-70 -215 OFFCURVE",
"-67 -225 OFFCURVE",
"-61 -231 CURVE",
"-54 -237 OFFCURVE",
"-50 -242 OFFCURVE",
"-47 -246 CURVE",
"-48 -250 LINE",
"-63 -258 OFFCURVE",
"-93 -284 OFFCURVE",
"-103 -319 CURVE",
"-96 -325 LINE"
);
}
);
width = 0;
}
);
note = HamzaBelowAF_NS;
},
{
glyphname = AlayhissalamNS;
lastChange = "2017-06-19 19:10:36 +0000";
layers = (
{
layerId = "67C28EBA-5AA6-4F74-BBA1-5BB358529C60";
paths = (
{
closed = 1;
nodes = (
"-79 859 OFFCURVE",
"-76 879 OFFCURVE",
"-76 948 CURVE",
"-63 938 OFFCURVE",
"-48 933 OFFCURVE",
"-29 933 CURVE SMOOTH",
"45 933 OFFCURVE",
"134 989 OFFCURVE",
"163 1065 CURVE",
"152 1074 LINE",
"129 1050 OFFCURVE",
"96 1022 OFFCURVE",
"66 1022 CURVE SMOOTH",
"38 1022 OFFCURVE",
"3 1035 OFFCURVE",
"3 1059 CURVE SMOOTH",
"3 1084 OFFCURVE",
"32 1099 OFFCURVE",
"53 1099 CURVE SMOOTH",
"71 1099 OFFCURVE",
"86 1092 OFFCURVE",
"93 1080 CURVE",
"101 1080 LINE",
"109 1086 OFFCURVE",
"119 1096 OFFCURVE",
"119 1115 CURVE SMOOTH",
"119 1138 OFFCURVE",
"99 1147 OFFCURVE",
"74 1147 CURVE SMOOTH",
"21 1147 OFFCURVE",
"-54 1072 OFFCURVE",
"-54 1020 CURVE SMOOTH",
"-54 1011 OFFCURVE",
"-53 1006 OFFCURVE",
"-49 999 CURVE",
"-70 1004 OFFCURVE",
"-81 1023 OFFCURVE",
"-83 1056 CURVE SMOOTH",
"-85 1089 OFFCURVE",
"-89 1112 OFFCURVE",
"-94 1124 CURVE",
"-104 1124 LINE",
"-115 1099 OFFCURVE",
"-124 1077 OFFCURVE",
"-129 1062 CURVE",
"-128 1050 OFFCURVE",
"-126 1033 OFFCURVE",
"-121 1001 CURVE SMOOTH",
"-116 969 OFFCURVE",
"-113 901 OFFCURVE",
"-113 868 CURVE SMOOTH",
"-113 849 OFFCURVE",
"-114 830 OFFCURVE",
"-115 811 CURVE",
"-100 810 LINE"
);
}
);
width = 0;
},
{
layerId = "0A5D7F3A-D11E-4113-AD15-39410F1DC5C2";
paths = (
{
closed = 1;
nodes = (
"-72 866 OFFCURVE",
"-68 885 OFFCURVE",
"-68 955 CURVE",
"-58 946 OFFCURVE",
"-43 942 OFFCURVE",
"-24 942 CURVE SMOOTH",
"21 942 OFFCURVE",
"111 973 OFFCURVE",
"149 1059 CURVE",
"142 1064 LINE",
"129 1052 OFFCURVE",
"90 1018 OFFCURVE",
"62 1018 CURVE SMOOTH",
"34 1018 OFFCURVE",
"3 1031 OFFCURVE",
"3 1056 CURVE SMOOTH",
"3 1081 OFFCURVE",
"31 1093 OFFCURVE",
"52 1093 CURVE SMOOTH",
"65 1093 OFFCURVE",
"76 1089 OFFCURVE",
"84 1080 CURVE",
"88 1080 LINE",
"98 1084 OFFCURVE",
"103 1094 OFFCURVE",
"103 1105 CURVE SMOOTH",
"103 1125 OFFCURVE",
"83 1132 OFFCURVE",
"68 1132 CURVE SMOOTH",
"25 1132 OFFCURVE",
"-46 1064 OFFCURVE",
"-46 1016 CURVE SMOOTH",
"-46 1008 OFFCURVE",
"-45 1002 OFFCURVE",
"-43 997 CURVE",
"-63 1002 OFFCURVE",
"-72 1020 OFFCURVE",
"-74 1049 CURVE SMOOTH",
"-76 1078 OFFCURVE",
"-79 1099 OFFCURVE",
"-83 1111 CURVE",
"-88 1111 LINE",
"-103 1072 OFFCURVE",
"-110 1058 OFFCURVE",
"-111 1054 CURVE",
"-111 1046 OFFCURVE",
"-108 1027 OFFCURVE",
"-103 996 CURVE SMOOTH",
"-98 964 OFFCURVE",
"-96 925 OFFCURVE",
"-96 878 CURVE SMOOTH",
"-96 873 OFFCURVE",
"-97 831 OFFCURVE",
"-99 826 CURVE",
"-89 824 LINE"
);
}
);
width = 0;
}
);
note = AlayhissalamNS;
unicode = 0611;
},
{
glyphname = AlefSuperiorNS;
lastChange = "2017-06-19 19:10:36 +0000";
layers = (
{
layerId = "67C28EBA-5AA6-4F74-BBA1-5BB358529C60";
paths = (
{
closed = 1;
nodes = (
"16 890 OFFCURVE",
"31 942 OFFCURVE",
"34 990 CURVE SMOOTH",
"35 1010 LINE SMOOTH",
"38 1085 OFFCURVE",
"40 1108 OFFCURVE",
"45 1120 CURVE",
"28 1123 LINE",
"0 1069 OFFCURVE",
"-8 1051 OFFCURVE",
"-11 994 CURVE SMOOTH",
"-16 902 OFFCURVE",
"-18 865 OFFCURVE",
"-23 841 CURVE",
"-6 838 LINE"
);
}
);
width = 0;
},
{
layerId = "0A5D7F3A-D11E-4113-AD15-39410F1DC5C2";
paths = (
{
closed = 1;
nodes = (
"14 893 OFFCURVE",
"28 945 OFFCURVE",
"30 989 CURVE SMOOTH",
"31 1006 LINE SMOOTH",
"33 1066 OFFCURVE",
"37 1097 OFFCURVE",
"40 1106 CURVE",
"29 1110 LINE",
"4 1061 OFFCURVE",
"-3 1042 OFFCURVE",
"-6 992 CURVE SMOOTH",
"-10 914 OFFCURVE",
"-13 877 OFFCURVE",
"-17 854 CURVE",
"-5 851 LINE"
);
}
);
width = 0;
}
);
note = AlefSuperiorNS;
unicode = 0670;
},
{
glyphname = AlefInferiorNS;
lastChange = "2017-06-19 19:10:36 +0000";
layers = (
{
layerId = "67C28EBA-5AA6-4F74-BBA1-5BB358529C60";
paths = (
{
closed = 1;
nodes = (
"16 -229 OFFCURVE",
"31 -177 OFFCURVE",
"34 -129 CURVE SMOOTH",
"35 -109 LINE SMOOTH",
"38 -34 OFFCURVE",
"40 -11 OFFCURVE",
"45 1 CURVE",
"28 4 LINE",
"0 -50 OFFCURVE",
"-8 -68 OFFCURVE",
"-11 -125 CURVE SMOOTH",
"-16 -218 OFFCURVE",
"-18 -254 OFFCURVE",
"-23 -278 CURVE",
"-6 -281 LINE"
);
}
);
width = 0;
},
{
layerId = "0A5D7F3A-D11E-4113-AD15-39410F1DC5C2";
paths = (
{
closed = 1;
nodes = (
"13 -228 OFFCURVE",
"28 -174 OFFCURVE",
"30 -129 CURVE SMOOTH",
"31 -112 LINE SMOOTH",
"33 -52 OFFCURVE",
"37 -21 OFFCURVE",
"40 -11 CURVE",
"29 -8 LINE",
"1 -63 OFFCURVE",
"-4 -80 OFFCURVE",
"-6 -125 CURVE SMOOTH",
"-10 -204 OFFCURVE",
"-13 -243 OFFCURVE",
"-17 -265 CURVE",
"-5 -267 LINE"
);
}
);
width = 0;
}
);
note = AlefInferiorNS;
unicode = 0656;
},
{
glyphname = DammaNS;
lastChange = "2017-06-19 19:10:36 +0000";
layers = (
{
layerId = "67C28EBA-5AA6-4F74-BBA1-5BB358529C60";
paths = (
{
closed = 1;
nodes = (
"-25 888 OFFCURVE",
"120 961 OFFCURVE",
"120 1067 CURVE SMOOTH",
"120 1092 OFFCURVE",
"108 1118 OFFCURVE",
"76 1118 CURVE SMOOTH",
"25 1118 OFFCURVE",
"-9 1066 OFFCURVE",
"-9 1022 CURVE SMOOTH",
"-9 1010 OFFCURVE",
"-5 994 OFFCURVE",
"13 973 CURVE",
"-37 934 LINE SMOOTH",
"-66 911 OFFCURVE",
"-97 885 OFFCURVE",
"-127 857 CURVE",
"-119 846 LINE"
);
},
{
closed = 1;
nodes = (
"37 1026 OFFCURVE",
"28 1037 OFFCURVE",
"28 1049 CURVE SMOOTH",
"28 1063 OFFCURVE",
"37 1076 OFFCURVE",
"56 1076 CURVE SMOOTH",
"74 1076 OFFCURVE",
"83 1063 OFFCURVE",
"83 1050 CURVE SMOOTH",
"83 1033 OFFCURVE",
"71 1020 OFFCURVE",
"59 1009 CURVE"
);
}
);
width = 0;
},
{
layerId = "0A5D7F3A-D11E-4113-AD15-39410F1DC5C2";
paths = (
{
closed = 1;
nodes = (
"14 923 OFFCURVE",
"109 980 OFFCURVE",
"109 1058 CURVE SMOOTH",
"109 1086 OFFCURVE",
"95 1102 OFFCURVE",
"71 1102 CURVE SMOOTH",
"37 1102 OFFCURVE",
"-2 1058 OFFCURVE",
"-2 1023 CURVE SMOOTH",
"-2 1013 OFFCURVE",
"2 995 OFFCURVE",
"17 978 CURVE",
"2 967 OFFCURVE",
"-88 895 OFFCURVE",
"-116 868 CURVE",
"-111 861 LINE"
);
},
{
closed = 1;
nodes = (
"29 1029 OFFCURVE",
"28 1033 OFFCURVE",
"28 1041 CURVE SMOOTH",
"28 1052 OFFCURVE",
"36 1064 OFFCURVE",
"54 1064 CURVE SMOOTH",
"65 1064 OFFCURVE",
"75 1059 OFFCURVE",
"75 1044 CURVE SMOOTH",
"75 1028 OFFCURVE",
"63 1016 OFFCURVE",
"53 1006 CURVE"
);
}
);
width = 0;
}
);
note = DammaNS;
unicode = 064F;
},
{
glyphname = UltapeshNS;
lastChange = "2017-06-19 19:10:36 +0000";
layers = (
{
layerId = "67C28EBA-5AA6-4F74-BBA1-5BB358529C60";
paths = (
{
closed = 1;
nodes = (
"-37 846 OFFCURVE",
"3 891 OFFCURVE",
"3 942 CURVE SMOOTH",
"3 958 OFFCURVE",
"-4 972 OFFCURVE",
"-19 991 CURVE",
"31 1030 LINE SMOOTH",
"59 1052 OFFCURVE",
"91 1079 OFFCURVE",
"121 1107 CURVE",
"113 1118 LINE",
"92 1111 OFFCURVE",
"22 1074 OFFCURVE",
"-17 1049 CURVE SMOOTH",
"-77 1011 OFFCURVE",
"-126 960 OFFCURVE",
"-126 897 CURVE SMOOTH",
"-126 874 OFFCURVE",
"-114 846 OFFCURVE",
"-82 846 CURVE SMOOTH"
);
},
{
closed = 1;
nodes = (
"-78 888 OFFCURVE",
"-89 897 OFFCURVE",
"-89 914 CURVE SMOOTH",
"-89 927 OFFCURVE",
"-82 940 OFFCURVE",
"-65 955 CURVE",
"-44 939 OFFCURVE",
"-34 927 OFFCURVE",
"-34 915 CURVE SMOOTH",
"-34 899 OFFCURVE",
"-47 888 OFFCURVE",
"-62 888 CURVE SMOOTH"
);
}
);
width = 0;
},
{
layerId = "0A5D7F3A-D11E-4113-AD15-39410F1DC5C2";
paths = (
{
closed = 1;
nodes = (
"-40 862 OFFCURVE",
"-1 906 OFFCURVE",
"-1 941 CURVE SMOOTH",
"-1 956 OFFCURVE",
"-10 975 OFFCURVE",
"-20 987 CURVE",
"-7 996 OFFCURVE",
"83 1068 OFFCURVE",
"112 1097 CURVE",
"107 1103 LINE",
"56 1077 OFFCURVE",
"6 1053 OFFCURVE",
"-45 1014 CURVE SMOOTH",
"-83 985 OFFCURVE",
"-112 949 OFFCURVE",
"-112 906 CURVE SMOOTH",
"-112 885 OFFCURVE",
"-103 862 OFFCURVE",
"-75 862 CURVE SMOOTH"
);
},
{
closed = 1;
nodes = (
"-70 900 OFFCURVE",
"-78 907 OFFCURVE",
"-78 920 CURVE SMOOTH",
"-78 937 OFFCURVE",
"-67 948 OFFCURVE",
"-56 958 CURVE",
"-44 947 OFFCURVE",
"-32 935 OFFCURVE",
"-32 924 CURVE SMOOTH",
"-32 916 OFFCURVE",
"-34 910 OFFCURVE",
"-40 906 CURVE",
"-45 902 OFFCURVE",
"-51 900 OFFCURVE",
"-57 900 CURVE SMOOTH"
);
}
);
width = 0;
}
);
note = UltapeshNS;
unicode = 0657;
},
{
glyphname = DammatanNS;
lastChange = "2017-06-19 19:10:36 +0000";
layers = (
{
layerId = "67C28EBA-5AA6-4F74-BBA1-5BB358529C60";
paths = (
{
closed = 1;
nodes = (
"6 859 OFFCURVE",
"46 879 OFFCURVE",
"89 918 CURVE SMOOTH",
"132 957 OFFCURVE",
"154 997 OFFCURVE",
"154 1038 CURVE SMOOTH",
"154 1060 OFFCURVE",
"142 1089 OFFCURVE",
"110 1089 CURVE SMOOTH",
"59 1089 OFFCURVE",
"25 1037 OFFCURVE",
"25 993 CURVE SMOOTH",
"25 981 OFFCURVE",
"29 965 OFFCURVE",
"47 944 CURVE",
"22 925 OFFCURVE",
"-1 915 OFFCURVE",
"-23 915 CURVE SMOOTH",
"-55 915 OFFCURVE",
"-65 931 OFFCURVE",
"-65 963 CURVE SMOOTH",
"-65 984 OFFCURVE",
"-58 1010 OFFCURVE",
"-58 1020 CURVE SMOOTH",
"-58 1032 OFFCURVE",
"-64 1038 OFFCURVE",
"-79 1038 CURVE SMOOTH",
"-98 1038 OFFCURVE",
"-141 1017 OFFCURVE",
"-168 984 CURVE",
"-160 971 LINE",
"-141 984 OFFCURVE",
"-109 988 OFFCURVE",
"-97 988 CURVE SMOOTH",
"-93 988 LINE",
"-99 973 OFFCURVE",
"-103 950 OFFCURVE",
"-103 931 CURVE SMOOTH",
"-103 884 OFFCURVE",
"-81 859 OFFCURVE",
"-31 859 CURVE SMOOTH"
);
},
{
closed = 1;
nodes = (
"71 997 OFFCURVE",
"62 1008 OFFCURVE",
"62 1020 CURVE SMOOTH",
"62 1033 OFFCURVE",
"70 1047 OFFCURVE",
"90 1047 CURVE SMOOTH",
"108 1047 OFFCURVE",
"117 1034 OFFCURVE",
"117 1022 CURVE SMOOTH",
"117 1007 OFFCURVE",
"112 999 OFFCURVE",
"93 980 CURVE"
);
}
);
width = 0;
},
{
layerId = "0A5D7F3A-D11E-4113-AD15-39410F1DC5C2";
paths = (
{
closed = 1;
nodes = (
"6 869 OFFCURVE",
"44 888 OFFCURVE",
"81 925 CURVE SMOOTH",
"120 963 OFFCURVE",
"136 998 OFFCURVE",
"136 1030 CURVE SMOOTH",
"136 1056 OFFCURVE",
"124 1071 OFFCURVE",
"99 1071 CURVE SMOOTH",
"67 1071 OFFCURVE",
"31 1030 OFFCURVE",
"31 997 CURVE SMOOTH",
"31 981 OFFCURVE",
"35 964 OFFCURVE",
"52 947 CURVE",
"25 926 OFFCURVE",
"0 915 OFFCURVE",
"-21 915 CURVE SMOOTH",
"-49 915 OFFCURVE",
"-64 931 OFFCURVE",
"-64 964 CURVE SMOOTH",
"-64 987 OFFCURVE",
"-58 1010 OFFCURVE",
"-58 1016 CURVE SMOOTH",
"-58 1028 OFFCURVE",
"-67 1031 OFFCURVE",
"-74 1031 CURVE SMOOTH",
"-98 1031 OFFCURVE",
"-135 1004 OFFCURVE",
"-154 980 CURVE",
"-147 972 LINE",
"-129 985 OFFCURVE",
"-106 994 OFFCURVE",
"-88 994 CURVE SMOOTH",
"-83 994 LINE",
"-88 973 OFFCURVE",
"-92 956 OFFCURVE",
"-92 941 CURVE SMOOTH",
"-92 884 OFFCURVE",
"-63 869 OFFCURVE",
"-29 869 CURVE SMOOTH"
);
},
{
closed = 1;
nodes = (
"70 991 OFFCURVE",
"60 1001 OFFCURVE",
"60 1013 CURVE SMOOTH",
"60 1027 OFFCURVE",
"69 1035 OFFCURVE",
"83 1035 CURVE SMOOTH",
"98 1035 OFFCURVE",
"104 1027 OFFCURVE",
"104 1016 CURVE SMOOTH",
"104 999 OFFCURVE",
"94 989 OFFCURVE",
"84 979 CURVE"
);
}
);
width = 0;
}
);
note = DammatanNS;
unicode = 064C;
},
{
glyphname = FathaNS;
lastChange = "2017-06-19 19:10:36 +0000";
layers = (
{
layerId = "67C28EBA-5AA6-4F74-BBA1-5BB358529C60";
paths = (
{
closed = 1;
nodes = (
"-106 867 OFFCURVE",
"-87 879 OFFCURVE",
"-59 894 CURVE SMOOTH",
"94 978 LINE SMOOTH",
"125 995 OFFCURVE",
"142 1017 OFFCURVE",
"154 1053 CURVE",
"141 1060 LINE",
"137 1057 OFFCURVE",
"128 1051 OFFCURVE",
"91 1030 CURVE SMOOTH",
"65 1015 OFFCURVE",
"25 994 OFFCURVE",
"-36 959 CURVE SMOOTH",
"-103 921 OFFCURVE",
"-120 901 OFFCURVE",
"-129 863 CURVE",
"-117 855 LINE"
);
}
);
width = 0;
},
{
layerId = "0A5D7F3A-D11E-4113-AD15-39410F1DC5C2";
paths = (
{
closed = 1;
nodes = (
"-101 874 OFFCURVE",
"-88 883 OFFCURVE",
"-56 901 CURVE SMOOTH",
"83 977 LINE SMOOTH",
"113 994 OFFCURVE",
"127 1015 OFFCURVE",
"138 1043 CURVE",
"129 1048 LINE",
"125 1045 OFFCURVE",
"117 1041 OFFCURVE",
"107 1035 CURVE SMOOTH",
"-30 958 LINE SMOOTH",
"-54 944 OFFCURVE",
"-109 914 OFFCURVE",
"-116 870 CURVE",
"-109 865 LINE"
);
}
);
width = 0;
}
);
note = FathaNS;
unicode = 064E;
},
{
glyphname = FathatanNS;
lastChange = "2017-06-19 19:10:36 +0000";
layers = (
{
layerId = "67C28EBA-5AA6-4F74-BBA1-5BB358529C60";
paths = (
{
closed = 1;
nodes = (
"-96 969 OFFCURVE",
"-77 981 OFFCURVE",
"-49 996 CURVE SMOOTH",
"104 1080 LINE SMOOTH",
"135 1097 OFFCURVE",
"152 1119 OFFCURVE",
"164 1155 CURVE",
"151 1162 LINE",
"147 1159 OFFCURVE",
"138 1153 OFFCURVE",
"101 1132 CURVE SMOOTH",
"75 1117 OFFCURVE",
"35 1096 OFFCURVE",
"-26 1061 CURVE SMOOTH",
"-93 1023 OFFCURVE",
"-110 1003 OFFCURVE",
"-119 965 CURVE",
"-107 957 LINE"
);
},
{
closed = 1;
nodes = (
"-106 867 OFFCURVE",
"-87 879 OFFCURVE",
"-59 894 CURVE SMOOTH",
"94 978 LINE SMOOTH",
"125 995 OFFCURVE",
"142 1017 OFFCURVE",
"154 1053 CURVE",
"141 1060 LINE",
"137 1057 OFFCURVE",
"128 1051 OFFCURVE",
"91 1030 CURVE SMOOTH",
"65 1015 OFFCURVE",
"25 994 OFFCURVE",
"-36 959 CURVE SMOOTH",
"-103 921 OFFCURVE",
"-120 901 OFFCURVE",
"-129 863 CURVE",
"-117 855 LINE"
);
}
);
width = 0;
},
{
layerId = "0A5D7F3A-D11E-4113-AD15-39410F1DC5C2";
paths = (
{
closed = 1;
nodes = (
"-88 974 OFFCURVE",
"-75 983 OFFCURVE",
"-43 1001 CURVE SMOOTH",
"96 1077 LINE SMOOTH",
"126 1094 OFFCURVE",
"140 1115 OFFCURVE",
"151 1143 CURVE",
"142 1148 LINE",
"138 1145 OFFCURVE",
"130 1141 OFFCURVE",
"120 1135 CURVE SMOOTH",
"-17 1058 LINE SMOOTH",
"-41 1044 OFFCURVE",
"-96 1014 OFFCURVE",
"-103 970 CURVE",
"-96 965 LINE"
);
},
{
closed = 1;
nodes = (
"-101 874 OFFCURVE",
"-88 883 OFFCURVE",
"-56 901 CURVE SMOOTH",
"83 977 LINE SMOOTH",
"113 994 OFFCURVE",
"127 1015 OFFCURVE",
"138 1043 CURVE",
"129 1048 LINE",
"125 1045 OFFCURVE",
"117 1041 OFFCURVE",
"107 1035 CURVE SMOOTH",
"-30 958 LINE SMOOTH",
"-54 944 OFFCURVE",
"-109 914 OFFCURVE",
"-116 870 CURVE",
"-109 865 LINE"
);
}
);
width = 0;
}
);
note = FathatanNS;
unicode = 064B;
},
{
glyphname = KasraNS;
lastChange = "2017-06-19 19:10:36 +0000";
layers = (
{
layerId = "67C28EBA-5AA6-4F74-BBA1-5BB358529C60";
paths = (
{
closed = 1;
nodes = (
"-110 -185 OFFCURVE",
"-91 -173 OFFCURVE",
"-63 -158 CURVE SMOOTH",
"90 -74 LINE SMOOTH",
"121 -57 OFFCURVE",
"138 -35 OFFCURVE",
"150 1 CURVE",
"137 8 LINE",
"133 5 OFFCURVE",
"124 -1 OFFCURVE",
"87 -22 CURVE SMOOTH",
"61 -37 OFFCURVE",
"21 -58 OFFCURVE",
"-40 -93 CURVE SMOOTH",
"-107 -131 OFFCURVE",
"-124 -151 OFFCURVE",
"-133 -189 CURVE",
"-121 -197 LINE"
);
}
);
width = 0;
},
{
layerId = "0A5D7F3A-D11E-4113-AD15-39410F1DC5C2";
paths = (
{
closed = 1;
nodes = (
"-105 -175 OFFCURVE",
"-92 -166 OFFCURVE",
"-60 -148 CURVE SMOOTH",
"79 -72 LINE SMOOTH",
"109 -55 OFFCURVE",
"123 -34 OFFCURVE",
"134 -6 CURVE",
"125 -1 LINE",
"121 -4 OFFCURVE",
"113 -9 OFFCURVE",
"103 -15 CURVE SMOOTH",
"-34 -91 LINE SMOOTH",
"-58 -104 OFFCURVE",
"-113 -135 OFFCURVE",
"-120 -179 CURVE",
"-113 -184 LINE"
);
}
);
width = 0;
}
);
note = KasraNS;
unicode = 0650;
},
{
glyphname = KasratanNS;
lastChange = "2017-06-19 19:10:36 +0000";
layers = (
{
layerId = "67C28EBA-5AA6-4F74-BBA1-5BB358529C60";
paths = (
{
closed = 1;
nodes = (
"-110 -185 OFFCURVE",
"-91 -173 OFFCURVE",
"-63 -158 CURVE SMOOTH",
"90 -74 LINE SMOOTH",
"121 -57 OFFCURVE",
"138 -35 OFFCURVE",
"150 1 CURVE",
"137 8 LINE",
"133 5 OFFCURVE",
"124 -1 OFFCURVE",
"87 -22 CURVE SMOOTH",
"61 -37 OFFCURVE",
"21 -58 OFFCURVE",
"-40 -93 CURVE SMOOTH",
"-107 -131 OFFCURVE",
"-124 -151 OFFCURVE",
"-133 -189 CURVE",
"-121 -197 LINE"
);
},
{
closed = 1;
nodes = (
"-120 -288 OFFCURVE",
"-101 -276 OFFCURVE",
"-73 -261 CURVE SMOOTH",
"80 -177 LINE SMOOTH",
"111 -160 OFFCURVE",
"128 -138 OFFCURVE",
"140 -102 CURVE",
"127 -95 LINE",
"123 -98 OFFCURVE",
"114 -104 OFFCURVE",
"77 -125 CURVE SMOOTH",
"51 -140 OFFCURVE",
"11 -161 OFFCURVE",
"-50 -196 CURVE SMOOTH",
"-117 -234 OFFCURVE",
"-134 -254 OFFCURVE",
"-143 -292 CURVE",
"-131 -300 LINE"
);
}
);
width = 0;
},
{
layerId = "0A5D7F3A-D11E-4113-AD15-39410F1DC5C2";
paths = (
{
closed = 1;
nodes = (
"-105 -175 OFFCURVE",
"-92 -166 OFFCURVE",
"-60 -148 CURVE SMOOTH",
"79 -72 LINE SMOOTH",
"109 -55 OFFCURVE",
"123 -34 OFFCURVE",
"134 -6 CURVE",
"125 -1 LINE",
"121 -4 OFFCURVE",
"113 -9 OFFCURVE",
"103 -15 CURVE SMOOTH",
"-34 -91 LINE SMOOTH",
"-58 -104 OFFCURVE",
"-113 -135 OFFCURVE",
"-120 -179 CURVE",
"-113 -184 LINE"
);
},
{
closed = 1;
nodes = (
"-118 -275 OFFCURVE",
"-105 -266 OFFCURVE",
"-73 -248 CURVE SMOOTH",
"66 -172 LINE SMOOTH",
"96 -155 OFFCURVE",
"110 -134 OFFCURVE",
"121 -106 CURVE",
"112 -101 LINE",
"108 -104 OFFCURVE",
"100 -109 OFFCURVE",
"90 -115 CURVE SMOOTH",
"-47 -191 LINE SMOOTH",
"-71 -204 OFFCURVE",
"-126 -235 OFFCURVE",
"-133 -279 CURVE",
"-126 -284 LINE"
);
}
);
width = 0;
}
);
note = KasratanNS;
unicode = 064D;
},
{
glyphname = NoonGhunnaMarkNS;
lastChange = "2017-06-19 19:10:36 +0000";
layers = (
{
layerId = "67C28EBA-5AA6-4F74-BBA1-5BB358529C60";
paths = (
{
closed = 1;
nodes = (
"76 875 OFFCURVE",
"142 967 OFFCURVE",
"144 1054 CURVE",
"119 1054 LINE",
"104 994 OFFCURVE",
"62 957 OFFCURVE",
"-13 957 CURVE SMOOTH",
"-73 957 OFFCURVE",
"-96 981 OFFCURVE",
"-96 1030 CURVE SMOOTH",
"-96 1036 OFFCURVE",
"-95 1041 OFFCURVE",
"-94 1045 CURVE",
"-119 1048 LINE",
"-126 1030 OFFCURVE",
"-128 1005 OFFCURVE",
"-128 988 CURVE SMOOTH",
"-128 912 OFFCURVE",
"-90 875 OFFCURVE",
"-18 875 CURVE SMOOTH"
);
}
);
width = 0;
},
{
layerId = "0A5D7F3A-D11E-4113-AD15-39410F1DC5C2";
paths = (
{
closed = 1;
nodes = (
"71 882 OFFCURVE",
"129 966 OFFCURVE",
"132 1046 CURVE",
"109 1046 LINE",
"91 967 OFFCURVE",
"38 947 OFFCURVE",
"-12 947 CURVE SMOOTH",
"-67 947 OFFCURVE",
"-87 972 OFFCURVE",
"-87 1013 CURVE SMOOTH",
"-87 1026 LINE SMOOTH",
"-87 1030 OFFCURVE",
"-86 1034 OFFCURVE",
"-85 1039 CURVE",
"-107 1041 LINE",
"-112 1021 OFFCURVE",
"-116 1003 OFFCURVE",
"-116 982 CURVE SMOOTH",
"-116 905 OFFCURVE",
"-64 882 OFFCURVE",
"-16 882 CURVE SMOOTH"
);
}
);
width = 0;
}
);
note = NoonGhunnaMarkNS;
unicode = 0658;
},
{
glyphname = NoonGhunnaMarkKshmrNS;
lastChange = "2017-06-19 19:10:36 +0000";
layers = (
{
layerId = "67C28EBA-5AA6-4F74-BBA1-5BB358529C60";
paths = (
{
closed = 1;
nodes = (
"-117 936 LINE",
"-101 1000 OFFCURVE",
"-56 1033 OFFCURVE",
"15 1033 CURVE SMOOTH",
"79 1033 OFFCURVE",
"98 1004 OFFCURVE",
"98 960 CURVE SMOOTH",
"98 954 OFFCURVE",
"97 949 OFFCURVE",
"96 945 CURVE",
"121 942 LINE",
"128 959 OFFCURVE",
"130 985 OFFCURVE",
"130 1002 CURVE SMOOTH",
"130 1078 OFFCURVE",
"92 1115 OFFCURVE",
"20 1115 CURVE SMOOTH",
"-75 1115 OFFCURVE",
"-140 1021 OFFCURVE",
"-142 936 CURVE"
);
}
);
width = 0;
},
{
layerId = "0A5D7F3A-D11E-4113-AD15-39410F1DC5C2";
paths = (
{
closed = 1;
nodes = (
"-107 944 LINE",
"-95 998 OFFCURVE",
"-62 1042 OFFCURVE",
"14 1042 CURVE SMOOTH",
"68 1042 OFFCURVE",
"89 1018 OFFCURVE",
"89 977 CURVE SMOOTH",
"89 964 LINE SMOOTH",
"89 960 OFFCURVE",
"88 956 OFFCURVE",
"87 951 CURVE",
"109 949 LINE",
"115 971 OFFCURVE",
"118 988 OFFCURVE",
"118 1007 CURVE SMOOTH",
"118 1087 OFFCURVE",
"63 1107 OFFCURVE",
"18 1107 CURVE SMOOTH",
"-69 1107 OFFCURVE",
"-127 1023 OFFCURVE",
"-130 944 CURVE"
);
}
);
width = 0;
}
);
note = NoonGhunnaMarkKshmrNS;
},
{
glyphname = RadiallahNS;
lastChange = "2017-06-19 19:10:36 +0000";
layers = (
{
layerId = "67C28EBA-5AA6-4F74-BBA1-5BB358529C60";
paths = (
{
closed = 1;
nodes = (
"-142 862 OFFCURVE",
"-137 883 OFFCURVE",
"-137 946 CURVE",
"-122 934 OFFCURVE",
"-102 932 OFFCURVE",
"-82 932 CURVE SMOOTH",
"-31 932 OFFCURVE",
"14 953 OFFCURVE",
"51 995 CURVE SMOOTH",
"88 1037 OFFCURVE",
"106 1076 OFFCURVE",
"106 1112 CURVE SMOOTH",
"106 1142 OFFCURVE",
"82 1153 OFFCURVE",
"60 1153 CURVE SMOOTH",
"-10 1153 OFFCURVE",
"-60 1088 OFFCURVE",
"-118 1010 CURVE",
"-134 1015 OFFCURVE",
"-143 1031 OFFCURVE",
"-144 1057 CURVE SMOOTH",
"-145 1083 OFFCURVE",
"-149 1106 OFFCURVE",
"-155 1126 CURVE",
"-165 1126 LINE",
"-180 1091 OFFCURVE",
"-185 1078 OFFCURVE",
"-190 1065 CURVE",
"-190 1055 OFFCURVE",
"-186 1036 OFFCURVE",
"-182 1005 CURVE SMOOTH",
"-178 974 OFFCURVE",
"-174 937 OFFCURVE",
"-174 870 CURVE SMOOTH",
"-174 857 OFFCURVE",
"-175 836 OFFCURVE",
"-176 813 CURVE",
"-161 812 LINE"
);
},
{
closed = 1;
nodes = (
"-81 1002 OFFCURVE",
"-86 1002 OFFCURVE",
"-91 1002 CURVE",
"-75 1021 LINE SMOOTH",
"-39 1064 OFFCURVE",
"-9 1083 OFFCURVE",
"24 1083 CURVE SMOOTH",
"39 1083 OFFCURVE",
"59 1079 OFFCURVE",
"59 1062 CURVE SMOOTH",
"59 1038 OFFCURVE",
"-3 1001 OFFCURVE",
"-74 1001 CURVE"
);
},
{
closed = 1;
nodes = (
"23 850 OFFCURVE",
"79 864 OFFCURVE",
"113 879 CURVE",
"143 904 OFFCURVE",
"184 987 OFFCURVE",
"207 1096 CURVE",
"191 1099 LINE",
"174 1053 OFFCURVE",
"158 1019 OFFCURVE",
"143 996 CURVE SMOOTH",
"110 944 OFFCURVE",
"12 874 OFFCURVE",
"-19 857 CURVE",
"-15 841 LINE"
);
},
{
closed = 1;
nodes = (
"-44 1139 LINE",
"-20 1155 OFFCURVE",
"-7 1171 OFFCURVE",
"-7 1182 CURVE SMOOTH",
"-7 1192 OFFCURVE",
"-19 1204 OFFCURVE",
"-42 1219 CURVE",
"-46 1219 LINE",
"-85 1176 LINE",
"-85 1171 LINE",
"-73 1162 OFFCURVE",
"-60 1151 OFFCURVE",
"-48 1139 CURVE"
);
}
);
width = 0;
},
{
layerId = "0A5D7F3A-D11E-4113-AD15-39410F1DC5C2";
paths = (
{
closed = 1;
nodes = (
"-132 868 OFFCURVE",
"-128 888 OFFCURVE",
"-128 957 CURVE",
"-114 946 OFFCURVE",
"-96 945 OFFCURVE",
"-78 945 CURVE SMOOTH",
"-33 945 OFFCURVE",
"6 963 OFFCURVE",
"40 1001 CURVE SMOOTH",
"74 1039 OFFCURVE",
"91 1073 OFFCURVE",
"91 1104 CURVE SMOOTH",
"91 1119 OFFCURVE",
"81 1135 OFFCURVE",
"56 1135 CURVE SMOOTH",
"-6 1135 OFFCURVE",
"-65 1061 OFFCURVE",
"-106 1004 CURVE",
"-124 1010 OFFCURVE",
"-133 1027 OFFCURVE",
"-134 1054 CURVE SMOOTH",
"-135 1081 OFFCURVE",
"-138 1101 OFFCURVE",
"-143 1114 CURVE",
"-147 1114 LINE",
"-154 1096 OFFCURVE",
"-168 1066 OFFCURVE",
"-170 1057 CURVE",
"-170 1049 OFFCURVE",
"-168 1029 OFFCURVE",
"-163 998 CURVE SMOOTH",
"-158 967 OFFCURVE",
"-156 928 OFFCURVE",
"-156 881 CURVE SMOOTH",
"-156 839 OFFCURVE",
"-157 836 OFFCURVE",
"-158 829 CURVE",
"-148 827 LINE"
);
},
{
closed = 1;
nodes = (
"-75 999 OFFCURVE",
"-80 999 OFFCURVE",
"-86 1000 CURVE",
"-72 1017 LINE SMOOTH",
"-38 1059 OFFCURVE",
"-12 1074 OFFCURVE",
"18 1074 CURVE SMOOTH",
"26 1074 OFFCURVE",
"49 1071 OFFCURVE",
"49 1055 CURVE SMOOTH",
"49 1030 OFFCURVE",
"-6 999 OFFCURVE",
"-70 999 CURVE SMOOTH"
);
},
{
closed = 1;
nodes = (
"58 866 OFFCURVE",
"96 878 OFFCURVE",
"109 888 CURVE SMOOTH",
"130 905 OFFCURVE",
"169 974 OFFCURVE",
"197 1084 CURVE",
"182 1087 LINE",
"170 1053 OFFCURVE",
"157 1023 OFFCURVE",
"143 999 CURVE SMOOTH",
"110 943 OFFCURVE",
"17 876 OFFCURVE",
"-7 864 CURVE",
"-5 853 LINE"
);
},
{
closed = 1;
nodes = (
"-44 1143 LINE",
"-26 1155 OFFCURVE",
"-11 1168 OFFCURVE",
"-11 1181 CURVE SMOOTH",
"-11 1191 OFFCURVE",
"-20 1201 OFFCURVE",
"-42 1215 CURVE",
"-46 1215 LINE",
"-51 1210 OFFCURVE",
"-70 1192 OFFCURVE",
"-82 1175 CURVE",
"-82 1171 LINE",
"-64 1158 OFFCURVE",
"-59 1154 OFFCURVE",
"-48 1143 CURVE"
);
}
);
width = 0;
}
);
note = RadiallahNS;
unicode = 0613;
},
{
glyphname = RahmatullahNS;
lastChange = "2017-06-19 19:10:36 +0000";
layers = (
{
layerId = "67C28EBA-5AA6-4F74-BBA1-5BB358529C60";
paths = (
{
closed = 1;
nodes = (
"-133 843 LINE",
"-122 890 OFFCURVE",
"-96 935 OFFCURVE",
"-56 976 CURVE SMOOTH",
"-16 1017 OFFCURVE",
"18 1045 OFFCURVE",
"47 1061 CURVE SMOOTH",
"75 1077 OFFCURVE",
"95 1098 OFFCURVE",
"107 1124 CURVE",
"107 1132 LINE",
"86 1143 OFFCURVE",
"10 1152 OFFCURVE",
"-26 1152 CURVE SMOOTH",
"-93 1152 OFFCURVE",
"-117 1129 OFFCURVE",
"-138 1062 CURVE",
"-120 1058 LINE",
"-109 1081 OFFCURVE",
"-96 1086 OFFCURVE",
"-60 1086 CURVE SMOOTH",
"-46 1086 LINE SMOOTH",
"-10 1086 OFFCURVE",
"17 1082 OFFCURVE",
"22 1078 CURVE",
"-93 1002 OFFCURVE",
"-138 940 OFFCURVE",
"-166 867 CURVE",
"-143 843 LINE"
);
},
{
closed = 1;
nodes = (
"16 870 OFFCURVE",
"45 877 OFFCURVE",
"89 894 CURVE",
"119 919 OFFCURVE",
"160 1002 OFFCURVE",
"183 1111 CURVE",
"167 1114 LINE",
"150 1068 OFFCURVE",
"134 1034 OFFCURVE",
"119 1011 CURVE SMOOTH",
"86 959 OFFCURVE",
"-12 889 OFFCURVE",
"-43 872 CURVE",
"-39 856 LINE"
);
}
);
width = 0;
},
{
layerId = "0A5D7F3A-D11E-4113-AD15-39410F1DC5C2";
paths = (
{
closed = 1;
nodes = (
"-130 859 LINE",
"-120 900 OFFCURVE",
"-96 940 OFFCURVE",
"-59 978 CURVE SMOOTH",
"-21 1017 OFFCURVE",
"11 1042 OFFCURVE",
"38 1058 CURVE SMOOTH",
"64 1073 OFFCURVE",
"83 1092 OFFCURVE",
"95 1116 CURVE",
"95 1120 LINE",
"82 1126 OFFCURVE",
"24 1137 OFFCURVE",
"-21 1137 CURVE SMOOTH",
"-75 1137 OFFCURVE",
"-100 1122 OFFCURVE",
"-121 1062 CURVE",
"-107 1057 LINE",
"-97 1078 OFFCURVE",
"-87 1083 OFFCURVE",
"-53 1083 CURVE SMOOTH",
"-28 1083 LINE SMOOTH",
"-23 1083 OFFCURVE",
"17 1082 OFFCURVE",
"26 1077 CURVE",
"-81 1009 OFFCURVE",
"-128 945 OFFCURVE",
"-154 879 CURVE",
"-139 859 LINE"
);
},
{
closed = 1;
nodes = (
"34 881 OFFCURVE",
"72 893 OFFCURVE",
"85 903 CURVE SMOOTH",
"106 919 OFFCURVE",
"145 986 OFFCURVE",
"173 1100 CURVE",
"158 1102 LINE",
"146 1068 OFFCURVE",
"134 1039 OFFCURVE",
"119 1014 CURVE SMOOTH",
"86 958 OFFCURVE",
"-6 892 OFFCURVE",
"-31 879 CURVE",
"-29 868 LINE"
);
}
);
width = 0;
}
);
note = RahmatullahNS;
unicode = 0612;
},
{
glyphname = SallallahNS;
lastChange = "2017-06-19 19:10:36 +0000";
layers = (
{
layerId = "67C28EBA-5AA6-4F74-BBA1-5BB358529C60";
paths = (
{
closed = 1;
nodes = (
"-86 869 OFFCURVE",
"-81 890 OFFCURVE",
"-81 953 CURVE",
"-66 941 OFFCURVE",
"-46 939 OFFCURVE",
"-26 939 CURVE SMOOTH",
"25 939 OFFCURVE",
"70 960 OFFCURVE",
"107 1002 CURVE SMOOTH",
"144 1044 OFFCURVE",
"162 1083 OFFCURVE",
"162 1119 CURVE SMOOTH",
"162 1149 OFFCURVE",
"138 1160 OFFCURVE",
"116 1160 CURVE SMOOTH",
"46 1160 OFFCURVE",
"-4 1095 OFFCURVE",
"-62 1017 CURVE",
"-78 1022 OFFCURVE",
"-87 1038 OFFCURVE",
"-88 1064 CURVE SMOOTH",
"-89 1090 OFFCURVE",
"-93 1113 OFFCURVE",
"-99 1133 CURVE",
"-109 1133 LINE",
"-124 1098 OFFCURVE",
"-129 1085 OFFCURVE",
"-134 1072 CURVE",
"-134 1062 OFFCURVE",
"-130 1043 OFFCURVE",
"-126 1012 CURVE SMOOTH",
"-122 981 OFFCURVE",
"-118 944 OFFCURVE",
"-118 877 CURVE SMOOTH",
"-118 864 OFFCURVE",
"-119 843 OFFCURVE",
"-120 820 CURVE",
"-105 819 LINE"
);
},
{
closed = 1;
nodes = (
"-25 1009 OFFCURVE",
"-30 1009 OFFCURVE",
"-35 1009 CURVE",
"-19 1028 LINE SMOOTH",
"17 1071 OFFCURVE",
"47 1090 OFFCURVE",
"80 1090 CURVE SMOOTH",
"95 1090 OFFCURVE",
"115 1086 OFFCURVE",
"115 1069 CURVE SMOOTH",
"115 1045 OFFCURVE",
"53 1008 OFFCURVE",
"-18 1008 CURVE"
);
}
);
width = 0;
},
{
layerId = "0A5D7F3A-D11E-4113-AD15-39410F1DC5C2";
paths = (
{
closed = 1;
nodes = (
"-79 874 OFFCURVE",
"-75 894 OFFCURVE",
"-75 963 CURVE",
"-61 952 OFFCURVE",
"-43 951 OFFCURVE",
"-25 951 CURVE SMOOTH",
"20 951 OFFCURVE",
"59 969 OFFCURVE",
"93 1007 CURVE SMOOTH",
"127 1045 OFFCURVE",
"144 1079 OFFCURVE",
"144 1110 CURVE SMOOTH",
"144 1125 OFFCURVE",
"134 1141 OFFCURVE",
"109 1141 CURVE SMOOTH",
"47 1141 OFFCURVE",
"-12 1067 OFFCURVE",
"-53 1010 CURVE",
"-71 1016 OFFCURVE",
"-80 1033 OFFCURVE",
"-81 1060 CURVE SMOOTH",
"-82 1087 OFFCURVE",
"-85 1107 OFFCURVE",
"-90 1120 CURVE",
"-94 1120 LINE",
"-101 1102 OFFCURVE",
"-115 1072 OFFCURVE",
"-117 1063 CURVE",
"-117 1055 OFFCURVE",
"-115 1035 OFFCURVE",
"-110 1004 CURVE SMOOTH",
"-105 973 OFFCURVE",
"-103 934 OFFCURVE",
"-103 887 CURVE SMOOTH",
"-103 845 OFFCURVE",
"-104 842 OFFCURVE",
"-105 835 CURVE",
"-95 833 LINE"
);
},
{
closed = 1;
nodes = (
"-22 1005 OFFCURVE",
"-27 1005 OFFCURVE",
"-33 1006 CURVE",
"-19 1023 LINE SMOOTH",
"15 1065 OFFCURVE",
"41 1080 OFFCURVE",
"71 1080 CURVE SMOOTH",
"79 1080 OFFCURVE",
"102 1077 OFFCURVE",
"102 1061 CURVE SMOOTH",
"102 1036 OFFCURVE",
"47 1005 OFFCURVE",
"-17 1005 CURVE SMOOTH"
);
}
);
width = 0;
}
);
note = SallallahNS;
unicode = 0610;
},
{
glyphname = ShaddaNS;
lastChange = "2017-06-19 19:10:36 +0000";
layers = (
{
layerId = "67C28EBA-5AA6-4F74-BBA1-5BB358529C60";
paths = (
{
closed = 1;
nodes = (
"-45 862 OFFCURVE",
"-18 899 OFFCURVE",
"-6 938 CURVE",
"1 932 OFFCURVE",
"15 928 OFFCURVE",
"27 928 CURVE SMOOTH",
"92 928 OFFCURVE",
"125 994 OFFCURVE",
"125 1060 CURVE SMOOTH",
"125 1077 LINE",
"98 1072 LINE",
"92 1023 OFFCURVE",
"75 996 OFFCURVE",
"45 996 CURVE SMOOTH",
"30 996 OFFCURVE",
"19 1003 OFFCURVE",
"13 1016 CURVE",
"-10 1011 LINE",
"-22 956 OFFCURVE",
"-39 928 OFFCURVE",
"-74 928 CURVE SMOOTH",
"-93 928 OFFCURVE",
"-103 938 OFFCURVE",
"-105 958 CURVE SMOOTH",
"-106 970 LINE",
"-129 966 LINE",
"-136 948 OFFCURVE",
"-139 934 OFFCURVE",
"-139 917 CURVE SMOOTH",
"-139 883 OFFCURVE",
"-117 862 OFFCURVE",
"-88 862 CURVE SMOOTH"
);
}
);
width = 0;
},
{
layerId = "0A5D7F3A-D11E-4113-AD15-39410F1DC5C2";
paths = (
{
closed = 1;
nodes = (
"-45 881 OFFCURVE",
"-24 900 OFFCURVE",
"-6 942 CURVE",
"0 937 OFFCURVE",
"11 934 OFFCURVE",
"19 934 CURVE SMOOTH",
"79 934 OFFCURVE",
"97 995 OFFCURVE",
"97 1043 CURVE SMOOTH",
"97 1054 LINE",
"79 1051 LINE",
"73 1007 OFFCURVE",
"65 985 OFFCURVE",
"40 985 CURVE SMOOTH",
"26 985 OFFCURVE",
"14 991 OFFCURVE",
"8 1003 CURVE",
"-8 1000 LINE",
"-21 949 OFFCURVE",
"-35 932 OFFCURVE",
"-62 932 CURVE SMOOTH",
"-77 932 OFFCURVE",
"-85 939 OFFCURVE",
"-89 961 CURVE",
"-89 966 LINE",
"-102 964 LINE",
"-108 953 OFFCURVE",
"-111 939 OFFCURVE",
"-111 923 CURVE SMOOTH",
"-111 897 OFFCURVE",
"-98 881 OFFCURVE",
"-74 881 CURVE SMOOTH"
);
}
);
width = 0;
}
);
note = ShaddaNS;
unicode = 0651;
},
{
glyphname = SharetKafNS;
lastChange = "2017-06-19 19:10:36 +0000";
layers = (
{
layerId = "67C28EBA-5AA6-4F74-BBA1-5BB358529C60";
paths = (
{
closed = 1;
nodes = (
"397 381 OFFCURVE",
"428 392 OFFCURVE",
"445 405 CURVE SMOOTH",
"461 418 OFFCURVE",
"482 438 OFFCURVE",
"507 467 CURVE SMOOTH",
"532 496 OFFCURVE",
"545 522 OFFCURVE",
"545 546 CURVE SMOOTH",
"545 560 OFFCURVE",
"540 572 OFFCURVE",
"529 581 CURVE SMOOTH",
"518 590 OFFCURVE",
"512 599 OFFCURVE",
"512 608 CURVE SMOOTH",
"512 626 OFFCURVE",
"520 642 OFFCURVE",
"554 667 CURVE",
"568 711 LINE",
"559 719 LINE",
"512 688 OFFCURVE",
"416 591 OFFCURVE",
"416 538 CURVE SMOOTH",
"416 525 OFFCURVE",
"421 513 OFFCURVE",
"431 502 CURVE SMOOTH",
"440 492 OFFCURVE",
"445 482 OFFCURVE",
"445 475 CURVE SMOOTH",
"445 456 OFFCURVE",
"405 427 OFFCURVE",
"343 388 CURVE",
"352 371 LINE"
);
}
);
width = 0;
},
{
layerId = "0A5D7F3A-D11E-4113-AD15-39410F1DC5C2";
paths = (
{
closed = 1;
nodes = (
"390 395 OFFCURVE",
"416 404 OFFCURVE",
"438 415 CURVE",
"507 478 OFFCURVE",
"529 514 OFFCURVE",
"529 546 CURVE SMOOTH",
"529 557 OFFCURVE",
"524 568 OFFCURVE",
"513 578 CURVE",
"504 587 OFFCURVE",
"499 595 OFFCURVE",
"499 600 CURVE SMOOTH",
"499 618 OFFCURVE",
"512 630 OFFCURVE",
"541 650 CURVE",
"555 694 LINE",
"547 702 LINE",
"507 676 OFFCURVE",
"427 590 OFFCURVE",
"427 545 CURVE SMOOTH",
"427 536 OFFCURVE",
"432 525 OFFCURVE",
"441 514 CURVE SMOOTH",
"451 502 OFFCURVE",
"455 494 OFFCURVE",
"455 489 CURVE SMOOTH",
"455 474 OFFCURVE",
"421 444 OFFCURVE",
"353 402 CURVE",
"360 389 LINE"
);
}
);
width = 0;
}
);
note = SharetKafNS;
},
{
glyphname = SharetYehPashtoNS;
lastChange = "2017-06-19 19:10:36 +0000";
layers = (
{
layerId = "67C28EBA-5AA6-4F74-BBA1-5BB358529C60";
paths = (
{
closed = 1;
nodes = (
"-45 183 OFFCURVE",
"14 218 OFFCURVE",
"106 218 CURVE SMOOTH",
"117 218 OFFCURVE",
"139 241 OFFCURVE",
"172 286 CURVE SMOOTH",
"205 331 OFFCURVE",
"221 358 OFFCURVE",
"221 369 CURVE SMOOTH",
"221 380 OFFCURVE",
"212 385 OFFCURVE",
"193 385 CURVE SMOOTH",
"109 385 OFFCURVE",
"-36 301 OFFCURVE",
"-131 140 CURVE",
"-104 123 LINE"
);
}
);
width = 0;
},
{
layerId = "0A5D7F3A-D11E-4113-AD15-39410F1DC5C2";
paths = (
{
closed = 1;
nodes = (
"-17 215 OFFCURVE",
"17 240 OFFCURVE",
"51 256 CURVE SMOOTH",
"85 272 OFFCURVE",
"112 279 OFFCURVE",
"137 280 CURVE SMOOTH",
"162 281 OFFCURVE",
"180 292 OFFCURVE",
"196 319 CURVE SMOOTH",
"212 345 OFFCURVE",
"221 361 OFFCURVE",
"221 367 CURVE SMOOTH",
"221 376 OFFCURVE",
"212 381 OFFCURVE",
"195 381 CURVE SMOOTH",
"127 381 OFFCURVE",
"13 327 OFFCURVE",
"-68 191 CURVE",
"-51 180 LINE"
);
}
);
width = 0;
}
);
note = SharetYehPashtoNS;
},
{
glyphname = Crossbar;
lastChange = "2017-06-19 19:10:36 +0000";
layers = (
{
layerId = "67C28EBA-5AA6-4F74-BBA1-5BB358529C60";
paths = (
{
closed = 1;
nodes = (
"-15 255 OFFCURVE",
"66 263 OFFCURVE",
"85 272 CURVE SMOOTH",
"104 281 OFFCURVE",
"125 302 OFFCURVE",
"147 337 CURVE",
"141 350 LINE",
"105 344 OFFCURVE",
"33 335 OFFCURVE",
"-113 323 CURVE",
"-160 265 LINE",
"-156 246 LINE"
);
}
);
width = 0;
},
{
layerId = "0A5D7F3A-D11E-4113-AD15-39410F1DC5C2";
paths = (
{
closed = 1;
nodes = (
"-11 259 OFFCURVE",
"63 267 OFFCURVE",
"79 274 CURVE SMOOTH",
"94 281 OFFCURVE",
"113 301 OFFCURVE",
"133 333 CURVE",
"129 341 LINE",
"93 333 OFFCURVE",
"16 325 OFFCURVE",
"-102 316 CURVE",
"-145 263 LINE",
"-142 251 LINE"
);
}
);
width = 0;
}
);
note = Crossbar;
},
{
glyphname = SukunHahNS;
lastChange = "2017-06-19 19:10:36 +0000";
layers = (
{
layerId = "67C28EBA-5AA6-4F74-BBA1-5BB358529C60";
paths = (
{
closed = 1;
nodes = (
"-72 874 OFFCURVE",
"-48 879 OFFCURVE",
"-13 886 CURVE SMOOTH",
"37 896 OFFCURVE",
"122 971 OFFCURVE",
"127 981 CURVE",
"123 998 LINE",
"44 1032 OFFCURVE",
"-6 1038 OFFCURVE",
"-31 1038 CURVE SMOOTH",
"-71 1038 OFFCURVE",
"-96 998 OFFCURVE",
"-109 968 CURVE",
"-92 963 LINE",
"-85 970 OFFCURVE",
"-77 974 OFFCURVE",
"-61 974 CURVE SMOOTH",
"-29 974 OFFCURVE",
"12 963 OFFCURVE",
"41 952 CURVE",
"41 949 LINE",
"33 938 OFFCURVE",
"-24 916 OFFCURVE",
"-111 892 CURVE",
"-109 870 LINE"
);
}
);
width = 0;
},
{
layerId = "0A5D7F3A-D11E-4113-AD15-39410F1DC5C2";
paths = (
{
closed = 1;
nodes = (
"-79 879 OFFCURVE",
"-72 880 OFFCURVE",
"-11 892 CURVE SMOOTH",
"32 900 OFFCURVE",
"111 969 OFFCURVE",
"116 979 CURVE",
"112 994 LINE",
"43 1024 OFFCURVE",
"-6 1030 OFFCURVE",
"-33 1030 CURVE SMOOTH",
"-62 1030 OFFCURVE",
"-83 1000 OFFCURVE",
"-97 967 CURVE",
"-86 961 LINE",
"-81 966 OFFCURVE",
"-71 972 OFFCURVE",
"-55 972 CURVE SMOOTH",
"-27 972 OFFCURVE",
"8 963 OFFCURVE",
"46 951 CURVE",
"46 948 LINE",
"39 939 OFFCURVE",
"-25 913 OFFCURVE",
"-99 893 CURVE",
"-98 878 LINE"
);
}
);
width = 0;
}
);
note = SukunHahNS;
unicode = 06E1;
},
{
glyphname = SukunJazmNS;
lastChange = "2017-06-19 19:10:36 +0000";
layers = (
{
layerId = "67C28EBA-5AA6-4F74-BBA1-5BB358529C60";
paths = (
{
closed = 1;
nodes = (
"-105 905 OFFCURVE",
"-54 945 OFFCURVE",
"-6 982 CURVE",
"88 923 OFFCURVE",
"103 916 OFFCURVE",
"133 891 CURVE",
"148 899 LINE",
"145 925 OFFCURVE",
"138 946 OFFCURVE",
"125 962 CURVE SMOOTH",
"97 996 OFFCURVE",
"29 1045 OFFCURVE",
"-1 1063 CURVE",
"-14 1061 LINE",
"-102 981 OFFCURVE",
"-150 931 OFFCURVE",
"-153 872 CURVE",
"-137 869 LINE"
);
}
);
width = 0;
},
{
layerId = "0A5D7F3A-D11E-4113-AD15-39410F1DC5C2";
paths = (
{
closed = 1;
nodes = (
"-106 904 OFFCURVE",
"-75 932 OFFCURVE",
"-38 962 CURVE SMOOTH",
"-5 989 LINE",
"38 962 OFFCURVE",
"82 932 OFFCURVE",
"125 900 CURVE",
"134 904 LINE",
"128 952 OFFCURVE",
"113 969 OFFCURVE",
"63 1009 CURVE SMOOTH",
"43 1025 OFFCURVE",
"23 1039 OFFCURVE",
"-1 1054 CURVE",
"-13 1052 LINE",
"-112 965 OFFCURVE",
"-137 923 OFFCURVE",
"-139 881 CURVE",
"-129 879 LINE"
);
}
);
width = 0;
}
);
note = SukunJazmNS;
unicode = 0652;
},
{
glyphname = SukunNS;
lastChange = "2017-06-19 19:10:36 +0000";
layers = (
{
layerId = "67C28EBA-5AA6-4F74-BBA1-5BB358529C60";
paths = (
{
closed = 1;
nodes = (
"44 860 OFFCURVE",
"82 901 OFFCURVE",
"82 962 CURVE SMOOTH",
"82 1016 OFFCURVE",
"50 1065 OFFCURVE",
"7 1065 CURVE SMOOTH",
"-50 1065 OFFCURVE",
"-84 998 OFFCURVE",
"-84 940 CURVE SMOOTH",
"-84 897 OFFCURVE",
"-59 860 OFFCURVE",
"-10 860 CURVE SMOOTH"
);
},
{
closed = 1;
nodes = (
"-27 920 OFFCURVE",
"-50 926 OFFCURVE",
"-50 956 CURVE SMOOTH",
"-50 983 OFFCURVE",
"-28 1003 OFFCURVE",
"-1 1003 CURVE SMOOTH",
"30 1003 OFFCURVE",
"49 987 OFFCURVE",
"49 964 CURVE SMOOTH",
"49 936 OFFCURVE",
"26 920 OFFCURVE",
"-3 920 CURVE SMOOTH"
);
}
);
width = 0;
},
{
layerId = "0A5D7F3A-D11E-4113-AD15-39410F1DC5C2";
paths = (
{
closed = 1;
nodes = (
"43 869 OFFCURVE",
"74 908 OFFCURVE",
"74 961 CURVE SMOOTH",
"74 1004 OFFCURVE",
"47 1056 OFFCURVE",
"6 1056 CURVE SMOOTH",
"-47 1056 OFFCURVE",
"-76 994 OFFCURVE",
"-76 942 CURVE SMOOTH",
"-76 896 OFFCURVE",
"-48 869 OFFCURVE",
"-9 869 CURVE SMOOTH"
);
},
{
closed = 1;
nodes = (
"-40 919 OFFCURVE",
"-46 941 OFFCURVE",
"-46 957 CURVE SMOOTH",
"-46 982 OFFCURVE",
"-26 1003 OFFCURVE",
"-1 1003 CURVE SMOOTH",
"21 1003 OFFCURVE",
"46 988 OFFCURVE",
"46 964 CURVE SMOOTH",
"46 935 OFFCURVE",
"21 919 OFFCURVE",
"-2 919 CURVE SMOOTH"
);
}
);
width = 0;
}
);
note = SukunNS;
},
{
glyphname = SukunZeroNS;
lastChange = "2017-06-19 19:10:36 +0000";
layers = (
{
layerId = "67C28EBA-5AA6-4F74-BBA1-5BB358529C60";
paths = (
{
closed = 1;
nodes = (
"65 845 OFFCURVE",
"111 894 OFFCURVE",
"111 968 CURVE SMOOTH",
"111 1047 OFFCURVE",
"75 1105 OFFCURVE",
"-3 1105 CURVE SMOOTH",
"-66 1105 OFFCURVE",
"-113 1054 OFFCURVE",
"-113 983 CURVE SMOOTH",
"-113 895 OFFCURVE",
"-70 845 OFFCURVE",
"1 845 CURVE SMOOTH"
);
},
{
closed = 1;
nodes = (
"-23 872 OFFCURVE",
"-35 918 OFFCURVE",
"-35 1011 CURVE SMOOTH",
"-35 1061 OFFCURVE",
"-25 1078 OFFCURVE",
"-3 1078 CURVE SMOOTH",
"21 1078 OFFCURVE",
"33 1032 OFFCURVE",
"33 939 CURVE SMOOTH",
"33 889 OFFCURVE",
"23 872 OFFCURVE",
"1 872 CURVE SMOOTH"
);
}
);
width = 0;
},
{
layerId = "0A5D7F3A-D11E-4113-AD15-39410F1DC5C2";
paths = (
{
closed = 1;
nodes = (
"53 857 OFFCURVE",
"87 904 OFFCURVE",
"87 968 CURVE SMOOTH",
"87 1043 OFFCURVE",
"58 1092 OFFCURVE",
"-2 1092 CURVE SMOOTH",
"-52 1092 OFFCURVE",
"-89 1048 OFFCURVE",
"-89 982 CURVE SMOOTH",
"-89 901 OFFCURVE",
"-56 857 OFFCURVE",
"1 857 CURVE SMOOTH"
);
},
{
closed = 1;
nodes = (
"-21 881 OFFCURVE",
"-32 923 OFFCURVE",
"-32 1008 CURVE SMOOTH",
"-32 1051 OFFCURVE",
"-24 1069 OFFCURVE",
"-2 1069 CURVE SMOOTH",
"19 1069 OFFCURVE",
"30 1026 OFFCURVE",
"30 941 CURVE SMOOTH",
"30 900 OFFCURVE",
"23 881 OFFCURVE",
"1 881 CURVE SMOOTH"
);
}
);
width = 0;
}
);
note = SukunZeroNS;
unicode = 06E0;
},
{
glyphname = TahSmallNS;
lastChange = "2017-06-19 19:10:36 +0000";
layers = (
{
layerId = "67C28EBA-5AA6-4F74-BBA1-5BB358529C60";
paths = (
{
closed = 1;
nodes = (
"13 822 OFFCURVE",
"58 840 OFFCURVE",
"92 877 CURVE SMOOTH",
"125 913 OFFCURVE",
"142 949 OFFCURVE",
"142 984 CURVE SMOOTH",
"142 1003 OFFCURVE",
"129 1020 OFFCURVE",
"101 1020 CURVE SMOOTH",
"65 1020 OFFCURVE",
"30 1001 OFFCURVE",
"-5 959 CURVE",
"-6 962 LINE",
"6 1000 OFFCURVE",
"9 1016 OFFCURVE",
"10 1035 CURVE SMOOTH",
"12 1068 LINE SMOOTH",
"16 1134 OFFCURVE",
"21 1172 OFFCURVE",
"27 1191 CURVE",
"10 1194 LINE",
"-15 1153 OFFCURVE",
"-27 1121 OFFCURVE",
"-29 1086 CURVE SMOOTH",
"-37 946 LINE SMOOTH",
"-39 914 OFFCURVE",
"-45 899 OFFCURVE",
"-82 862 CURVE",
"-99 857 OFFCURVE",
"-123 854 OFFCURVE",
"-150 850 CURVE",
"-152 829 LINE",
"-123 823 OFFCURVE",
"-82 822 OFFCURVE",
"-44 822 CURVE SMOOTH"
);
},
{
closed = 1;
nodes = (
"-15 900 LINE SMOOTH",
"14 938 OFFCURVE",
"45 957 OFFCURVE",
"72 957 CURVE SMOOTH",
"82 957 OFFCURVE",
"99 954 OFFCURVE",
"99 938 CURVE SMOOTH",
"99 922 OFFCURVE",
"62 894 OFFCURVE",
"-36 872 CURVE"
);
}
);
width = 0;
},
{
layerId = "0A5D7F3A-D11E-4113-AD15-39410F1DC5C2";
paths = (
{
closed = 1;
nodes = (
"-14 838 OFFCURVE",
"10 844 OFFCURVE",
"35 854 CURVE SMOOTH",
"86 875 OFFCURVE",
"129 939 OFFCURVE",
"129 986 CURVE SMOOTH",
"129 1000 OFFCURVE",
"117 1018 OFFCURVE",
"90 1018 CURVE SMOOTH",
"48 1018 OFFCURVE",
"18 985 OFFCURVE",
"-4 960 CURVE",
"3 984 OFFCURVE",
"8 1008 OFFCURVE",
"9 1033 CURVE SMOOTH",
"13 1110 OFFCURVE",
"19 1157 OFFCURVE",
"24 1173 CURVE",
"9 1177 LINE",
"-3 1158 OFFCURVE",
"-10 1142 OFFCURVE",
"-16 1126 CURVE SMOOTH",
"-27 1096 OFFCURVE",
"-26 1093 OFFCURVE",
"-31 996 CURVE SMOOTH",
"-33 955 OFFCURVE",
"-36 930 OFFCURVE",
"-41 917 CURVE",
"-75 875 LINE",
"-103 869 OFFCURVE",
"-124 865 OFFCURVE",
"-137 864 CURVE",
"-139 845 LINE",
"-112 840 OFFCURVE",
"-79 838 OFFCURVE",
"-41 838 CURVE SMOOTH"
);
},
{
closed = 1;
nodes = (
"15 945 OFFCURVE",
"32 961 OFFCURVE",
"62 961 CURVE SMOOTH",
"76 961 OFFCURVE",
"87 954 OFFCURVE",
"87 942 CURVE SMOOTH",
"87 914 OFFCURVE",
"-11 888 OFFCURVE",
"-33 884 CURVE"
);
}
);
width = 0;
}
);
note = TahSmallNS;
},
{
glyphname = TahSmallBelowNS;
lastChange = "2017-06-19 19:10:36 +0000";
layers = (
{
layerId = "67C28EBA-5AA6-4F74-BBA1-5BB358529C60";
paths = (
{
closed = 1;
nodes = (
"13 -408 OFFCURVE",
"58 -390 OFFCURVE",
"92 -353 CURVE SMOOTH",
"125 -317 OFFCURVE",
"142 -281 OFFCURVE",
"142 -246 CURVE SMOOTH",
"142 -227 OFFCURVE",
"129 -210 OFFCURVE",
"101 -210 CURVE SMOOTH",
"65 -210 OFFCURVE",
"30 -229 OFFCURVE",
"-5 -271 CURVE",
"-6 -268 LINE",
"6 -230 OFFCURVE",
"9 -214 OFFCURVE",
"10 -195 CURVE SMOOTH",
"12 -162 LINE SMOOTH",
"16 -96 OFFCURVE",
"21 -58 OFFCURVE",
"27 -39 CURVE",
"10 -36 LINE",
"-15 -77 OFFCURVE",
"-27 -109 OFFCURVE",
"-29 -144 CURVE SMOOTH",
"-37 -284 LINE SMOOTH",
"-39 -316 OFFCURVE",
"-45 -331 OFFCURVE",
"-82 -368 CURVE",
"-99 -373 OFFCURVE",
"-123 -376 OFFCURVE",
"-150 -380 CURVE",
"-152 -401 LINE",
"-123 -407 OFFCURVE",
"-82 -408 OFFCURVE",
"-44 -408 CURVE SMOOTH"
);
},
{
closed = 1;
nodes = (
"-15 -330 LINE SMOOTH",
"14 -292 OFFCURVE",
"45 -273 OFFCURVE",
"72 -273 CURVE SMOOTH",
"82 -273 OFFCURVE",
"99 -276 OFFCURVE",
"99 -292 CURVE SMOOTH",
"99 -308 OFFCURVE",
"62 -336 OFFCURVE",
"-36 -358 CURVE"
);
}
);
width = 0;
},
{
layerId = "0A5D7F3A-D11E-4113-AD15-39410F1DC5C2";
paths = (
{
closed = 1;
nodes = (
"-14 -392 OFFCURVE",
"11 -387 OFFCURVE",
"35 -377 CURVE SMOOTH",
"83 -358 OFFCURVE",
"129 -292 OFFCURVE",
"129 -244 CURVE SMOOTH",
"129 -230 OFFCURVE",
"117 -213 OFFCURVE",
"90 -213 CURVE SMOOTH",
"48 -213 OFFCURVE",
"18 -245 OFFCURVE",
"-4 -270 CURVE",
"3 -247 OFFCURVE",
"8 -220 OFFCURVE",
"9 -198 CURVE SMOOTH",
"13 -120 OFFCURVE",
"19 -73 OFFCURVE",
"24 -57 CURVE",
"9 -54 LINE",
"-2 -72 OFFCURVE",
"-11 -89 OFFCURVE",
"-16 -104 CURVE SMOOTH",
"-27 -135 OFFCURVE",
"-27 -137 OFFCURVE",
"-31 -235 CURVE SMOOTH",
"-33 -275 OFFCURVE",
"-36 -300 OFFCURVE",
"-41 -313 CURVE",
"-75 -356 LINE",
"-103 -362 OFFCURVE",
"-124 -365 OFFCURVE",
"-137 -367 CURVE",
"-139 -386 LINE",
"-112 -390 OFFCURVE",
"-79 -392 OFFCURVE",
"-41 -392 CURVE SMOOTH"
);
},
{
closed = 1;
nodes = (
"15 -285 OFFCURVE",
"32 -269 OFFCURVE",
"62 -269 CURVE SMOOTH",
"76 -269 OFFCURVE",
"87 -277 OFFCURVE",
"87 -288 CURVE SMOOTH",
"87 -316 OFFCURVE",
"-11 -342 OFFCURVE",
"-33 -346 CURVE"
);
}
);
width = 0;
}
);
note = TahSmallBelowNS;
},
{
glyphname = TahSmallEnclNS;
lastChange = "2017-06-19 19:10:36 +0000";
layers = (
{
layerId = "67C28EBA-5AA6-4F74-BBA1-5BB358529C60";
paths = (
{
closed = 1;
nodes = (
"13 -408 OFFCURVE",
"58 -390 OFFCURVE",
"92 -353 CURVE SMOOTH",
"125 -317 OFFCURVE",
"142 -281 OFFCURVE",
"142 -246 CURVE SMOOTH",
"142 -227 OFFCURVE",
"129 -210 OFFCURVE",
"101 -210 CURVE SMOOTH",
"65 -210 OFFCURVE",
"30 -229 OFFCURVE",
"-5 -271 CURVE",
"-6 -268 LINE",
"6 -230 OFFCURVE",
"9 -214 OFFCURVE",
"10 -195 CURVE SMOOTH",
"12 -162 LINE SMOOTH",
"16 -96 OFFCURVE",
"21 -58 OFFCURVE",
"27 -39 CURVE",
"10 -36 LINE",
"-15 -77 OFFCURVE",
"-27 -109 OFFCURVE",
"-29 -144 CURVE SMOOTH",
"-37 -284 LINE SMOOTH",
"-39 -316 OFFCURVE",
"-45 -331 OFFCURVE",
"-82 -368 CURVE",
"-99 -373 OFFCURVE",
"-123 -376 OFFCURVE",
"-150 -380 CURVE",
"-152 -401 LINE",
"-123 -407 OFFCURVE",
"-82 -408 OFFCURVE",
"-44 -408 CURVE SMOOTH"
);
},
{
closed = 1;
nodes = (
"-15 -330 LINE SMOOTH",
"14 -292 OFFCURVE",
"45 -273 OFFCURVE",
"72 -273 CURVE SMOOTH",
"82 -273 OFFCURVE",
"99 -276 OFFCURVE",
"99 -292 CURVE SMOOTH",
"99 -308 OFFCURVE",
"62 -336 OFFCURVE",
"-36 -358 CURVE"
);
}
);
width = 0;
},
{
layerId = "0A5D7F3A-D11E-4113-AD15-39410F1DC5C2";
paths = (
{
closed = 1;
nodes = (
"-14 -392 OFFCURVE",
"11 -387 OFFCURVE",
"35 -377 CURVE SMOOTH",
"83 -358 OFFCURVE",
"129 -292 OFFCURVE",
"129 -244 CURVE SMOOTH",
"129 -230 OFFCURVE",
"117 -213 OFFCURVE",
"90 -213 CURVE SMOOTH",
"48 -213 OFFCURVE",
"18 -245 OFFCURVE",
"-4 -270 CURVE",
"3 -247 OFFCURVE",
"8 -220 OFFCURVE",
"9 -198 CURVE SMOOTH",
"13 -120 OFFCURVE",
"19 -73 OFFCURVE",
"24 -57 CURVE",
"9 -54 LINE",
"-2 -72 OFFCURVE",
"-11 -89 OFFCURVE",
"-16 -104 CURVE SMOOTH",
"-27 -135 OFFCURVE",
"-27 -137 OFFCURVE",
"-31 -235 CURVE SMOOTH",
"-33 -275 OFFCURVE",
"-36 -300 OFFCURVE",
"-41 -313 CURVE",
"-75 -356 LINE",
"-103 -362 OFFCURVE",
"-124 -365 OFFCURVE",
"-137 -367 CURVE",
"-139 -386 LINE",
"-112 -390 OFFCURVE",
"-79 -392 OFFCURVE",
"-41 -392 CURVE SMOOTH"
);
},
{
closed = 1;
nodes = (
"15 -285 OFFCURVE",
"32 -269 OFFCURVE",
"62 -269 CURVE SMOOTH",
"76 -269 OFFCURVE",
"87 -277 OFFCURVE",
"87 -288 CURVE SMOOTH",
"87 -316 OFFCURVE",
"-11 -342 OFFCURVE",
"-33 -346 CURVE"
);
}
);
width = 0;
}
);
note = TahSmallEnclNS;
},
{
glyphname = Tah2DotsEnclNS;
lastChange = "2017-06-19 19:10:36 +0000";
layers = (
{
layerId = "67C28EBA-5AA6-4F74-BBA1-5BB358529C60";
paths = (
{
closed = 1;
nodes = (
"43 -257 OFFCURVE",
"81 -200 OFFCURVE",
"81 -166 CURVE SMOOTH",
"81 -150 OFFCURVE",
"73 -142 OFFCURVE",
"58 -142 CURVE SMOOTH",
"35 -142 OFFCURVE",
"15 -155 OFFCURVE",
"-3 -178 CURVE",
"3 -160 OFFCURVE",
"4 -144 OFFCURVE",
"5 -134 CURVE",
"6 -117 LINE",
"8 -92 LINE SMOOTH",
"10 -74 OFFCURVE",
"12 -51 OFFCURVE",
"15 -45 CURVE",
"5 -43 LINE",
"-8 -67 OFFCURVE",
"-14 -79 OFFCURVE",
"-16 -102 CURVE SMOOTH",
"-22 -186 LINE SMOOTH",
"-23 -204 OFFCURVE",
"-26 -212 OFFCURVE",
"-48 -234 CURVE",
"-59 -237 OFFCURVE",
"-69 -239 OFFCURVE",
"-87 -241 CURVE",
"-88 -253 LINE",
"-73 -255 OFFCURVE",
"-51 -257 OFFCURVE",
"-26 -257 CURVE SMOOTH"
);
},
{
closed = 1;
nodes = (
"-32 -368 LINE",
"-11 -353 OFFCURVE",
"-3 -345 OFFCURVE",
"2 -337 CURVE",
"13 -346 OFFCURVE",
"16 -348 OFFCURVE",
"28 -360 CURVE",
"32 -360 LINE",
"56 -344 OFFCURVE",
"70 -326 OFFCURVE",
"70 -315 CURVE SMOOTH",
"70 -304 OFFCURVE",
"58 -291 OFFCURVE",
"34 -276 CURVE",
"29 -276 LINE",
"21 -282 OFFCURVE",
"11 -293 OFFCURVE",
"-1 -307 CURVE",
"-14 -294 OFFCURVE",
"-15 -293 OFFCURVE",
"-30 -284 CURVE",
"-34 -284 LINE",
"-44 -292 OFFCURVE",
"-64 -313 OFFCURVE",
"-75 -329 CURVE",
"-75 -333 LINE",
"-66 -340 OFFCURVE",
"-45 -357 OFFCURVE",
"-36 -368 CURVE"
);
},
{
closed = 1;
nodes = (
"-1 -196 OFFCURVE",
"23 -179 OFFCURVE",
"41 -179 CURVE SMOOTH",
"48 -179 OFFCURVE",
"56 -181 OFFCURVE",
"56 -190 CURVE SMOOTH",
"56 -205 OFFCURVE",
"2 -222 OFFCURVE",
"-21 -228 CURVE"
);
}
);
width = 0;
},
{
layerId = "0A5D7F3A-D11E-4113-AD15-39410F1DC5C2";
paths = (
{
closed = 1;
nodes = (
"51 -253 OFFCURVE",
"75 -188 OFFCURVE",
"75 -168 CURVE SMOOTH",
"75 -161 OFFCURVE",
"68 -150 OFFCURVE",
"52 -150 CURVE SMOOTH",
"27 -150 OFFCURVE",
"11 -168 OFFCURVE",
"-2 -183 CURVE",
"1 -169 OFFCURVE",
"4 -156 OFFCURVE",
"5 -143 CURVE SMOOTH",
"8 -97 OFFCURVE",
"10 -70 OFFCURVE",
"13 -61 CURVE",
"5 -58 LINE",
"-6 -78 OFFCURVE",
"-14 -94 OFFCURVE",
"-15 -109 CURVE",
"-15 -116 OFFCURVE",
"-16 -133 OFFCURVE",
"-18 -163 CURVE SMOOTH",
"-20 -186 OFFCURVE",
"-20 -198 OFFCURVE",
"-23 -208 CURVE",
"-43 -233 LINE",
"-60 -236 OFFCURVE",
"-72 -238 OFFCURVE",
"-79 -238 CURVE",
"-80 -250 LINE",
"-65 -252 OFFCURVE",
"-46 -253 OFFCURVE",
"-23 -253 CURVE SMOOTH"
);
},
{
closed = 1;
nodes = (
"-32 -351 LINE",
"-16 -339 OFFCURVE",
"-5 -329 OFFCURVE",
"0 -320 CURVE",
"8 -328 OFFCURVE",
"17 -337 OFFCURVE",
"26 -345 CURVE",
"30 -345 LINE",
"53 -328 OFFCURVE",
"64 -316 OFFCURVE",
"64 -307 CURVE SMOOTH",
"64 -295 OFFCURVE",
"55 -287 OFFCURVE",
"33 -271 CURVE",
"29 -271 LINE",
"25 -274 OFFCURVE",
"10 -289 OFFCURVE",
"-1 -302 CURVE",
"-5 -295 OFFCURVE",
"-13 -287 OFFCURVE",
"-30 -277 CURVE",
"-33 -277 LINE",
"-39 -280 OFFCURVE",
"-62 -304 OFFCURVE",
"-68 -316 CURVE",
"-68 -320 LINE",
"-57 -330 OFFCURVE",
"-46 -342 OFFCURVE",
"-35 -351 CURVE"
);
},
{
closed = 1;
nodes = (
"8 -192 OFFCURVE",
"19 -182 OFFCURVE",
"35 -182 CURVE SMOOTH",
"41 -182 OFFCURVE",
"50 -186 OFFCURVE",
"50 -193 CURVE SMOOTH",
"50 -209 OFFCURVE",
"-3 -226 OFFCURVE",
"-19 -227 CURVE"
);
}
);
width = 0;
}
);
note = Tah2DotsEnclNS;
},
{
glyphname = Tah2DotsBelowNS;
lastChange = "2017-06-19 19:10:36 +0000";
layers = (
{
layerId = "67C28EBA-5AA6-4F74-BBA1-5BB358529C60";
paths = (
{
closed = 1;
nodes = (
"43 -257 OFFCURVE",
"81 -200 OFFCURVE",
"81 -166 CURVE SMOOTH",
"81 -150 OFFCURVE",
"73 -142 OFFCURVE",
"58 -142 CURVE SMOOTH",
"35 -142 OFFCURVE",
"15 -155 OFFCURVE",
"-3 -178 CURVE",
"3 -160 OFFCURVE",
"4 -144 OFFCURVE",
"5 -134 CURVE",
"6 -117 LINE",
"8 -92 LINE SMOOTH",
"10 -74 OFFCURVE",
"12 -51 OFFCURVE",
"15 -45 CURVE",
"5 -43 LINE",
"-8 -67 OFFCURVE",
"-14 -79 OFFCURVE",
"-16 -102 CURVE SMOOTH",
"-22 -186 LINE SMOOTH",
"-23 -204 OFFCURVE",
"-26 -212 OFFCURVE",
"-48 -234 CURVE",
"-59 -237 OFFCURVE",
"-69 -239 OFFCURVE",
"-87 -241 CURVE",
"-88 -253 LINE",
"-73 -255 OFFCURVE",
"-51 -257 OFFCURVE",
"-26 -257 CURVE SMOOTH"
);
},
{
closed = 1;
nodes = (
"-32 -368 LINE",
"-11 -353 OFFCURVE",
"-3 -345 OFFCURVE",
"2 -337 CURVE",
"13 -346 OFFCURVE",
"16 -348 OFFCURVE",
"28 -360 CURVE",
"32 -360 LINE",
"56 -344 OFFCURVE",
"70 -326 OFFCURVE",
"70 -315 CURVE SMOOTH",
"70 -304 OFFCURVE",
"58 -291 OFFCURVE",
"34 -276 CURVE",
"29 -276 LINE",
"21 -282 OFFCURVE",
"11 -293 OFFCURVE",
"-1 -307 CURVE",
"-14 -294 OFFCURVE",
"-15 -293 OFFCURVE",
"-30 -284 CURVE",
"-34 -284 LINE",
"-44 -292 OFFCURVE",
"-64 -313 OFFCURVE",
"-75 -329 CURVE",
"-75 -333 LINE",
"-66 -340 OFFCURVE",
"-45 -357 OFFCURVE",
"-36 -368 CURVE"
);
},
{
closed = 1;
nodes = (
"-1 -196 OFFCURVE",
"23 -179 OFFCURVE",
"41 -179 CURVE SMOOTH",
"48 -179 OFFCURVE",
"56 -181 OFFCURVE",
"56 -190 CURVE SMOOTH",
"56 -205 OFFCURVE",
"2 -222 OFFCURVE",
"-21 -228 CURVE"
);
}
);
width = 0;
},
{
layerId = "0A5D7F3A-D11E-4113-AD15-39410F1DC5C2";
paths = (
{
closed = 1;
nodes = (
"51 -253 OFFCURVE",
"75 -188 OFFCURVE",
"75 -168 CURVE SMOOTH",
"75 -161 OFFCURVE",
"68 -150 OFFCURVE",
"52 -150 CURVE SMOOTH",
"27 -150 OFFCURVE",
"11 -168 OFFCURVE",
"-2 -183 CURVE",
"1 -169 OFFCURVE",
"4 -156 OFFCURVE",
"5 -143 CURVE SMOOTH",
"8 -97 OFFCURVE",
"10 -70 OFFCURVE",
"13 -61 CURVE",
"5 -58 LINE",
"-6 -78 OFFCURVE",
"-14 -94 OFFCURVE",
"-15 -109 CURVE",
"-15 -116 OFFCURVE",
"-16 -133 OFFCURVE",
"-18 -163 CURVE SMOOTH",
"-20 -186 OFFCURVE",
"-20 -198 OFFCURVE",
"-23 -208 CURVE",
"-43 -233 LINE",
"-60 -236 OFFCURVE",
"-72 -238 OFFCURVE",
"-79 -238 CURVE",
"-80 -250 LINE",
"-65 -252 OFFCURVE",
"-46 -253 OFFCURVE",
"-23 -253 CURVE SMOOTH"
);
},
{
closed = 1;
nodes = (
"-32 -351 LINE",
"-16 -339 OFFCURVE",
"-5 -329 OFFCURVE",
"0 -320 CURVE",
"8 -328 OFFCURVE",
"17 -337 OFFCURVE",
"26 -345 CURVE",
"30 -345 LINE",
"53 -328 OFFCURVE",
"64 -316 OFFCURVE",
"64 -307 CURVE SMOOTH",
"64 -295 OFFCURVE",
"55 -287 OFFCURVE",
"33 -271 CURVE",
"29 -271 LINE",
"25 -274 OFFCURVE",
"10 -289 OFFCURVE",
"-1 -302 CURVE",
"-5 -295 OFFCURVE",
"-13 -287 OFFCURVE",
"-30 -277 CURVE",
"-33 -277 LINE",
"-39 -280 OFFCURVE",
"-62 -304 OFFCURVE",
"-68 -316 CURVE",
"-68 -320 LINE",
"-57 -330 OFFCURVE",
"-46 -342 OFFCURVE",
"-35 -351 CURVE"
);
},
{
closed = 1;
nodes = (
"8 -192 OFFCURVE",
"19 -182 OFFCURVE",
"35 -182 CURVE SMOOTH",
"41 -182 OFFCURVE",
"50 -186 OFFCURVE",
"50 -193 CURVE SMOOTH",
"50 -209 OFFCURVE",
"-3 -226 OFFCURVE",
"-19 -227 CURVE"
);
}
);
width = 0;
}
);
note = Tah2DotsBelowNS;
},
{
glyphname = Tah2DotsAboveNS;
lastChange = "2017-06-19 19:10:36 +0000";
layers = (
{
layerId = "67C28EBA-5AA6-4F74-BBA1-5BB358529C60";
paths = (
{
closed = 1;
nodes = (
"12 949 OFFCURVE",
"52 965 OFFCURVE",
"83 997 CURVE SMOOTH",
"114 1029 OFFCURVE",
"129 1062 OFFCURVE",
"129 1096 CURVE SMOOTH",
"129 1111 OFFCURVE",
"118 1128 OFFCURVE",
"92 1128 CURVE SMOOTH",
"53 1128 OFFCURVE",
"23 1106 OFFCURVE",
"-4 1073 CURVE",
"2 1094 OFFCURVE",
"7 1109 OFFCURVE",
"9 1142 CURVE SMOOTH",
"11 1172 LINE SMOOTH",
"14 1216 OFFCURVE",
"17 1260 OFFCURVE",
"25 1283 CURVE",
"10 1286 LINE",
"-12 1248 OFFCURVE",
"-24 1221 OFFCURVE",
"-26 1187 CURVE SMOOTH",
"-30 1108 LINE SMOOTH",
"-32 1077 OFFCURVE",
"-34 1056 OFFCURVE",
"-35 1043 CURVE SMOOTH",
"-36 1029 OFFCURVE",
"-49 1010 OFFCURVE",
"-74 985 CURVE",
"-90 980 OFFCURVE",
"-121 976 OFFCURVE",
"-135 974 CURVE",
"-137 955 LINE",
"-110 950 OFFCURVE",
"-70 949 OFFCURVE",
"-39 949 CURVE SMOOTH"
);
},
{
closed = 1;
nodes = (
"-50 780 LINE",
"-25 796 OFFCURVE",
"-6 814 OFFCURVE",
"3 828 CURVE",
"28 805 OFFCURVE",
"36 798 OFFCURVE",
"41 792 CURVE",
"47 792 LINE",
"87 818 OFFCURVE",
"108 843 OFFCURVE",
"108 860 CURVE SMOOTH",
"108 879 OFFCURVE",
"92 894 OFFCURVE",
"51 921 CURVE",
"45 921 LINE",
"29 908 OFFCURVE",
"15 893 OFFCURVE",
"-1 874 CURVE",
"-10 885 OFFCURVE",
"-25 897 OFFCURVE",
"-46 909 CURVE",
"-52 909 LINE",
"-67 898 OFFCURVE",
"-102 861 OFFCURVE",
"-115 840 CURVE",
"-115 833 LINE",
"-95 817 OFFCURVE",
"-76 802 OFFCURVE",
"-56 780 CURVE"
);
},
{
closed = 1;
nodes = (
"-7 1030 OFFCURVE",
"28 1071 OFFCURVE",
"67 1071 CURVE SMOOTH",
"76 1071 OFFCURVE",
"92 1070 OFFCURVE",
"92 1054 CURVE SMOOTH",
"92 1037 OFFCURVE",
"53 1014 OFFCURVE",
"-32 994 CURVE"
);
}
);
width = 0;
},
{
layerId = "0A5D7F3A-D11E-4113-AD15-39410F1DC5C2";
paths = (
{
closed = 1;
nodes = (
"-13 958 OFFCURVE",
"10 962 OFFCURVE",
"32 971 CURVE SMOOTH",
"76 989 OFFCURVE",
"116 1049 OFFCURVE",
"116 1091 CURVE SMOOTH",
"116 1102 OFFCURVE",
"106 1119 OFFCURVE",
"82 1119 CURVE SMOOTH",
"44 1119 OFFCURVE",
"16 1091 OFFCURVE",
"-3 1068 CURVE",
"2 1089 OFFCURVE",
"6 1109 OFFCURVE",
"8 1132 CURVE SMOOTH",
"13 1202 OFFCURVE",
"17 1244 OFFCURVE",
"21 1259 CURVE",
"8 1262 LINE",
"-2 1245 OFFCURVE",
"-9 1230 OFFCURVE",
"-14 1217 CURVE SMOOTH",
"-25 1189 OFFCURVE",
"-24 1182 OFFCURVE",
"-27 1100 CURVE SMOOTH",
"-28 1078 OFFCURVE",
"-33 1040 OFFCURVE",
"-36 1029 CURVE",
"-67 990 LINE",
"-93 984 OFFCURVE",
"-111 981 OFFCURVE",
"-123 981 CURVE",
"-125 963 LINE",
"-101 960 OFFCURVE",
"-71 958 OFFCURVE",
"-36 958 CURVE SMOOTH"
);
},
{
closed = 1;
nodes = (
"-49 805 LINE",
"-25 823 OFFCURVE",
"-8 840 OFFCURVE",
"-1 853 CURVE",
"42 814 LINE",
"47 814 LINE",
"81 838 OFFCURVE",
"100 859 OFFCURVE",
"100 875 CURVE SMOOTH",
"100 892 OFFCURVE",
"85 907 OFFCURVE",
"50 929 CURVE",
"45 929 LINE",
"39 924 OFFCURVE",
"14 900 OFFCURVE",
"-1 881 CURVE",
"-8 893 OFFCURVE",
"-22 905 OFFCURVE",
"-46 920 CURVE",
"-52 920 LINE",
"-60 915 OFFCURVE",
"-95 878 OFFCURVE",
"-108 859 CURVE",
"-108 854 LINE",
"-90 838 OFFCURVE",
"-73 822 OFFCURVE",
"-55 805 CURVE"
);
},
{
closed = 1;
nodes = (
"5 1040 OFFCURVE",
"25 1069 OFFCURVE",
"55 1069 CURVE SMOOTH",
"66 1069 OFFCURVE",
"78 1063 OFFCURVE",
"78 1051 CURVE SMOOTH",
"78 1037 OFFCURVE",
"52 1021 OFFCURVE",
"-1 1005 CURVE SMOOTH",
"-12 1002 OFFCURVE",
"-21 1000 OFFCURVE",
"-29 999 CURVE"
);
}
);
width = 0;
}
);
note = Tah2DotsAboveNS;
},
{
glyphname = TakhallusNS;
lastChange = "2017-06-19 19:10:36 +0000";
layers = (
{
layerId = "67C28EBA-5AA6-4F74-BBA1-5BB358529C60";
paths = (
{
closed = 1;
nodes = (
"-83 882 OFFCURVE",
"-23 909 OFFCURVE",
"13 935 CURVE SMOOTH",
"42 956 OFFCURVE",
"61 973 OFFCURVE",
"66 973 CURVE SMOOTH",
"70 973 OFFCURVE",
"77 969 OFFCURVE",
"87 960 CURVE SMOOTH",
"97 951 OFFCURVE",
"109 947 OFFCURVE",
"123 947 CURVE SMOOTH",
"159 947 OFFCURVE",
"184 975 OFFCURVE",
"207 1055 CURVE",
"185 1060 LINE",
"174 1032 OFFCURVE",
"163 1017 OFFCURVE",
"141 1017 CURVE SMOOTH",
"133 1017 OFFCURVE",
"125 1021 OFFCURVE",
"117 1029 CURVE",
"108 1037 OFFCURVE",
"100 1041 OFFCURVE",
"93 1041 CURVE SMOOTH",
"86 1041 OFFCURVE",
"77 1033 OFFCURVE",
"65 1020 CURVE SMOOTH",
"13 962 OFFCURVE",
"-96 946 OFFCURVE",
"-234 936 CURVE",
"-237 925 LINE",
"-224 914 OFFCURVE",
"-149 882 OFFCURVE",
"-132 882 CURVE SMOOTH"
);
}
);
width = 0;
},
{
layerId = "0A5D7F3A-D11E-4113-AD15-39410F1DC5C2";
paths = (
{
closed = 1;
nodes = (
"-85 892 OFFCURVE",
"-56 900 OFFCURVE",
"-26 916 CURVE SMOOTH",
"3 931 OFFCURVE",
"24 944 OFFCURVE",
"36 956 CURVE SMOOTH",
"47 967 OFFCURVE",
"55 973 OFFCURVE",
"59 973 CURVE SMOOTH",
"62 973 OFFCURVE",
"68 969 OFFCURVE",
"79 961 CURVE",
"89 953 OFFCURVE",
"100 948 OFFCURVE",
"110 948 CURVE SMOOTH",
"147 948 OFFCURVE",
"167 982 OFFCURVE",
"186 1047 CURVE",
"168 1053 LINE",
"154 1021 OFFCURVE",
"141 1013 OFFCURVE",
"126 1013 CURVE SMOOTH",
"119 1013 OFFCURVE",
"112 1017 OFFCURVE",
"105 1024 CURVE SMOOTH",
"98 1031 OFFCURVE",
"91 1035 OFFCURVE",
"84 1035 CURVE SMOOTH",
"77 1035 OFFCURVE",
"70 1026 OFFCURVE",
"58 1014 CURVE",
"6 958 OFFCURVE",
"-109 946 OFFCURVE",
"-213 938 CURVE",
"-217 932 LINE",
"-207 922 OFFCURVE",
"-172 909 OFFCURVE",
"-114 892 CURVE"
);
}
);
width = 0;
}
);
note = TakhallusNS;
unicode = 0614;
},
{
glyphname = AlefInferiorYB;
lastChange = "2017-06-19 19:10:36 +0000";
layers = (
{
layerId = "67C28EBA-5AA6-4F74-BBA1-5BB358529C60";
paths = (
{
closed = 1;
nodes = (
"16 -229 OFFCURVE",
"31 -177 OFFCURVE",
"34 -129 CURVE SMOOTH",
"35 -109 LINE SMOOTH",
"38 -34 OFFCURVE",
"40 -11 OFFCURVE",
"45 1 CURVE",
"28 4 LINE",
"0 -50 OFFCURVE",
"-9 -68 OFFCURVE",
"-11 -125 CURVE SMOOTH",
"-13 -173 LINE SMOOTH",
"-15 -226 OFFCURVE",
"-19 -259 OFFCURVE",
"-23 -278 CURVE",
"-6 -281 LINE"
);
}
);
width = 0;
},
{
layerId = "0A5D7F3A-D11E-4113-AD15-39410F1DC5C2";
paths = (
{
closed = 1;
nodes = (
"13 -228 OFFCURVE",
"28 -174 OFFCURVE",
"30 -129 CURVE SMOOTH",
"31 -112 LINE SMOOTH",
"33 -52 OFFCURVE",
"37 -21 OFFCURVE",
"40 -11 CURVE",
"29 -8 LINE",
"1 -63 OFFCURVE",
"-4 -80 OFFCURVE",
"-6 -125 CURVE SMOOTH",
"-8 -169 LINE SMOOTH",
"-10 -218 OFFCURVE",
"-14 -249 OFFCURVE",
"-17 -265 CURVE",
"-5 -267 LINE"
);
}
);
width = 0;
}
);
note = AlefInferiorYB;
},
{
glyphname = HamzaBelowYB;
lastChange = "2017-06-19 19:10:36 +0000";
layers = (
{
layerId = "67C28EBA-5AA6-4F74-BBA1-5BB358529C60";
paths = (
{
closed = 1;
nodes = (
"-68 -289 OFFCURVE",
"-40 -266 OFFCURVE",
"-13 -219 CURVE SMOOTH",
"14 -172 OFFCURVE",
"37 -149 OFFCURVE",
"56 -149 CURVE SMOOTH",
"74 -149 OFFCURVE",
"84 -160 OFFCURVE",
"84 -173 CURVE SMOOTH",
"84 -176 OFFCURVE",
"83 -180 OFFCURVE",
"82 -184 CURVE",
"100 -189 LINE",
"117 -169 OFFCURVE",
"134 -124 OFFCURVE",
"134 -97 CURVE SMOOTH",
"134 -61 OFFCURVE",
"112 -51 OFFCURVE",
"92 -51 CURVE SMOOTH",
"62 -51 OFFCURVE",
"42 -72 OFFCURVE",
"17 -111 CURVE SMOOTH",
"-12 -156 LINE SMOOTH",
"-30 -183 OFFCURVE",
"-45 -191 OFFCURVE",
"-59 -191 CURVE SMOOTH",
"-76 -191 OFFCURVE",
"-84 -182 OFFCURVE",
"-84 -168 CURVE SMOOTH",
"-84 -164 OFFCURVE",
"-83 -160 OFFCURVE",
"-82 -156 CURVE",
"-101 -151 LINE",
"-116 -169 OFFCURVE",
"-137 -207 OFFCURVE",
"-137 -244 CURVE SMOOTH",
"-137 -273 OFFCURVE",
"-121 -289 OFFCURVE",
"-98 -289 CURVE SMOOTH"
);
}
);
width = 0;
},
{
layerId = "0A5D7F3A-D11E-4113-AD15-39410F1DC5C2";
paths = (
{
closed = 1;
nodes = (
"-65 -278 OFFCURVE",
"-44 -260 OFFCURVE",
"-19 -221 CURVE SMOOTH",
"15 -169 LINE SMOOTH",
"32 -144 OFFCURVE",
"42 -136 OFFCURVE",
"55 -136 CURVE SMOOTH",
"64 -136 OFFCURVE",
"75 -143 OFFCURVE",
"75 -162 CURVE",
"91 -166 LINE",
"108 -147 OFFCURVE",
"122 -121 OFFCURVE",
"122 -95 CURVE SMOOTH",
"122 -69 OFFCURVE",
"104 -62 OFFCURVE",
"88 -62 CURVE SMOOTH",
"64 -62 OFFCURVE",
"45 -76 OFFCURVE",
"17 -118 CURVE SMOOTH",
"-18 -170 LINE SMOOTH",
"-36 -197 OFFCURVE",
"-45 -203 OFFCURVE",
"-58 -203 CURVE SMOOTH",
"-68 -203 OFFCURVE",
"-77 -194 OFFCURVE",
"-77 -178 CURVE",
"-94 -174 LINE",
"-111 -192 OFFCURVE",
"-125 -219 OFFCURVE",
"-125 -245 CURVE SMOOTH",
"-125 -267 OFFCURVE",
"-112 -278 OFFCURVE",
"-90 -278 CURVE SMOOTH"
);
}
);
width = 0;
}
);
note = HamzaBelowYB;
},
{
glyphname = KasraYB;
lastChange = "2017-06-19 19:10:36 +0000";
layers = (
{
layerId = "67C28EBA-5AA6-4F74-BBA1-5BB358529C60";
paths = (
{
closed = 1;
nodes = (
"-110 -185 OFFCURVE",
"-91 -173 OFFCURVE",
"-63 -158 CURVE SMOOTH",
"90 -74 LINE SMOOTH",
"121 -57 OFFCURVE",
"138 -35 OFFCURVE",
"150 1 CURVE",
"137 8 LINE",
"132 4 OFFCURVE",
"124 -1 OFFCURVE",
"113 -7 CURVE SMOOTH",
"62 -37 OFFCURVE",
"11 -64 OFFCURVE",
"-40 -93 CURVE SMOOTH",
"-108 -132 OFFCURVE",
"-124 -151 OFFCURVE",
"-133 -189 CURVE",
"-121 -197 LINE"
);
}
);
width = 0;
},
{
layerId = "0A5D7F3A-D11E-4113-AD15-39410F1DC5C2";
paths = (
{
closed = 1;
nodes = (
"-104 -175 OFFCURVE",
"-89 -164 OFFCURVE",
"-56 -146 CURVE SMOOTH",
"79 -73 LINE SMOOTH",
"108 -57 OFFCURVE",
"123 -36 OFFCURVE",
"134 -6 CURVE",
"125 -1 LINE",
"119 -5 OFFCURVE",
"104 -16 OFFCURVE",
"76 -31 CURVE SMOOTH",
"30 -56 OFFCURVE",
"-15 -79 OFFCURVE",
"-61 -108 CURVE SMOOTH",
"-95 -129 OFFCURVE",
"-112 -149 OFFCURVE",
"-120 -179 CURVE",
"-112 -185 LINE"
);
}
);
width = 0;
}
);
note = KasraYB;
},
{
glyphname = KasratanYB;
lastChange = "2017-06-19 19:10:36 +0000";
layers = (
{
layerId = "67C28EBA-5AA6-4F74-BBA1-5BB358529C60";
paths = (
{
closed = 1;
nodes = (
"-110 -185 OFFCURVE",
"-91 -173 OFFCURVE",
"-63 -158 CURVE SMOOTH",
"90 -74 LINE SMOOTH",
"121 -57 OFFCURVE",
"138 -35 OFFCURVE",
"150 1 CURVE",
"137 8 LINE",
"132 4 OFFCURVE",
"124 -1 OFFCURVE",
"113 -7 CURVE SMOOTH",
"62 -37 OFFCURVE",
"11 -64 OFFCURVE",
"-40 -93 CURVE SMOOTH",
"-108 -132 OFFCURVE",
"-124 -151 OFFCURVE",
"-133 -189 CURVE",
"-121 -197 LINE"
);
},
{
closed = 1;
nodes = (
"-120 -288 OFFCURVE",
"-101 -276 OFFCURVE",
"-73 -261 CURVE SMOOTH",
"80 -177 LINE SMOOTH",
"111 -160 OFFCURVE",
"128 -138 OFFCURVE",
"140 -102 CURVE",
"127 -95 LINE",
"122 -99 OFFCURVE",
"114 -104 OFFCURVE",
"103 -110 CURVE SMOOTH",
"51 -138 OFFCURVE",
"1 -167 OFFCURVE",
"-50 -196 CURVE SMOOTH",
"-118 -235 OFFCURVE",
"-134 -254 OFFCURVE",
"-143 -292 CURVE",
"-131 -300 LINE"
);
}
);
width = 0;
},
{
layerId = "0A5D7F3A-D11E-4113-AD15-39410F1DC5C2";
paths = (
{
closed = 1;
nodes = (
"-104 -175 OFFCURVE",
"-89 -164 OFFCURVE",
"-56 -146 CURVE SMOOTH",
"79 -73 LINE SMOOTH",
"108 -57 OFFCURVE",
"123 -36 OFFCURVE",
"134 -6 CURVE",
"125 -1 LINE",
"119 -5 OFFCURVE",
"104 -16 OFFCURVE",
"76 -31 CURVE SMOOTH",
"30 -56 OFFCURVE",
"-15 -79 OFFCURVE",
"-61 -108 CURVE SMOOTH",
"-95 -129 OFFCURVE",
"-112 -149 OFFCURVE",
"-120 -179 CURVE",
"-112 -185 LINE"
);
},
{
closed = 1;
nodes = (
"-117 -275 OFFCURVE",
"-102 -264 OFFCURVE",
"-69 -246 CURVE SMOOTH",
"66 -173 LINE SMOOTH",
"95 -157 OFFCURVE",
"110 -136 OFFCURVE",
"121 -106 CURVE",
"112 -101 LINE",
"106 -105 OFFCURVE",
"91 -116 OFFCURVE",
"63 -131 CURVE SMOOTH",
"17 -156 OFFCURVE",
"-28 -179 OFFCURVE",
"-74 -208 CURVE SMOOTH",
"-108 -229 OFFCURVE",
"-125 -249 OFFCURVE",
"-133 -279 CURVE",
"-125 -285 LINE"
);
}
);
width = 0;
}
);
note = KasratanYB;
},
{
glyphname = OneDotBelowYB;
lastChange = "2017-06-19 19:10:36 +0000";
layers = (
{
layerId = "67C28EBA-5AA6-4F74-BBA1-5BB358529C60";
paths = (
{
closed = 1;
nodes = (
"3 -196 LINE",
"49 -164 OFFCURVE",
"95 -124 OFFCURVE",
"95 -91 CURVE SMOOTH",
"95 -59 OFFCURVE",
"64 -34 OFFCURVE",
"9 1 CURVE",
"-1 1 LINE",
"-18 -10 OFFCURVE",
"-79 -77 OFFCURVE",
"-97 -105 CURVE",
"-97 -115 LINE",
"-68 -136 OFFCURVE",
"-48 -154 OFFCURVE",
"-5 -196 CURVE"
);
}
);
width = 0;
},
{
layerId = "0A5D7F3A-D11E-4113-AD15-39410F1DC5C2";
paths = (
{
closed = 1;
nodes = (
"4 -187 LINE",
"60 -147 OFFCURVE",
"87 -116 OFFCURVE",
"87 -92 CURVE SMOOTH",
"87 -66 OFFCURVE",
"61 -41 OFFCURVE",
"9 -8 CURVE",
"0 -8 LINE",
"-17 -19 OFFCURVE",
"-69 -78 OFFCURVE",
"-87 -104 CURVE",
"-87 -112 LINE",
"-60 -133 OFFCURVE",
"-32 -158 OFFCURVE",
"-4 -187 CURVE"
);
}
);
width = 0;
}
);
note = OneDotBelowYB;
},
{
glyphname = ThreeDotsDownBelowYB;
lastChange = "2017-06-19 19:10:36 +0000";
layers = (
{
layerId = "67C28EBA-5AA6-4F74-BBA1-5BB358529C60";
paths = (
{
closed = 1;
nodes = (
"-72 -207 LINE",
"-35 -180 OFFCURVE",
"-8 -154 OFFCURVE",
"6 -133 CURVE",
"53 -173 OFFCURVE",
"60 -180 OFFCURVE",
"68 -189 CURVE",
"76 -189 LINE",
"122 -157 OFFCURVE",
"168 -117 OFFCURVE",
"168 -84 CURVE SMOOTH",
"168 -52 OFFCURVE",
"137 -27 OFFCURVE",
"82 8 CURVE",
"72 8 LINE",
"61 1 OFFCURVE",
"32 -29 OFFCURVE",
"2 -63 CURVE",
"-11 -49 OFFCURVE",
"-32 -32 OFFCURVE",
"-66 -10 CURVE",
"-76 -10 LINE",
"-93 -21 OFFCURVE",
"-154 -88 OFFCURVE",
"-172 -116 CURVE",
"-172 -126 LINE",
"-143 -147 OFFCURVE",
"-132 -157 OFFCURVE",
"-80 -207 CURVE"
);
},
{
closed = 1;
nodes = (
"4 -343 LINE",
"56 -304 OFFCURVE",
"82 -280 OFFCURVE",
"82 -256 CURVE SMOOTH",
"82 -229 OFFCURVE",
"43 -198 OFFCURVE",
"11 -176 CURVE",
"3 -176 LINE",
"-20 -193 OFFCURVE",
"-62 -233 OFFCURVE",
"-83 -264 CURVE",
"-83 -272 LINE",
"-57 -292 OFFCURVE",
"-31 -317 OFFCURVE",
"-5 -343 CURVE"
);
}
);
width = 0;
},
{
layerId = "0A5D7F3A-D11E-4113-AD15-39410F1DC5C2";
paths = (
{
closed = 1;
nodes = (
"-70 -198 LINE",
"-28 -168 OFFCURVE",
"-2 -142 OFFCURVE",
"7 -121 CURVE",
"27 -137 OFFCURVE",
"48 -156 OFFCURVE",
"71 -179 CURVE",
"80 -179 LINE",
"133 -141 OFFCURVE",
"160 -109 OFFCURVE",
"160 -84 CURVE SMOOTH",
"160 -57 OFFCURVE",
"134 -33 OFFCURVE",
"82 0 CURVE",
"73 0 LINE",
"61 -7 OFFCURVE",
"25 -45 OFFCURVE",
"2 -74 CURVE",
"-10 -57 OFFCURVE",
"-33 -40 OFFCURVE",
"-66 -19 CURVE",
"-75 -19 LINE",
"-90 -28 OFFCURVE",
"-144 -88 OFFCURVE",
"-162 -114 CURVE",
"-162 -123 LINE",
"-135 -144 OFFCURVE",
"-108 -169 OFFCURVE",
"-79 -198 CURVE"
);
},
{
closed = 1;
nodes = (
"5 -342 LINE",
"66 -297 OFFCURVE",
"83 -275 OFFCURVE",
"83 -255 CURVE SMOOTH",
"83 -234 OFFCURVE",
"60 -208 OFFCURVE",
"12 -175 CURVE",
"4 -175 LINE",
"-6 -181 OFFCURVE",
"-53 -224 OFFCURVE",
"-82 -263 CURVE",
"-82 -271 LINE",
"-74 -276 OFFCURVE",
"-20 -323 OFFCURVE",
"-3 -342 CURVE"
);
}
);
width = 0;
}
);
note = ThreeDotsDownBelowYB;
},
{
glyphname = TwoDotsBelowYB;
lastChange = "2017-06-19 19:10:36 +0000";
layers = (
{
layerId = "67C28EBA-5AA6-4F74-BBA1-5BB358529C60";
paths = (
{
closed = 1;
nodes = (
"-70 -207 LINE",
"-33 -182 OFFCURVE",
"-5 -157 OFFCURVE",
"10 -134 CURVE",
"26 -147 OFFCURVE",
"42 -162 OFFCURVE",
"70 -189 CURVE",
"78 -189 LINE",
"124 -157 OFFCURVE",
"170 -117 OFFCURVE",
"170 -84 CURVE SMOOTH",
"170 -52 OFFCURVE",
"139 -27 OFFCURVE",
"84 8 CURVE",
"74 8 LINE",
"62 0 OFFCURVE",
"32 -31 OFFCURVE",
"4 -64 CURVE",
"-9 -49 OFFCURVE",
"-30 -32 OFFCURVE",
"-64 -10 CURVE",
"-74 -10 LINE",
"-91 -21 OFFCURVE",
"-152 -88 OFFCURVE",
"-170 -116 CURVE",
"-170 -126 LINE",
"-141 -147 OFFCURVE",
"-132 -155 OFFCURVE",
"-78 -207 CURVE"
);
}
);
width = 0;
},
{
layerId = "0A5D7F3A-D11E-4113-AD15-39410F1DC5C2";
paths = (
{
closed = 1;
nodes = (
"-68 -198 LINE",
"-26 -168 OFFCURVE",
"0 -142 OFFCURVE",
"9 -121 CURVE",
"29 -137 OFFCURVE",
"50 -156 OFFCURVE",
"73 -179 CURVE",
"82 -179 LINE",
"135 -141 OFFCURVE",
"162 -109 OFFCURVE",
"162 -84 CURVE SMOOTH",
"162 -57 OFFCURVE",
"136 -33 OFFCURVE",
"83 0 CURVE",
"75 0 LINE",
"63 -7 OFFCURVE",
"28 -45 OFFCURVE",
"4 -74 CURVE",
"-8 -56 OFFCURVE",
"-31 -39 OFFCURVE",
"-64 -19 CURVE",
"-73 -19 LINE",
"-89 -28 OFFCURVE",
"-143 -89 OFFCURVE",
"-160 -114 CURVE",
"-160 -123 LINE",
"-134 -144 OFFCURVE",
"-106 -169 OFFCURVE",
"-77 -198 CURVE"
);
}
);
width = 0;
}
);
note = TwoDotsBelowYB;
},
{
glyphname = HehCommaNS;
lastChange = "2017-06-19 19:10:36 +0000";
layers = (
{
layerId = "67C28EBA-5AA6-4F74-BBA1-5BB358529C60";
paths = (
{
closed = 1;
nodes = (
"236 -510 OFFCURVE",
"277 -438 OFFCURVE",
"277 -376 CURVE SMOOTH",
"277 -335 OFFCURVE",
"266 -304 OFFCURVE",
"232 -304 CURVE SMOOTH",
"226 -304 OFFCURVE",
"222 -305 OFFCURVE",
"217 -308 CURVE",
"189 -366 LINE",
"172 -361 OFFCURVE",
"165 -337 OFFCURVE",
"165 -304 CURVE SMOOTH",
"165 -257 OFFCURVE",
"178 -197 OFFCURVE",
"191 -167 CURVE",
"157 -158 LINE",
"117 -236 OFFCURVE",
"85 -340 OFFCURVE",
"85 -408 CURVE SMOOTH",
"85 -475 OFFCURVE",
"117 -510 OFFCURVE",
"166 -510 CURVE SMOOTH"
);
}
);
width = 0;
},
{
layerId = "0A5D7F3A-D11E-4113-AD15-39410F1DC5C2";
paths = (
{
closed = 1;
nodes = (
"210 -463 OFFCURVE",
"235 -401 OFFCURVE",
"235 -367 CURVE SMOOTH",
"235 -336 OFFCURVE",
"223 -321 OFFCURVE",
"199 -321 CURVE SMOOTH",
"194 -321 OFFCURVE",
"190 -322 OFFCURVE",
"187 -325 CURVE",
"166 -361 LINE",
"157 -358 OFFCURVE",
"153 -343 OFFCURVE",
"153 -316 CURVE SMOOTH",
"153 -267 OFFCURVE",
"172 -201 OFFCURVE",
"187 -168 CURVE",
"157 -158 LINE",
"125 -225 OFFCURVE",
"93 -327 OFFCURVE",
"93 -382 CURVE SMOOTH",
"93 -425 OFFCURVE",
"111 -463 OFFCURVE",
"151 -463 CURVE SMOOTH"
);
}
);
width = 0;
}
);
note = HehCommaNS;
},
{
glyphname = HehCommaAltNS;
lastChange = "2017-06-19 19:10:36 +0000";
layers = (
{
layerId = "67C28EBA-5AA6-4F74-BBA1-5BB358529C60";
paths = (
{
closed = 1;
nodes = (
"236 -510 OFFCURVE",
"277 -438 OFFCURVE",
"277 -376 CURVE SMOOTH",
"277 -335 OFFCURVE",
"266 -304 OFFCURVE",
"232 -304 CURVE SMOOTH",
"226 -304 OFFCURVE",
"222 -305 OFFCURVE",
"217 -308 CURVE",
"189 -366 LINE",
"172 -361 OFFCURVE",
"165 -337 OFFCURVE",
"165 -304 CURVE SMOOTH",
"165 -257 OFFCURVE",
"178 -197 OFFCURVE",
"191 -167 CURVE",
"157 -158 LINE",
"117 -236 OFFCURVE",
"85 -340 OFFCURVE",
"85 -408 CURVE SMOOTH",
"85 -475 OFFCURVE",
"117 -510 OFFCURVE",
"166 -510 CURVE SMOOTH"
);
}
);
width = 0;
},
{
layerId = "0A5D7F3A-D11E-4113-AD15-39410F1DC5C2";
paths = (
{
closed = 1;
nodes = (
"210 -463 OFFCURVE",
"235 -401 OFFCURVE",
"235 -367 CURVE SMOOTH",
"235 -336 OFFCURVE",
"223 -321 OFFCURVE",
"199 -321 CURVE SMOOTH",
"194 -321 OFFCURVE",
"190 -322 OFFCURVE",
"187 -325 CURVE",
"166 -361 LINE",
"157 -358 OFFCURVE",
"153 -343 OFFCURVE",
"153 -316 CURVE SMOOTH",
"153 -267 OFFCURVE",
"172 -201 OFFCURVE",
"187 -168 CURVE",
"157 -158 LINE",
"125 -225 OFFCURVE",
"93 -327 OFFCURVE",
"93 -382 CURVE SMOOTH",
"93 -425 OFFCURVE",
"111 -463 OFFCURVE",
"151 -463 CURVE SMOOTH"
);
}
);
width = 0;
}
);
note = HehCommaAltNS;
},
{
glyphname = HehCommaYB;
lastChange = "2017-06-19 19:10:36 +0000";
layers = (
{
layerId = "67C28EBA-5AA6-4F74-BBA1-5BB358529C60";
paths = (
{
closed = 1;
nodes = (
"236 -510 OFFCURVE",
"277 -438 OFFCURVE",
"277 -376 CURVE SMOOTH",
"277 -335 OFFCURVE",
"266 -304 OFFCURVE",
"232 -304 CURVE SMOOTH",
"226 -304 OFFCURVE",
"222 -305 OFFCURVE",
"217 -308 CURVE",
"189 -366 LINE",
"172 -361 OFFCURVE",
"165 -337 OFFCURVE",
"165 -304 CURVE SMOOTH",
"165 -257 OFFCURVE",
"178 -197 OFFCURVE",
"191 -167 CURVE",
"157 -158 LINE",
"117 -236 OFFCURVE",
"85 -340 OFFCURVE",
"85 -408 CURVE SMOOTH",
"85 -475 OFFCURVE",
"117 -510 OFFCURVE",
"166 -510 CURVE SMOOTH"
);
}
);
width = 0;
},
{
layerId = "0A5D7F3A-D11E-4113-AD15-39410F1DC5C2";
paths = (
{
closed = 1;
nodes = (
"210 -463 OFFCURVE",
"235 -401 OFFCURVE",
"235 -367 CURVE SMOOTH",
"235 -336 OFFCURVE",
"223 -321 OFFCURVE",
"199 -321 CURVE SMOOTH",
"194 -321 OFFCURVE",
"190 -322 OFFCURVE",
"187 -325 CURVE",
"166 -361 LINE",
"157 -358 OFFCURVE",
"153 -343 OFFCURVE",
"153 -316 CURVE SMOOTH",
"153 -267 OFFCURVE",
"172 -201 OFFCURVE",
"187 -168 CURVE",
"157 -158 LINE",
"125 -225 OFFCURVE",
"93 -327 OFFCURVE",
"93 -382 CURVE SMOOTH",
"93 -425 OFFCURVE",
"111 -463 OFFCURVE",
"151 -463 CURVE SMOOTH"
);
}
);
width = 0;
}
);
note = HehCommaYB;
},
{
glyphname = FourDotsBelowYB;
lastChange = "2017-06-19 19:10:36 +0000";
layers = (
{
layerId = "67C28EBA-5AA6-4F74-BBA1-5BB358529C60";
paths = (
{
closed = 1;
nodes = (
"83 -316 LINE",
"104 -301 OFFCURVE",
"133 -280 OFFCURVE",
"149 -256 CURVE",
"172 -276 OFFCURVE",
"177 -279 OFFCURVE",
"199 -301 CURVE",
"206 -301 LINE",
"245 -275 OFFCURVE",
"282 -241 OFFCURVE",
"282 -214 CURVE SMOOTH",
"282 -194 OFFCURVE",
"268 -178 OFFCURVE",
"231 -151 CURVE",
"252 -133 OFFCURVE",
"278 -109 OFFCURVE",
"278 -85 CURVE SMOOTH",
"278 -58 OFFCURVE",
"252 -38 OFFCURVE",
"207 -9 CURVE",
"198 -9 LINE",
"190 -16 OFFCURVE",
"163 -42 OFFCURVE",
"140 -69 CURVE",
"130 -55 OFFCURVE",
"113 -43 OFFCURVE",
"84 -24 CURVE",
"76 -24 LINE",
"54 -42 OFFCURVE",
"13 -86 OFFCURVE",
"-4 -112 CURVE",
"-4 -120 LINE",
"19 -136 OFFCURVE",
"27 -144 OFFCURVE",
"58 -173 CURVE",
"35 -196 OFFCURVE",
"19 -214 OFFCURVE",
"0 -241 CURVE",
"0 -249 LINE",
"25 -268 OFFCURVE",
"51 -290 OFFCURVE",
"76 -316 CURVE"
);
},
{
closed = 1;
nodes = (
"134 -194 OFFCURVE",
"115 -179 OFFCURVE",
"99 -166 CURVE",
"119 -151 OFFCURVE",
"134 -135 OFFCURVE",
"145 -119 CURVE",
"188 -158 LINE",
"161 -186 OFFCURVE",
"152 -196 OFFCURVE",
"144 -206 CURVE"
);
}
);
width = 0;
},
{
layerId = "0A5D7F3A-D11E-4113-AD15-39410F1DC5C2";
paths = (
{
closed = 1;
nodes = (
"70 -318 LINE",
"100 -296 OFFCURVE",
"128 -273 OFFCURVE",
"132 -252 CURVE",
"137 -256 OFFCURVE",
"154 -271 OFFCURVE",
"188 -302 CURVE",
"195 -302 LINE",
"221 -283 OFFCURVE",
"255 -252 OFFCURVE",
"255 -229 CURVE SMOOTH",
"255 -210 OFFCURVE",
"240 -193 OFFCURVE",
"202 -169 CURVE",
"238 -139 OFFCURVE",
"251 -119 OFFCURVE",
"251 -104 CURVE SMOOTH",
"251 -86 OFFCURVE",
"239 -70 OFFCURVE",
"190 -40 CURVE",
"184 -40 LINE",
"174 -45 OFFCURVE",
"136 -86 OFFCURVE",
"125 -103 CURVE",
"117 -90 OFFCURVE",
"102 -78 OFFCURVE",
"68 -55 CURVE",
"62 -55 LINE",
"53 -60 OFFCURVE",
"16 -100 OFFCURVE",
"-5 -130 CURVE",
"-5 -136 LINE",
"19 -154 OFFCURVE",
"38 -172 OFFCURVE",
"55 -190 CURVE",
"29 -217 OFFCURVE",
"13 -235 OFFCURVE",
"0 -254 CURVE",
"0 -260 LINE",
"26 -281 OFFCURVE",
"46 -300 OFFCURVE",
"63 -318 CURVE"
);
},
{
closed = 1;
nodes = (
"124 -216 OFFCURVE",
"113 -206 OFFCURVE",
"79 -184 CURVE",
"114 -155 OFFCURVE",
"125 -143 OFFCURVE",
"127 -129 CURVE",
"140 -139 OFFCURVE",
"153 -149 OFFCURVE",
"178 -173 CURVE",
"152 -200 OFFCURVE",
"142 -211 OFFCURVE",
"129 -235 CURVE"
);
}
);
width = 0;
}
);
note = FourDotsBelowYB;
},
{
glyphname = WavyHamzaBelowYB;
lastChange = "2017-06-19 19:10:36 +0000";
layers = (
{
layerId = "67C28EBA-5AA6-4F74-BBA1-5BB358529C60";
paths = (
{
closed = 1;
nodes = (
"-141 -338 LINE",
"-133 -310 OFFCURVE",
"-113 -288 OFFCURVE",
"-66 -288 CURVE SMOOTH",
"-21 -288 OFFCURVE",
"23 -275 OFFCURVE",
"65 -256 CURVE SMOOTH",
"107 -237 OFFCURVE",
"136 -205 OFFCURVE",
"151 -163 CURVE",
"137 -154 LINE",
"116 -174 OFFCURVE",
"78 -200 OFFCURVE",
"52 -200 CURVE SMOOTH",
"17 -200 OFFCURVE",
"-7 -184 OFFCURVE",
"-7 -160 CURVE SMOOTH",
"-7 -135 OFFCURVE",
"16 -116 OFFCURVE",
"45 -116 CURVE SMOOTH",
"59 -116 OFFCURVE",
"75 -123 OFFCURVE",
"83 -135 CURVE",
"91 -135 LINE",
"99 -129 OFFCURVE",
"109 -119 OFFCURVE",
"109 -100 CURVE SMOOTH",
"109 -77 OFFCURVE",
"89 -68 OFFCURVE",
"64 -68 CURVE SMOOTH",
"11 -68 OFFCURVE",
"-75 -153 OFFCURVE",
"-75 -206 CURVE SMOOTH",
"-75 -217 OFFCURVE",
"-72 -227 OFFCURVE",
"-67 -234 CURVE",
"-68 -237 LINE",
"-72 -237 LINE SMOOTH",
"-132 -237 OFFCURVE",
"-159 -266 OFFCURVE",
"-159 -317 CURVE SMOOTH",
"-159 -325 OFFCURVE",
"-158 -330 OFFCURVE",
"-157 -338 CURVE"
);
}
);
width = 0;
},
{
layerId = "0A5D7F3A-D11E-4113-AD15-39410F1DC5C2";
paths = (
{
closed = 1;
nodes = (
"-147 -331 LINE",
"-139 -299 OFFCURVE",
"-111 -283 OFFCURVE",
"-66 -281 CURVE SMOOTH",
"10 -278 OFFCURVE",
"106 -252 OFFCURVE",
"138 -163 CURVE",
"129 -157 LINE",
"102 -184 OFFCURVE",
"71 -200 OFFCURVE",
"52 -200 CURVE SMOOTH",
"14 -200 OFFCURVE",
"-11 -182 OFFCURVE",
"-11 -158 CURVE SMOOTH",
"-11 -132 OFFCURVE",
"20 -118 OFFCURVE",
"42 -118 CURVE SMOOTH",
"55 -118 OFFCURVE",
"66 -123 OFFCURVE",
"76 -132 CURVE",
"80 -132 LINE",
"88 -128 OFFCURVE",
"96 -118 OFFCURVE",
"96 -104 CURVE SMOOTH",
"96 -83 OFFCURVE",
"76 -77 OFFCURVE",
"59 -77 CURVE SMOOTH",
"11 -77 OFFCURVE",
"-65 -151 OFFCURVE",
"-65 -201 CURVE SMOOTH",
"-65 -220 OFFCURVE",
"-58 -227 OFFCURVE",
"-50 -233 CURVE",
"-51 -236 LINE",
"-64 -236 LINE SMOOTH",
"-139 -236 OFFCURVE",
"-159 -271 OFFCURVE",
"-159 -317 CURVE SMOOTH",
"-159 -323 OFFCURVE",
"-159 -325 OFFCURVE",
"-158 -331 CURVE"
);
}
);
width = 0;
}
);
note = WavyHamzaBelowYB;
},
{
glyphname = WavyHamzaBelowNS;
lastChange = "2017-06-19 19:10:36 +0000";
layers = (
{
layerId = "67C28EBA-5AA6-4F74-BBA1-5BB358529C60";
paths = (
{
closed = 1;
nodes = (
"-141 -338 LINE",
"-133 -310 OFFCURVE",
"-113 -288 OFFCURVE",
"-66 -288 CURVE SMOOTH",
"-21 -288 OFFCURVE",
"23 -275 OFFCURVE",
"65 -256 CURVE SMOOTH",
"107 -237 OFFCURVE",
"136 -205 OFFCURVE",
"151 -163 CURVE",
"137 -154 LINE",
"116 -174 OFFCURVE",
"78 -200 OFFCURVE",
"52 -200 CURVE SMOOTH",
"17 -200 OFFCURVE",
"-7 -184 OFFCURVE",
"-7 -160 CURVE SMOOTH",
"-7 -135 OFFCURVE",
"16 -116 OFFCURVE",
"45 -116 CURVE SMOOTH",
"59 -116 OFFCURVE",
"75 -123 OFFCURVE",
"83 -135 CURVE",
"91 -135 LINE",
"99 -129 OFFCURVE",
"109 -119 OFFCURVE",
"109 -100 CURVE SMOOTH",
"109 -77 OFFCURVE",
"89 -68 OFFCURVE",
"64 -68 CURVE SMOOTH",
"11 -68 OFFCURVE",
"-75 -153 OFFCURVE",
"-75 -206 CURVE SMOOTH",
"-75 -217 OFFCURVE",
"-72 -227 OFFCURVE",
"-67 -234 CURVE",
"-68 -237 LINE",
"-72 -237 LINE SMOOTH",
"-132 -237 OFFCURVE",
"-159 -266 OFFCURVE",
"-159 -317 CURVE SMOOTH",
"-159 -325 OFFCURVE",
"-158 -330 OFFCURVE",
"-157 -338 CURVE"
);
}
);
width = 0;
},
{
layerId = "0A5D7F3A-D11E-4113-AD15-39410F1DC5C2";
paths = (
{
closed = 1;
nodes = (
"-147 -331 LINE",
"-139 -299 OFFCURVE",
"-111 -283 OFFCURVE",
"-66 -281 CURVE SMOOTH",
"10 -278 OFFCURVE",
"106 -252 OFFCURVE",
"138 -163 CURVE",
"129 -157 LINE",
"102 -184 OFFCURVE",
"71 -200 OFFCURVE",
"52 -200 CURVE SMOOTH",
"14 -200 OFFCURVE",
"-11 -182 OFFCURVE",
"-11 -158 CURVE SMOOTH",
"-11 -132 OFFCURVE",
"20 -118 OFFCURVE",
"42 -118 CURVE SMOOTH",
"55 -118 OFFCURVE",
"66 -123 OFFCURVE",
"76 -132 CURVE",
"80 -132 LINE",
"88 -128 OFFCURVE",
"96 -118 OFFCURVE",
"96 -104 CURVE SMOOTH",
"96 -83 OFFCURVE",
"76 -77 OFFCURVE",
"59 -77 CURVE SMOOTH",
"11 -77 OFFCURVE",
"-65 -151 OFFCURVE",
"-65 -201 CURVE SMOOTH",
"-65 -220 OFFCURVE",
"-58 -227 OFFCURVE",
"-50 -233 CURVE",
"-51 -236 LINE",
"-64 -236 LINE SMOOTH",
"-139 -236 OFFCURVE",
"-159 -271 OFFCURVE",
"-159 -317 CURVE SMOOTH",
"-159 -323 OFFCURVE",
"-159 -325 OFFCURVE",
"-158 -331 CURVE"
);
}
);
width = 0;
}
);
note = WavyHamzaBelowNS;
unicode = 065F;
},
{
glyphname = Small4UrduBelowYB;
lastChange = "2017-06-19 19:10:36 +0000";
layers = (
{
layerId = "67C28EBA-5AA6-4F74-BBA1-5BB358529C60";
paths = (
{
closed = 1;
nodes = (
"9 -308 OFFCURVE",
"10 -279 OFFCURVE",
"10 -260 CURVE SMOOTH",
"10 -224 OFFCURVE",
"-2 -168 OFFCURVE",
"-2 -162 CURVE SMOOTH",
"-2 -153 OFFCURVE",
"2 -149 OFFCURVE",
"10 -149 CURVE SMOOTH",
"32 -149 OFFCURVE",
"54 -199 OFFCURVE",
"60 -223 CURVE",
"73 -223 LINE",
"88 -195 OFFCURVE",
"102 -173 OFFCURVE",
"117 -157 CURVE",
"123 -137 OFFCURVE",
"128 -117 OFFCURVE",
"134 -96 CURVE SMOOTH",
"136 -88 OFFCURVE",
"138 -84 OFFCURVE",
"138 -80 CURVE",
"130 -76 LINE",
"115 -90 OFFCURVE",
"108 -102 OFFCURVE",
"89 -141 CURVE",
"85 -141 LINE",
"76 -111 OFFCURVE",
"62 -86 OFFCURVE",
"28 -86 CURVE SMOOTH",
"-11 -86 OFFCURVE",
"-30 -139 OFFCURVE",
"-30 -171 CURVE SMOOTH",
"-30 -182 OFFCURVE",
"-26 -201 OFFCURVE",
"-20 -228 CURVE SMOOTH",
"-14 -257 OFFCURVE",
"-11 -284 OFFCURVE",
"-11 -312 CURVE SMOOTH",
"-11 -321 LINE",
"4 -322 LINE"
);
}
);
width = 0;
},
{
layerId = "0A5D7F3A-D11E-4113-AD15-39410F1DC5C2";
paths = (
{
closed = 1;
nodes = (
"10 -312 OFFCURVE",
"12 -288 OFFCURVE",
"12 -263 CURVE SMOOTH",
"12 -237 OFFCURVE",
"11 -218 OFFCURVE",
"7 -194 CURVE SMOOTH",
"4 -174 OFFCURVE",
"1 -166 OFFCURVE",
"0 -143 CURVE",
"0 -134 OFFCURVE",
"5 -129 OFFCURVE",
"15 -129 CURVE SMOOTH",
"32 -129 OFFCURVE",
"47 -154 OFFCURVE",
"57 -198 CURVE",
"67 -198 LINE",
"80 -170 OFFCURVE",
"98 -149 OFFCURVE",
"113 -133 CURVE",
"119 -119 OFFCURVE",
"122 -112 OFFCURVE",
"131 -83 CURVE",
"121 -78 LINE",
"105 -93 OFFCURVE",
"93 -111 OFFCURVE",
"80 -134 CURVE",
"77 -134 LINE",
"67 -100 OFFCURVE",
"49 -87 OFFCURVE",
"28 -87 CURVE SMOOTH",
"-12 -87 OFFCURVE",
"-28 -137 OFFCURVE",
"-28 -167 CURVE SMOOTH",
"-28 -180 OFFCURVE",
"-26 -199 OFFCURVE",
"-20 -233 CURVE SMOOTH",
"-14 -266 OFFCURVE",
"-11 -292 OFFCURVE",
"-11 -314 CURVE SMOOTH",
"-11 -325 LINE",
"2 -326 LINE"
);
}
);
width = 0;
}
);
note = Small4UrduBelowYB;
},
{
glyphname = Small4UrduAboveNS;
lastChange = "2017-06-19 19:10:36 +0000";
layers = (
{
layerId = "67C28EBA-5AA6-4F74-BBA1-5BB358529C60";
paths = (
{
closed = 1;
nodes = (
"9 483 OFFCURVE",
"10 512 OFFCURVE",
"10 531 CURVE SMOOTH",
"10 567 OFFCURVE",
"-2 623 OFFCURVE",
"-2 629 CURVE SMOOTH",
"-2 638 OFFCURVE",
"2 642 OFFCURVE",
"10 642 CURVE SMOOTH",
"32 642 OFFCURVE",
"54 592 OFFCURVE",
"60 568 CURVE",
"73 568 LINE",
"88 596 OFFCURVE",
"102 618 OFFCURVE",
"117 634 CURVE",
"123 654 OFFCURVE",
"129 674 OFFCURVE",
"134 695 CURVE SMOOTH",
"136 703 OFFCURVE",
"138 707 OFFCURVE",
"138 711 CURVE",
"130 715 LINE",
"115 701 OFFCURVE",
"108 689 OFFCURVE",
"89 650 CURVE",
"85 650 LINE",
"76 680 OFFCURVE",
"62 705 OFFCURVE",
"28 705 CURVE SMOOTH",
"-11 705 OFFCURVE",
"-30 652 OFFCURVE",
"-30 620 CURVE SMOOTH",
"-30 609 OFFCURVE",
"-26 590 OFFCURVE",
"-20 563 CURVE SMOOTH",
"-14 534 OFFCURVE",
"-11 507 OFFCURVE",
"-11 479 CURVE SMOOTH",
"-11 470 LINE",
"4 469 LINE"
);
}
);
width = 0;
},
{
layerId = "0A5D7F3A-D11E-4113-AD15-39410F1DC5C2";
paths = (
{
closed = 1;
nodes = (
"10 479 OFFCURVE",
"12 503 OFFCURVE",
"12 528 CURVE SMOOTH",
"12 554 OFFCURVE",
"11 573 OFFCURVE",
"7 597 CURVE SMOOTH",
"4 617 OFFCURVE",
"0 625 OFFCURVE",
"0 648 CURVE SMOOTH",
"0 657 OFFCURVE",
"5 662 OFFCURVE",
"15 662 CURVE SMOOTH",
"32 662 OFFCURVE",
"47 637 OFFCURVE",
"57 593 CURVE",
"67 593 LINE",
"80 621 OFFCURVE",
"98 642 OFFCURVE",
"113 658 CURVE",
"119 672 OFFCURVE",
"122 679 OFFCURVE",
"131 708 CURVE",
"121 713 LINE",
"105 698 OFFCURVE",
"93 680 OFFCURVE",
"80 657 CURVE",
"77 657 LINE",
"67 691 OFFCURVE",
"49 704 OFFCURVE",
"28 704 CURVE SMOOTH",
"-12 704 OFFCURVE",
"-28 654 OFFCURVE",
"-28 624 CURVE SMOOTH",
"-28 611 OFFCURVE",
"-26 592 OFFCURVE",
"-20 558 CURVE SMOOTH",
"-14 525 OFFCURVE",
"-11 499 OFFCURVE",
"-11 477 CURVE SMOOTH",
"-11 466 LINE",
"2 465 LINE"
);
}
);
width = 0;
}
);
note = Small4UrduAboveNS;
},
{
glyphname = TwoDotsVertBelowYB;
lastChange = "2017-06-19 19:10:36 +0000";
layers = (
{
layerId = "67C28EBA-5AA6-4F74-BBA1-5BB358529C60";
paths = (
{
closed = 1;
nodes = (
"118 -350 LINE",
"169 -316 OFFCURVE",
"209 -274 OFFCURVE",
"209 -245 CURVE SMOOTH",
"209 -223 OFFCURVE",
"192 -203 OFFCURVE",
"155 -174 CURVE",
"187 -146 OFFCURVE",
"207 -120 OFFCURVE",
"207 -99 CURVE SMOOTH",
"207 -66 OFFCURVE",
"172 -39 OFFCURVE",
"121 -7 CURVE",
"111 -7 LINE",
"94 -18 OFFCURVE",
"33 -85 OFFCURVE",
"15 -113 CURVE",
"15 -123 LINE",
"34 -137 OFFCURVE",
"46 -147 OFFCURVE",
"83 -181 CURVE",
"59 -205 OFFCURVE",
"36 -233 OFFCURVE",
"17 -259 CURVE",
"17 -269 LINE",
"46 -290 OFFCURVE",
"55 -298 OFFCURVE",
"109 -350 CURVE"
);
}
);
width = 0;
},
{
layerId = "0A5D7F3A-D11E-4113-AD15-39410F1DC5C2";
paths = (
{
closed = 1;
nodes = (
"121 -342 LINE",
"166 -309 OFFCURVE",
"200 -272 OFFCURVE",
"200 -247 CURVE SMOOTH",
"200 -226 OFFCURVE",
"184 -205 OFFCURVE",
"142 -175 CURVE",
"179 -144 OFFCURVE",
"198 -121 OFFCURVE",
"198 -100 CURVE SMOOTH",
"198 -74 OFFCURVE",
"176 -51 OFFCURVE",
"120 -16 CURVE",
"111 -16 LINE",
"98 -24 OFFCURVE",
"42 -83 OFFCURVE",
"24 -112 CURVE",
"24 -121 LINE",
"41 -134 OFFCURVE",
"72 -161 OFFCURVE",
"92 -181 CURVE",
"72 -202 OFFCURVE",
"44 -231 OFFCURVE",
"26 -258 CURVE",
"26 -267 LINE",
"57 -291 OFFCURVE",
"78 -309 OFFCURVE",
"112 -342 CURVE"
);
}
);
width = 0;
}
);
note = TwoDotsVertBelowYB;
},
{
glyphname = HamzaBelowAF_YB;
lastChange = "2017-06-19 19:10:36 +0000";
layers = (
{
layerId = "67C28EBA-5AA6-4F74-BBA1-5BB358529C60";
paths = (
{
closed = 1;
nodes = (
"-79 -317 OFFCURVE",
"-42 -296 OFFCURVE",
"4 -275 CURVE SMOOTH",
"93 -234 OFFCURVE",
"125 -220 OFFCURVE",
"145 -160 CURVE",
"131 -151 LINE",
"104 -176 OFFCURVE",
"67 -197 OFFCURVE",
"46 -197 CURVE SMOOTH",
"11 -197 OFFCURVE",
"-13 -181 OFFCURVE",
"-13 -157 CURVE SMOOTH",
"-13 -132 OFFCURVE",
"10 -113 OFFCURVE",
"39 -113 CURVE SMOOTH",
"53 -113 OFFCURVE",
"69 -120 OFFCURVE",
"77 -132 CURVE",
"85 -132 LINE",
"93 -126 OFFCURVE",
"103 -116 OFFCURVE",
"103 -97 CURVE SMOOTH",
"103 -74 OFFCURVE",
"83 -65 OFFCURVE",
"58 -65 CURVE SMOOTH",
"5 -65 OFFCURVE",
"-81 -150 OFFCURVE",
"-81 -203 CURVE SMOOTH",
"-81 -225 OFFCURVE",
"-68 -241 OFFCURVE",
"-57 -248 CURVE",
"-58 -252 LINE",
"-82 -266 OFFCURVE",
"-108 -291 OFFCURVE",
"-119 -327 CURVE",
"-107 -338 LINE"
);
}
);
width = 0;
},
{
layerId = "0A5D7F3A-D11E-4113-AD15-39410F1DC5C2";
paths = (
{
closed = 1;
nodes = (
"-66 -304 OFFCURVE",
"-31 -284 OFFCURVE",
"9 -266 CURVE SMOOTH",
"99 -226 OFFCURVE",
"116 -212 OFFCURVE",
"133 -164 CURVE",
"124 -158 LINE",
"106 -176 OFFCURVE",
"72 -200 OFFCURVE",
"46 -200 CURVE SMOOTH",
"8 -200 OFFCURVE",
"-16 -183 OFFCURVE",
"-16 -159 CURVE SMOOTH",
"-16 -133 OFFCURVE",
"14 -119 OFFCURVE",
"36 -119 CURVE SMOOTH",
"49 -119 OFFCURVE",
"61 -124 OFFCURVE",
"70 -133 CURVE",
"75 -133 LINE",
"82 -130 OFFCURVE",
"90 -120 OFFCURVE",
"90 -105 CURVE SMOOTH",
"90 -84 OFFCURVE",
"70 -77 OFFCURVE",
"54 -77 CURVE SMOOTH",
"6 -77 OFFCURVE",
"-70 -151 OFFCURVE",
"-70 -202 CURVE SMOOTH",
"-70 -215 OFFCURVE",
"-67 -225 OFFCURVE",
"-61 -231 CURVE",
"-54 -237 OFFCURVE",
"-50 -242 OFFCURVE",
"-47 -246 CURVE",
"-48 -250 LINE",
"-63 -258 OFFCURVE",
"-93 -284 OFFCURVE",
"-103 -319 CURVE",
"-96 -325 LINE"
);
}
);
width = 0;
}
);
note = HamzaBelowAF_YB;
},
{
glyphname = Tah2DotsBelowYB;
lastChange = "2017-06-19 19:10:36 +0000";
layers = (
{
layerId = "67C28EBA-5AA6-4F74-BBA1-5BB358529C60";
paths = (
{
closed = 1;
nodes = (
"43 -257 OFFCURVE",
"81 -200 OFFCURVE",
"81 -166 CURVE SMOOTH",
"81 -150 OFFCURVE",
"73 -142 OFFCURVE",
"58 -142 CURVE SMOOTH",
"35 -142 OFFCURVE",
"15 -155 OFFCURVE",
"-3 -178 CURVE",
"3 -160 OFFCURVE",
"5 -144 OFFCURVE",
"5 -134 CURVE",
"6 -114 OFFCURVE",
"8 -93 OFFCURVE",
"10 -73 CURVE SMOOTH",
"11 -60 OFFCURVE",
"13 -50 OFFCURVE",
"15 -45 CURVE",
"5 -43 LINE",
"-10 -71 OFFCURVE",
"-16 -82 OFFCURVE",
"-18 -122 CURVE SMOOTH",
"-22 -186 LINE SMOOTH",
"-23 -204 OFFCURVE",
"-26 -212 OFFCURVE",
"-48 -234 CURVE",
"-57 -237 OFFCURVE",
"-68 -239 OFFCURVE",
"-87 -241 CURVE",
"-88 -253 LINE",
"-73 -255 OFFCURVE",
"-51 -257 OFFCURVE",
"-26 -257 CURVE SMOOTH"
);
},
{
closed = 1;
nodes = (
"-32 -368 LINE",
"-11 -353 OFFCURVE",
"-3 -345 OFFCURVE",
"2 -337 CURVE",
"12 -345 OFFCURVE",
"14 -346 OFFCURVE",
"28 -360 CURVE",
"32 -360 LINE",
"56 -344 OFFCURVE",
"70 -326 OFFCURVE",
"70 -315 CURVE SMOOTH",
"70 -304 OFFCURVE",
"58 -291 OFFCURVE",
"34 -276 CURVE",
"29 -276 LINE",
"21 -282 OFFCURVE",
"11 -293 OFFCURVE",
"-1 -307 CURVE",
"-12 -296 OFFCURVE",
"-15 -293 OFFCURVE",
"-30 -284 CURVE",
"-34 -284 LINE",
"-44 -292 OFFCURVE",
"-64 -313 OFFCURVE",
"-75 -329 CURVE",
"-75 -333 LINE",
"-66 -340 OFFCURVE",
"-45 -357 OFFCURVE",
"-36 -368 CURVE"
);
},
{
closed = 1;
nodes = (
"-6 -204 OFFCURVE",
"18 -179 OFFCURVE",
"41 -179 CURVE SMOOTH",
"48 -179 OFFCURVE",
"56 -181 OFFCURVE",
"56 -190 CURVE SMOOTH",
"56 -205 OFFCURVE",
"2 -222 OFFCURVE",
"-21 -228 CURVE"
);
}
);
width = 0;
},
{
layerId = "0A5D7F3A-D11E-4113-AD15-39410F1DC5C2";
paths = (
{
closed = 1;
nodes = (
"51 -253 OFFCURVE",
"75 -188 OFFCURVE",
"75 -168 CURVE SMOOTH",
"75 -161 OFFCURVE",
"68 -150 OFFCURVE",
"52 -150 CURVE SMOOTH",
"27 -150 OFFCURVE",
"11 -168 OFFCURVE",
"-2 -183 CURVE",
"1 -169 OFFCURVE",
"4 -156 OFFCURVE",
"5 -143 CURVE SMOOTH",
"8 -97 OFFCURVE",
"10 -70 OFFCURVE",
"13 -61 CURVE",
"5 -58 LINE",
"-6 -78 OFFCURVE",
"-14 -94 OFFCURVE",
"-15 -109 CURVE",
"-15 -116 OFFCURVE",
"-16 -133 OFFCURVE",
"-18 -163 CURVE SMOOTH",
"-20 -187 OFFCURVE",
"-21 -201 OFFCURVE",
"-23 -208 CURVE",
"-43 -233 LINE",
"-60 -236 OFFCURVE",
"-72 -238 OFFCURVE",
"-79 -238 CURVE",
"-80 -250 LINE",
"-65 -252 OFFCURVE",
"-46 -253 OFFCURVE",
"-23 -253 CURVE SMOOTH"
);
},
{
closed = 1;
nodes = (
"-32 -351 LINE",
"-16 -339 OFFCURVE",
"-5 -329 OFFCURVE",
"0 -320 CURVE",
"8 -329 OFFCURVE",
"17 -336 OFFCURVE",
"26 -345 CURVE",
"30 -345 LINE",
"53 -328 OFFCURVE",
"64 -316 OFFCURVE",
"64 -307 CURVE SMOOTH",
"64 -295 OFFCURVE",
"55 -287 OFFCURVE",
"33 -271 CURVE",
"29 -271 LINE",
"25 -274 OFFCURVE",
"10 -289 OFFCURVE",
"-1 -302 CURVE",
"-5 -295 OFFCURVE",
"-13 -287 OFFCURVE",
"-30 -277 CURVE",
"-33 -277 LINE",
"-39 -280 OFFCURVE",
"-62 -304 OFFCURVE",
"-68 -316 CURVE",
"-68 -320 LINE",
"-35 -351 LINE"
);
},
{
closed = 1;
nodes = (
"8 -192 OFFCURVE",
"19 -182 OFFCURVE",
"35 -182 CURVE SMOOTH",
"41 -182 OFFCURVE",
"50 -186 OFFCURVE",
"50 -193 CURVE SMOOTH",
"50 -209 OFFCURVE",
"-3 -226 OFFCURVE",
"-19 -227 CURVE"
);
}
);
width = 0;
}
);
note = Tah2DotsBelowYB;
},
{
glyphname = TahSmallBelowYB;
lastChange = "2017-06-19 19:10:36 +0000";
layers = (
{
layerId = "67C28EBA-5AA6-4F74-BBA1-5BB358529C60";
paths = (
{
closed = 1;
nodes = (
"13 -408 OFFCURVE",
"58 -390 OFFCURVE",
"92 -353 CURVE SMOOTH",
"125 -317 OFFCURVE",
"142 -281 OFFCURVE",
"142 -246 CURVE SMOOTH",
"142 -227 OFFCURVE",
"129 -210 OFFCURVE",
"101 -210 CURVE SMOOTH",
"65 -210 OFFCURVE",
"30 -229 OFFCURVE",
"-5 -271 CURVE",
"-6 -268 LINE",
"6 -230 OFFCURVE",
"9 -218 OFFCURVE",
"10 -195 CURVE SMOOTH",
"12 -162 LINE SMOOTH",
"16 -96 OFFCURVE",
"21 -58 OFFCURVE",
"27 -39 CURVE",
"10 -36 LINE",
"-15 -77 OFFCURVE",
"-27 -109 OFFCURVE",
"-29 -144 CURVE SMOOTH",
"-37 -284 LINE SMOOTH",
"-39 -316 OFFCURVE",
"-45 -331 OFFCURVE",
"-82 -368 CURVE",
"-99 -373 OFFCURVE",
"-123 -376 OFFCURVE",
"-150 -380 CURVE",
"-152 -401 LINE",
"-123 -407 OFFCURVE",
"-82 -408 OFFCURVE",
"-44 -408 CURVE SMOOTH"
);
},
{
closed = 1;
nodes = (
"-15 -330 LINE SMOOTH",
"14 -292 OFFCURVE",
"45 -273 OFFCURVE",
"72 -273 CURVE SMOOTH",
"82 -273 OFFCURVE",
"99 -276 OFFCURVE",
"99 -292 CURVE SMOOTH",
"99 -308 OFFCURVE",
"62 -336 OFFCURVE",
"-36 -358 CURVE"
);
}
);
width = 0;
},
{
layerId = "0A5D7F3A-D11E-4113-AD15-39410F1DC5C2";
paths = (
{
closed = 1;
nodes = (
"-14 -392 OFFCURVE",
"11 -387 OFFCURVE",
"35 -377 CURVE SMOOTH",
"83 -358 OFFCURVE",
"129 -292 OFFCURVE",
"129 -244 CURVE SMOOTH",
"129 -230 OFFCURVE",
"117 -213 OFFCURVE",
"90 -213 CURVE SMOOTH",
"48 -213 OFFCURVE",
"18 -245 OFFCURVE",
"-4 -270 CURVE",
"3 -247 OFFCURVE",
"8 -220 OFFCURVE",
"9 -198 CURVE SMOOTH",
"13 -120 OFFCURVE",
"19 -73 OFFCURVE",
"24 -57 CURVE",
"9 -54 LINE",
"-2 -72 OFFCURVE",
"-11 -89 OFFCURVE",
"-16 -104 CURVE SMOOTH",
"-27 -135 OFFCURVE",
"-27 -137 OFFCURVE",
"-31 -235 CURVE SMOOTH",
"-33 -275 OFFCURVE",
"-36 -300 OFFCURVE",
"-41 -313 CURVE",
"-75 -356 LINE",
"-103 -362 OFFCURVE",
"-124 -365 OFFCURVE",
"-137 -367 CURVE",
"-139 -386 LINE",
"-112 -390 OFFCURVE",
"-79 -392 OFFCURVE",
"-41 -392 CURVE SMOOTH"
);
},
{
closed = 1;
nodes = (
"15 -285 OFFCURVE",
"32 -269 OFFCURVE",
"62 -269 CURVE SMOOTH",
"76 -269 OFFCURVE",
"87 -277 OFFCURVE",
"87 -288 CURVE SMOOTH",
"87 -316 OFFCURVE",
"-11 -342 OFFCURVE",
"-33 -346 CURVE"
);
}
);
width = 0;
}
);
note = TahSmallBelowYB;
},
{
glyphname = OneDotAboveAltNS;
lastChange = "2017-06-19 19:10:36 +0000";
layers = (
{
layerId = "67C28EBA-5AA6-4F74-BBA1-5BB358529C60";
paths = (
{
closed = 1;
nodes = (
"3 823 LINE",
"49 855 OFFCURVE",
"95 895 OFFCURVE",
"95 928 CURVE SMOOTH",
"95 960 OFFCURVE",
"64 985 OFFCURVE",
"9 1020 CURVE",
"-1 1020 LINE",
"-18 1009 OFFCURVE",
"-79 942 OFFCURVE",
"-97 914 CURVE",
"-97 904 LINE",
"-68 883 OFFCURVE",
"-60 875 OFFCURVE",
"-5 823 CURVE"
);
}
);
width = 0;
},
{
layerId = "0A5D7F3A-D11E-4113-AD15-39410F1DC5C2";
paths = (
{
closed = 1;
nodes = (
"4 832 LINE",
"60 871 OFFCURVE",
"87 903 OFFCURVE",
"87 926 CURVE SMOOTH",
"87 949 OFFCURVE",
"70 972 OFFCURVE",
"9 1011 CURVE",
"0 1011 LINE",
"-17 1000 OFFCURVE",
"-70 941 OFFCURVE",
"-87 915 CURVE",
"-87 906 LINE",
"-60 885 OFFCURVE",
"-32 860 OFFCURVE",
"-4 832 CURVE"
);
}
);
width = 0;
}
);
note = OneDotAboveAltNS;
},
{
glyphname = TwoDotsAboveAltNS;
lastChange = "2017-06-19 19:10:36 +0000";
layers = (
{
layerId = "67C28EBA-5AA6-4F74-BBA1-5BB358529C60";
paths = (
{
closed = 1;
nodes = (
"-69 815 LINE",
"-32 840 OFFCURVE",
"-4 865 OFFCURVE",
"11 888 CURVE",
"27 875 OFFCURVE",
"43 860 OFFCURVE",
"71 833 CURVE",
"79 833 LINE",
"125 865 OFFCURVE",
"171 905 OFFCURVE",
"171 938 CURVE SMOOTH",
"171 970 OFFCURVE",
"140 995 OFFCURVE",
"85 1030 CURVE",
"75 1030 LINE",
"63 1022 OFFCURVE",
"33 991 OFFCURVE",
"5 958 CURVE",
"-8 973 OFFCURVE",
"-29 990 OFFCURVE",
"-63 1012 CURVE",
"-73 1012 LINE",
"-90 1001 OFFCURVE",
"-151 934 OFFCURVE",
"-169 906 CURVE",
"-169 896 LINE",
"-140 875 OFFCURVE",
"-131 867 OFFCURVE",
"-77 815 CURVE"
);
}
);
width = 0;
},
{
layerId = "0A5D7F3A-D11E-4113-AD15-39410F1DC5C2";
paths = (
{
closed = 1;
nodes = (
"-68 824 LINE",
"-26 854 OFFCURVE",
"0 880 OFFCURVE",
"10 900 CURVE",
"29 884 OFFCURVE",
"50 865 OFFCURVE",
"73 842 CURVE",
"82 842 LINE",
"135 880 OFFCURVE",
"162 912 OFFCURVE",
"162 937 CURVE SMOOTH",
"162 964 OFFCURVE",
"136 987 OFFCURVE",
"83 1021 CURVE",
"75 1021 LINE",
"62 1013 OFFCURVE",
"26 975 OFFCURVE",
"4 947 CURVE",
"-8 965 OFFCURVE",
"-32 983 OFFCURVE",
"-64 1003 CURVE",
"-73 1003 LINE",
"-89 993 OFFCURVE",
"-141 934 OFFCURVE",
"-160 907 CURVE",
"-160 898 LINE",
"-134 877 OFFCURVE",
"-106 853 OFFCURVE",
"-77 824 CURVE"
);
}
);
width = 0;
}
);
note = TwoDotsAboveAltNS;
},
{
glyphname = ThreeDotsUpAboveAltNS;
lastChange = "2017-06-19 19:10:36 +0000";
layers = (
{
layerId = "67C28EBA-5AA6-4F74-BBA1-5BB358529C60";
paths = (
{
closed = 1;
nodes = (
"-70 814 LINE",
"-33 839 OFFCURVE",
"-5 864 OFFCURVE",
"10 887 CURVE",
"26 874 OFFCURVE",
"42 859 OFFCURVE",
"70 832 CURVE",
"78 832 LINE",
"124 864 OFFCURVE",
"170 904 OFFCURVE",
"170 937 CURVE SMOOTH",
"170 967 OFFCURVE",
"146 991 OFFCURVE",
"86 1029 CURVE",
"76 1029 LINE",
"64 1021 OFFCURVE",
"32 990 OFFCURVE",
"4 957 CURVE",
"-9 973 OFFCURVE",
"-31 991 OFFCURVE",
"-62 1011 CURVE",
"-72 1011 LINE",
"-85 1003 OFFCURVE",
"-149 936 OFFCURVE",
"-170 905 CURVE",
"-170 895 LINE",
"-141 874 OFFCURVE",
"-120 855 OFFCURVE",
"-78 814 CURVE"
);
},
{
closed = 1;
nodes = (
"3 997 LINE",
"59 1041 OFFCURVE",
"81 1069 OFFCURVE",
"81 1089 CURVE SMOOTH",
"81 1107 OFFCURVE",
"64 1126 OFFCURVE",
"7 1164 CURVE",
"-1 1164 LINE",
"-19 1152 OFFCURVE",
"-66 1102 OFFCURVE",
"-84 1076 CURVE",
"-84 1068 LINE",
"-47 1037 OFFCURVE",
"-38 1029 OFFCURVE",
"-6 997 CURVE"
);
}
);
width = 0;
},
{
layerId = "0A5D7F3A-D11E-4113-AD15-39410F1DC5C2";
paths = (
{
closed = 1;
nodes = (
"-68 824 LINE",
"-26 854 OFFCURVE",
"0 880 OFFCURVE",
"10 900 CURVE",
"29 884 OFFCURVE",
"50 865 OFFCURVE",
"73 842 CURVE",
"82 842 LINE",
"135 880 OFFCURVE",
"162 912 OFFCURVE",
"162 937 CURVE SMOOTH",
"162 964 OFFCURVE",
"136 987 OFFCURVE",
"83 1021 CURVE",
"75 1021 LINE",
"62 1013 OFFCURVE",
"27 975 OFFCURVE",
"4 947 CURVE",
"-8 964 OFFCURVE",
"-30 981 OFFCURVE",
"-64 1003 CURVE",
"-73 1003 LINE",
"-89 993 OFFCURVE",
"-141 934 OFFCURVE",
"-160 907 CURVE",
"-160 898 LINE",
"-134 877 OFFCURVE",
"-106 853 OFFCURVE",
"-77 824 CURVE"
);
},
{
closed = 1;
nodes = (
"1 998 LINE",
"55 1042 OFFCURVE",
"79 1068 OFFCURVE",
"79 1089 CURVE SMOOTH",
"79 1109 OFFCURVE",
"58 1128 OFFCURVE",
"5 1165 CURVE",
"-2 1165 LINE",
"-11 1161 OFFCURVE",
"-57 1118 OFFCURVE",
"-86 1077 CURVE",
"-86 1069 LINE",
"-79 1063 OFFCURVE",
"-24 1016 OFFCURVE",
"-8 998 CURVE"
);
}
);
width = 0;
}
);
note = ThreeDotsUpAboveAltNS;
},
{
glyphname = MaddaAltNS;
lastChange = "2017-06-19 19:10:36 +0000";
layers = (
{
layerId = "67C28EBA-5AA6-4F74-BBA1-5BB358529C60";
paths = (
{
closed = 1;
nodes = (
"-235 902 OFFCURVE",
"-222 921 OFFCURVE",
"-190 921 CURVE SMOOTH",
"-153 921 OFFCURVE",
"-118 900 OFFCURVE",
"-13 900 CURVE SMOOTH",
"94 900 OFFCURVE",
"207 943 OFFCURVE",
"295 1063 CURVE",
"278 1077 LINE",
"220 1029 OFFCURVE",
"160 1012 OFFCURVE",
"64 1012 CURVE SMOOTH",
"-18 1012 OFFCURVE",
"-99 1034 OFFCURVE",
"-130 1034 CURVE SMOOTH",
"-185 1034 OFFCURVE",
"-235 974 OFFCURVE",
"-277 885 CURVE",
"-255 875 LINE"
);
}
);
width = 0;
},
{
layerId = "0A5D7F3A-D11E-4113-AD15-39410F1DC5C2";
paths = (
{
closed = 1;
nodes = (
"-221 913 OFFCURVE",
"-207 925 OFFCURVE",
"-183 925 CURVE SMOOTH",
"-136 925 OFFCURVE",
"-108 907 OFFCURVE",
"-11 907 CURVE SMOOTH",
"75 907 OFFCURVE",
"190 939 OFFCURVE",
"279 1057 CURVE",
"266 1068 LINE",
"210 1021 OFFCURVE",
"141 1009 OFFCURVE",
"59 1009 CURVE SMOOTH",
"-33 1009 OFFCURVE",
"-99 1029 OFFCURVE",
"-128 1029 CURVE SMOOTH",
"-180 1029 OFFCURVE",
"-226 968 OFFCURVE",
"-262 893 CURVE",
"-242 884 LINE"
);
}
);
width = 0;
}
);
note = MaddaAltNS;
},
{
glyphname = Madda.shortAltNS;
lastChange = "2017-06-19 19:10:36 +0000";
layers = (
{
layerId = "67C28EBA-5AA6-4F74-BBA1-5BB358529C60";
paths = (
{
closed = 1;
nodes = (
"-186 902 OFFCURVE",
"-170 921 OFFCURVE",
"-141 921 CURVE SMOOTH",
"-113 921 OFFCURVE",
"-45 901 OFFCURVE",
"16 901 CURVE SMOOTH",
"139 901 OFFCURVE",
"195 942 OFFCURVE",
"282 1053 CURVE",
"265 1067 LINE",
"216 1023 OFFCURVE",
"164 1013 OFFCURVE",
"85 1013 CURVE SMOOTH",
"31 1013 OFFCURVE",
"-44 1035 OFFCURVE",
"-84 1035 CURVE SMOOTH",
"-126 1035 OFFCURVE",
"-176 997 OFFCURVE",
"-229 885 CURVE",
"-206 875 LINE"
);
}
);
width = 0;
},
{
layerId = "0A5D7F3A-D11E-4113-AD15-39410F1DC5C2";
paths = (
{
closed = 1;
nodes = (
"-173 913 OFFCURVE",
"-160 925 OFFCURVE",
"-135 925 CURVE SMOOTH",
"-96 925 OFFCURVE",
"-44 907 OFFCURVE",
"17 907 CURVE SMOOTH",
"104 907 OFFCURVE",
"179 929 OFFCURVE",
"267 1047 CURVE",
"254 1057 LINE",
"211 1020 OFFCURVE",
"160 1009 OFFCURVE",
"80 1009 CURVE SMOOTH",
"32 1009 OFFCURVE",
"-55 1029 OFFCURVE",
"-81 1029 CURVE SMOOTH",
"-133 1029 OFFCURVE",
"-179 968 OFFCURVE",
"-214 893 CURVE",
"-194 884 LINE"
);
}
);
width = 0;
}
);
note = Madda.shortAltNS;
},
{
glyphname = Madda.shorterAltNS;
lastChange = "2017-06-19 19:10:36 +0000";
layers = (
{
layerId = "67C28EBA-5AA6-4F74-BBA1-5BB358529C60";
paths = (
{
closed = 1;
nodes = (
"-131 914 OFFCURVE",
"-117 926 OFFCURVE",
"-98 926 CURVE SMOOTH",
"-81 926 OFFCURVE",
"-18 907 OFFCURVE",
"27 907 CURVE SMOOTH",
"123 907 OFFCURVE",
"183 951 OFFCURVE",
"242 1043 CURVE",
"224 1057 LINE",
"183 1016 OFFCURVE",
"145 1009 OFFCURVE",
"87 1009 CURVE SMOOTH",
"33 1009 OFFCURVE",
"-7 1027 OFFCURVE",
"-47 1027 CURVE SMOOTH",
"-92 1027 OFFCURVE",
"-133 984 OFFCURVE",
"-172 892 CURVE",
"-149 883 LINE"
);
}
);
width = 0;
},
{
layerId = "0A5D7F3A-D11E-4113-AD15-39410F1DC5C2";
paths = (
{
closed = 1;
nodes = (
"-131 917 OFFCURVE",
"-121 925 OFFCURVE",
"-102 925 CURVE SMOOTH",
"-64 925 OFFCURVE",
"-32 907 OFFCURVE",
"27 907 CURVE SMOOTH",
"117 907 OFFCURVE",
"174 944 OFFCURVE",
"240 1047 CURVE",
"228 1056 LINE",
"193 1021 OFFCURVE",
"161 1009 OFFCURVE",
"87 1009 CURVE SMOOTH",
"38 1009 OFFCURVE",
"-13 1026 OFFCURVE",
"-47 1026 CURVE SMOOTH",
"-89 1026 OFFCURVE",
"-134 984 OFFCURVE",
"-172 892 CURVE",
"-152 884 LINE"
);
}
);
width = 0;
}
);
note = Madda.shorterAltNS;
},
{
glyphname = WaslaAltNS;
lastChange = "2017-06-19 19:10:36 +0000";
layers = (
{
layerId = "67C28EBA-5AA6-4F74-BBA1-5BB358529C60";
paths = (
{
closed = 1;
nodes = (
"-114 885 OFFCURVE",
"-101 891 OFFCURVE",
"-85 891 CURVE SMOOTH",
"-68 891 OFFCURVE",
"-41 872 OFFCURVE",
"-15 872 CURVE SMOOTH",
"66 872 OFFCURVE",
"136 950 OFFCURVE",
"136 1025 CURVE SMOOTH",
"136 1041 OFFCURVE",
"123 1058 OFFCURVE",
"94 1058 CURVE SMOOTH",
"35 1058 OFFCURVE",
"-9 1002 OFFCURVE",
"-50 947 CURVE",
"-53 949 OFFCURVE",
"-57 950 OFFCURVE",
"-73 950 CURVE SMOOTH",
"-107 950 OFFCURVE",
"-132 909 OFFCURVE",
"-146 872 CURVE",
"-129 865 LINE"
);
},
{
closed = 1;
nodes = (
"-11 934 OFFCURVE",
"-20 936 OFFCURVE",
"-27 939 CURVE",
"-20 948 LINE SMOOTH",
"7 983 OFFCURVE",
"38 996 OFFCURVE",
"66 996 CURVE SMOOTH",
"76 996 OFFCURVE",
"100 993 OFFCURVE",
"100 979 CURVE SMOOTH",
"100 956 OFFCURVE",
"24 934 OFFCURVE",
"-2 934 CURVE SMOOTH"
);
}
);
width = 0;
},
{
layerId = "0A5D7F3A-D11E-4113-AD15-39410F1DC5C2";
paths = (
{
closed = 1;
nodes = (
"-105 894 OFFCURVE",
"-95 897 OFFCURVE",
"-82 897 CURVE SMOOTH",
"-57 897 OFFCURVE",
"-45 881 OFFCURVE",
"-14 881 CURVE SMOOTH",
"72 881 OFFCURVE",
"134 967 OFFCURVE",
"134 1021 CURVE SMOOTH",
"134 1035 OFFCURVE",
"125 1049 OFFCURVE",
"100 1049 CURVE SMOOTH",
"52 1049 OFFCURVE",
"11 1011 OFFCURVE",
"-27 962 CURVE SMOOTH",
"-44 940 LINE",
"-50 943 OFFCURVE",
"-57 945 OFFCURVE",
"-66 945 CURVE SMOOTH",
"-93 945 OFFCURVE",
"-117 919 OFFCURVE",
"-132 879 CURVE",
"-123 875 LINE"
);
},
{
closed = 1;
nodes = (
"-14 930 OFFCURVE",
"-18 931 OFFCURVE",
"-26 934 CURVE",
"-13 949 LINE SMOOTH",
"16 983 OFFCURVE",
"41 998 OFFCURVE",
"67 998 CURVE SMOOTH",
"74 998 OFFCURVE",
"97 995 OFFCURVE",
"97 979 CURVE SMOOTH",
"97 955 OFFCURVE",
"37 930 OFFCURVE",
"-2 930 CURVE SMOOTH"
);
}
);
width = 0;
}
);
note = WaslaAltNS;
},
{
glyphname = HamzaAboveAltNS;
lastChange = "2017-06-19 19:10:36 +0000";
layers = (
{
layerId = "67C28EBA-5AA6-4F74-BBA1-5BB358529C60";
paths = (
{
closed = 1;
nodes = (
"-68 837 OFFCURVE",
"-40 860 OFFCURVE",
"-13 907 CURVE SMOOTH",
"14 954 OFFCURVE",
"37 977 OFFCURVE",
"56 977 CURVE SMOOTH",
"74 977 OFFCURVE",
"84 966 OFFCURVE",
"84 953 CURVE SMOOTH",
"84 950 OFFCURVE",
"83 946 OFFCURVE",
"82 942 CURVE",
"100 937 LINE",
"117 957 OFFCURVE",
"134 1002 OFFCURVE",
"134 1029 CURVE SMOOTH",
"134 1065 OFFCURVE",
"112 1075 OFFCURVE",
"92 1075 CURVE SMOOTH",
"62 1075 OFFCURVE",
"42 1054 OFFCURVE",
"17 1015 CURVE SMOOTH",
"-12 970 LINE SMOOTH",
"-30 943 OFFCURVE",
"-45 935 OFFCURVE",
"-59 935 CURVE SMOOTH",
"-76 935 OFFCURVE",
"-84 944 OFFCURVE",
"-84 958 CURVE SMOOTH",
"-84 962 OFFCURVE",
"-83 966 OFFCURVE",
"-82 970 CURVE",
"-101 975 LINE",
"-116 957 OFFCURVE",
"-137 919 OFFCURVE",
"-137 882 CURVE SMOOTH",
"-137 853 OFFCURVE",
"-121 837 OFFCURVE",
"-98 837 CURVE SMOOTH"
);
}
);
width = 0;
},
{
layerId = "0A5D7F3A-D11E-4113-AD15-39410F1DC5C2";
paths = (
{
closed = 1;
nodes = (
"-65 848 OFFCURVE",
"-44 866 OFFCURVE",
"-19 905 CURVE SMOOTH",
"15 957 LINE SMOOTH",
"32 982 OFFCURVE",
"42 990 OFFCURVE",
"55 990 CURVE SMOOTH",
"64 990 OFFCURVE",
"75 983 OFFCURVE",
"75 964 CURVE",
"91 960 LINE",
"108 979 OFFCURVE",
"122 1005 OFFCURVE",
"122 1031 CURVE SMOOTH",
"122 1057 OFFCURVE",
"104 1064 OFFCURVE",
"88 1064 CURVE SMOOTH",
"64 1064 OFFCURVE",
"45 1050 OFFCURVE",
"17 1008 CURVE SMOOTH",
"-18 956 LINE SMOOTH",
"-36 929 OFFCURVE",
"-45 923 OFFCURVE",
"-58 923 CURVE SMOOTH",
"-68 923 OFFCURVE",
"-77 932 OFFCURVE",
"-77 948 CURVE",
"-94 952 LINE",
"-111 934 OFFCURVE",
"-125 907 OFFCURVE",
"-125 881 CURVE SMOOTH",
"-125 859 OFFCURVE",
"-112 848 OFFCURVE",
"-90 848 CURVE SMOOTH"
);
}
);
width = 0;
}
);
note = HamzaAboveAltNS;
},
{
glyphname = HamzaAboveAF_AltNS;
lastChange = "2017-06-19 19:10:36 +0000";
layers = (
{
layerId = "67C28EBA-5AA6-4F74-BBA1-5BB358529C60";
paths = (
{
closed = 1;
nodes = (
"-79 826 OFFCURVE",
"-42 847 OFFCURVE",
"4 868 CURVE SMOOTH",
"93 909 OFFCURVE",
"125 923 OFFCURVE",
"145 983 CURVE",
"131 992 LINE",
"104 967 OFFCURVE",
"67 946 OFFCURVE",
"46 946 CURVE SMOOTH",
"11 946 OFFCURVE",
"-13 962 OFFCURVE",
"-13 986 CURVE SMOOTH",
"-13 1011 OFFCURVE",
"10 1030 OFFCURVE",
"39 1030 CURVE SMOOTH",
"53 1030 OFFCURVE",
"69 1023 OFFCURVE",
"77 1011 CURVE",
"85 1011 LINE",
"93 1017 OFFCURVE",
"103 1027 OFFCURVE",
"103 1046 CURVE SMOOTH",
"103 1069 OFFCURVE",
"83 1078 OFFCURVE",
"58 1078 CURVE SMOOTH",
"5 1078 OFFCURVE",
"-81 993 OFFCURVE",
"-81 940 CURVE SMOOTH",
"-81 918 OFFCURVE",
"-68 902 OFFCURVE",
"-57 895 CURVE",
"-58 891 LINE",
"-82 877 OFFCURVE",
"-108 852 OFFCURVE",
"-119 816 CURVE",
"-107 805 LINE"
);
}
);
width = 0;
},
{
layerId = "0A5D7F3A-D11E-4113-AD15-39410F1DC5C2";
paths = (
{
closed = 1;
nodes = (
"-66 838 OFFCURVE",
"-30 860 OFFCURVE",
"9 877 CURVE SMOOTH",
"99 917 OFFCURVE",
"116 930 OFFCURVE",
"133 979 CURVE",
"124 984 LINE",
"106 966 OFFCURVE",
"72 942 OFFCURVE",
"46 942 CURVE SMOOTH",
"8 942 OFFCURVE",
"-16 959 OFFCURVE",
"-16 983 CURVE SMOOTH",
"-16 1009 OFFCURVE",
"14 1024 OFFCURVE",
"36 1024 CURVE SMOOTH",
"49 1024 OFFCURVE",
"61 1019 OFFCURVE",
"70 1010 CURVE",
"75 1010 LINE",
"82 1013 OFFCURVE",
"90 1023 OFFCURVE",
"90 1037 CURVE SMOOTH",
"90 1058 OFFCURVE",
"70 1065 OFFCURVE",
"54 1065 CURVE SMOOTH",
"6 1065 OFFCURVE",
"-70 992 OFFCURVE",
"-70 940 CURVE SMOOTH",
"-70 927 OFFCURVE",
"-67 917 OFFCURVE",
"-61 912 CURVE SMOOTH",
"-54 906 OFFCURVE",
"-50 901 OFFCURVE",
"-47 896 CURVE",
"-48 893 LINE",
"-63 884 OFFCURVE",
"-93 858 OFFCURVE",
"-103 824 CURVE",
"-96 817 LINE"
);
}
);
width = 0;
}
);
note = HamzaAboveAF_AltNS;
},
{
glyphname = AlayhissalamAltNS;
lastChange = "2017-06-19 19:10:36 +0000";
layers = (
{
layerId = "67C28EBA-5AA6-4F74-BBA1-5BB358529C60";
paths = (
{
closed = 1;
nodes = (
"-79 859 OFFCURVE",
"-76 879 OFFCURVE",
"-76 948 CURVE",
"-63 938 OFFCURVE",
"-47 933 OFFCURVE",
"-28 933 CURVE SMOOTH",
"50 933 OFFCURVE",
"139 997 OFFCURVE",
"163 1065 CURVE",
"152 1074 LINE",
"129 1050 OFFCURVE",
"96 1022 OFFCURVE",
"66 1022 CURVE SMOOTH",
"38 1022 OFFCURVE",
"3 1035 OFFCURVE",
"3 1059 CURVE SMOOTH",
"3 1083 OFFCURVE",
"32 1099 OFFCURVE",
"53 1099 CURVE SMOOTH",
"71 1099 OFFCURVE",
"86 1092 OFFCURVE",
"93 1080 CURVE",
"101 1080 LINE",
"109 1086 OFFCURVE",
"119 1096 OFFCURVE",
"119 1115 CURVE SMOOTH",
"119 1138 OFFCURVE",
"99 1147 OFFCURVE",
"74 1147 CURVE SMOOTH",
"21 1147 OFFCURVE",
"-54 1072 OFFCURVE",
"-54 1020 CURVE SMOOTH",
"-54 1011 OFFCURVE",
"-53 1006 OFFCURVE",
"-49 999 CURVE",
"-70 1004 OFFCURVE",
"-81 1023 OFFCURVE",
"-83 1056 CURVE SMOOTH",
"-85 1089 OFFCURVE",
"-89 1112 OFFCURVE",
"-94 1124 CURVE",
"-104 1124 LINE",
"-115 1099 OFFCURVE",
"-124 1077 OFFCURVE",
"-129 1062 CURVE",
"-129 1050 OFFCURVE",
"-126 1033 OFFCURVE",
"-121 1001 CURVE SMOOTH",
"-116 969 OFFCURVE",
"-113 909 OFFCURVE",
"-113 858 CURVE SMOOTH",
"-113 842 OFFCURVE",
"-114 827 OFFCURVE",
"-115 811 CURVE",
"-100 810 LINE"
);
}
);
width = 0;
},
{
layerId = "0A5D7F3A-D11E-4113-AD15-39410F1DC5C2";
paths = (
{
closed = 1;
nodes = (
"-72 866 OFFCURVE",
"-68 885 OFFCURVE",
"-68 955 CURVE",
"-58 946 OFFCURVE",
"-43 942 OFFCURVE",
"-24 942 CURVE SMOOTH",
"21 942 OFFCURVE",
"111 973 OFFCURVE",
"149 1059 CURVE",
"142 1064 LINE",
"129 1052 OFFCURVE",
"90 1018 OFFCURVE",
"62 1018 CURVE SMOOTH",
"34 1018 OFFCURVE",
"3 1031 OFFCURVE",
"3 1056 CURVE SMOOTH",
"3 1081 OFFCURVE",
"31 1093 OFFCURVE",
"52 1093 CURVE SMOOTH",
"65 1093 OFFCURVE",
"76 1089 OFFCURVE",
"84 1080 CURVE",
"88 1080 LINE",
"98 1084 OFFCURVE",
"103 1094 OFFCURVE",
"103 1105 CURVE SMOOTH",
"103 1125 OFFCURVE",
"83 1132 OFFCURVE",
"68 1132 CURVE SMOOTH",
"25 1132 OFFCURVE",
"-46 1064 OFFCURVE",
"-46 1016 CURVE SMOOTH",
"-46 1008 OFFCURVE",
"-45 1002 OFFCURVE",
"-43 997 CURVE",
"-63 1002 OFFCURVE",
"-73 1019 OFFCURVE",
"-74 1049 CURVE SMOOTH",
"-75 1078 OFFCURVE",
"-79 1099 OFFCURVE",
"-83 1111 CURVE",
"-88 1111 LINE",
"-111 1054 LINE",
"-111 1046 OFFCURVE",
"-108 1027 OFFCURVE",
"-103 996 CURVE SMOOTH",
"-98 964 OFFCURVE",
"-96 925 OFFCURVE",
"-96 878 CURVE SMOOTH",
"-96 855 OFFCURVE",
"-97 848 OFFCURVE",
"-99 826 CURVE",
"-89 824 LINE"
);
}
);
width = 0;
}
);
note = AlayhissalamAltNS;
},
{
glyphname = AlefSuperiorAltNS;
lastChange = "2017-06-19 19:10:36 +0000";
layers = (
{
layerId = "67C28EBA-5AA6-4F74-BBA1-5BB358529C60";
paths = (
{
closed = 1;
nodes = (
"16 890 OFFCURVE",
"31 942 OFFCURVE",
"34 990 CURVE SMOOTH",
"35 1010 LINE SMOOTH",
"38 1085 OFFCURVE",
"40 1108 OFFCURVE",
"45 1120 CURVE",
"28 1123 LINE",
"0 1069 OFFCURVE",
"-9 1051 OFFCURVE",
"-11 994 CURVE SMOOTH",
"-13 946 LINE SMOOTH",
"-15 893 OFFCURVE",
"-19 860 OFFCURVE",
"-23 841 CURVE",
"-6 838 LINE"
);
}
);
width = 0;
},
{
layerId = "0A5D7F3A-D11E-4113-AD15-39410F1DC5C2";
paths = (
{
closed = 1;
nodes = (
"14 893 OFFCURVE",
"28 945 OFFCURVE",
"30 989 CURVE SMOOTH",
"31 1006 LINE SMOOTH",
"33 1066 OFFCURVE",
"37 1097 OFFCURVE",
"40 1106 CURVE",
"29 1110 LINE",
"4 1061 OFFCURVE",
"-4 1042 OFFCURVE",
"-6 992 CURVE SMOOTH",
"-8 948 LINE SMOOTH",
"-10 900 OFFCURVE",
"-14 870 OFFCURVE",
"-17 854 CURVE",
"-5 851 LINE"
);
}
);
width = 0;
}
);
note = AlefSuperiorAltNS;
},
{
glyphname = DammaAltNS;
lastChange = "2017-06-19 19:10:36 +0000";
layers = (
{
layerId = "67C28EBA-5AA6-4F74-BBA1-5BB358529C60";
paths = (
{
closed = 1;
nodes = (
"8 903 OFFCURVE",
"120 973 OFFCURVE",
"120 1067 CURVE SMOOTH",
"120 1092 OFFCURVE",
"108 1118 OFFCURVE",
"76 1118 CURVE SMOOTH",
"25 1118 OFFCURVE",
"-9 1066 OFFCURVE",
"-9 1022 CURVE SMOOTH",
"-9 1010 OFFCURVE",
"-5 994 OFFCURVE",
"13 973 CURVE",
"-37 934 LINE SMOOTH",
"-66 911 OFFCURVE",
"-97 885 OFFCURVE",
"-127 857 CURVE",
"-119 846 LINE"
);
},
{
closed = 1;
nodes = (
"37 1026 OFFCURVE",
"28 1037 OFFCURVE",
"28 1049 CURVE SMOOTH",
"28 1063 OFFCURVE",
"36 1076 OFFCURVE",
"56 1076 CURVE SMOOTH",
"74 1076 OFFCURVE",
"83 1063 OFFCURVE",
"83 1050 CURVE SMOOTH",
"83 1033 OFFCURVE",
"71 1020 OFFCURVE",
"59 1009 CURVE"
);
}
);
width = 0;
},
{
layerId = "0A5D7F3A-D11E-4113-AD15-39410F1DC5C2";
paths = (
{
closed = 1;
nodes = (
"-4 916 OFFCURVE",
"109 973 OFFCURVE",
"109 1058 CURVE SMOOTH",
"109 1086 OFFCURVE",
"95 1102 OFFCURVE",
"71 1102 CURVE SMOOTH",
"37 1102 OFFCURVE",
"-2 1058 OFFCURVE",
"-2 1023 CURVE SMOOTH",
"-2 1013 OFFCURVE",
"2 995 OFFCURVE",
"17 978 CURVE",
"2 967 OFFCURVE",
"-88 895 OFFCURVE",
"-116 868 CURVE",
"-111 861 LINE"
);
},
{
closed = 1;
nodes = (
"29 1029 OFFCURVE",
"28 1033 OFFCURVE",
"28 1041 CURVE SMOOTH",
"28 1052 OFFCURVE",
"35 1064 OFFCURVE",
"54 1064 CURVE SMOOTH",
"65 1064 OFFCURVE",
"75 1059 OFFCURVE",
"75 1044 CURVE SMOOTH",
"75 1028 OFFCURVE",
"63 1016 OFFCURVE",
"53 1006 CURVE"
);
}
);
width = 0;
}
);
note = DammaAltNS;
},
{
glyphname = UltapeshAltNS;
lastChange = "2017-06-19 19:10:36 +0000";
layers = (
{
layerId = "67C28EBA-5AA6-4F74-BBA1-5BB358529C60";
paths = (
{
closed = 1;
nodes = (
"-37 846 OFFCURVE",
"3 891 OFFCURVE",
"3 942 CURVE SMOOTH",
"3 960 OFFCURVE",
"-6 976 OFFCURVE",
"-19 991 CURVE",
"31 1030 LINE SMOOTH",
"59 1052 OFFCURVE",
"91 1079 OFFCURVE",
"121 1107 CURVE",
"113 1118 LINE",
"35 1081 OFFCURVE",
"-126 1011 OFFCURVE",
"-126 897 CURVE SMOOTH",
"-126 873 OFFCURVE",
"-112 846 OFFCURVE",
"-82 846 CURVE SMOOTH"
);
},
{
closed = 1;
nodes = (
"-78 888 OFFCURVE",
"-89 897 OFFCURVE",
"-89 914 CURVE SMOOTH",
"-89 927 OFFCURVE",
"-82 940 OFFCURVE",
"-65 955 CURVE",
"-44 939 OFFCURVE",
"-34 927 OFFCURVE",
"-34 915 CURVE SMOOTH",
"-34 899 OFFCURVE",
"-47 888 OFFCURVE",
"-62 888 CURVE SMOOTH"
);
}
);
width = 0;
},
{
layerId = "0A5D7F3A-D11E-4113-AD15-39410F1DC5C2";
paths = (
{
closed = 1;
nodes = (
"-40 862 OFFCURVE",
"-1 906 OFFCURVE",
"-1 941 CURVE SMOOTH",
"-1 956 OFFCURVE",
"-10 975 OFFCURVE",
"-20 987 CURVE",
"-7 996 OFFCURVE",
"83 1068 OFFCURVE",
"112 1097 CURVE",
"107 1103 LINE",
"-12 1046 OFFCURVE",
"-112 985 OFFCURVE",
"-112 906 CURVE SMOOTH",
"-112 885 OFFCURVE",
"-103 862 OFFCURVE",
"-75 862 CURVE SMOOTH"
);
},
{
closed = 1;
nodes = (
"-70 900 OFFCURVE",
"-78 907 OFFCURVE",
"-78 920 CURVE SMOOTH",
"-78 937 OFFCURVE",
"-67 948 OFFCURVE",
"-56 958 CURVE",
"-44 947 OFFCURVE",
"-32 935 OFFCURVE",
"-32 924 CURVE SMOOTH",
"-32 908 OFFCURVE",
"-44 900 OFFCURVE",
"-57 900 CURVE SMOOTH"
);
}
);
width = 0;
}
);
note = UltapeshAltNS;
},
{
glyphname = DammatanAltNS;
lastChange = "2017-06-19 19:10:36 +0000";
layers = (
{
layerId = "67C28EBA-5AA6-4F74-BBA1-5BB358529C60";
paths = (
{
closed = 1;
nodes = (
"11 859 OFFCURVE",
"57 887 OFFCURVE",
"95 924 CURVE SMOOTH",
"129 957 OFFCURVE",
"154 994 OFFCURVE",
"154 1038 CURVE SMOOTH",
"154 1061 OFFCURVE",
"141 1089 OFFCURVE",
"110 1089 CURVE SMOOTH",
"59 1089 OFFCURVE",
"25 1037 OFFCURVE",
"25 993 CURVE SMOOTH",
"25 981 OFFCURVE",
"29 965 OFFCURVE",
"47 944 CURVE",
"22 925 OFFCURVE",
"-1 915 OFFCURVE",
"-23 915 CURVE SMOOTH",
"-55 915 OFFCURVE",
"-65 931 OFFCURVE",
"-65 963 CURVE SMOOTH",
"-65 984 OFFCURVE",
"-58 1010 OFFCURVE",
"-58 1020 CURVE SMOOTH",
"-58 1032 OFFCURVE",
"-64 1038 OFFCURVE",
"-79 1038 CURVE SMOOTH",
"-98 1038 OFFCURVE",
"-141 1017 OFFCURVE",
"-168 984 CURVE",
"-160 971 LINE",
"-141 984 OFFCURVE",
"-109 988 OFFCURVE",
"-97 988 CURVE SMOOTH",
"-93 988 LINE",
"-99 973 OFFCURVE",
"-103 950 OFFCURVE",
"-103 931 CURVE SMOOTH",
"-103 884 OFFCURVE",
"-81 859 OFFCURVE",
"-31 859 CURVE SMOOTH"
);
},
{
closed = 1;
nodes = (
"71 997 OFFCURVE",
"62 1008 OFFCURVE",
"62 1020 CURVE SMOOTH",
"62 1034 OFFCURVE",
"70 1047 OFFCURVE",
"90 1047 CURVE SMOOTH",
"108 1047 OFFCURVE",
"117 1034 OFFCURVE",
"117 1022 CURVE SMOOTH",
"117 1007 OFFCURVE",
"112 999 OFFCURVE",
"93 980 CURVE"
);
}
);
width = 0;
},
{
layerId = "0A5D7F3A-D11E-4113-AD15-39410F1DC5C2";
paths = (
{
closed = 1;
nodes = (
"6 869 OFFCURVE",
"41 887 OFFCURVE",
"80 924 CURVE SMOOTH",
"117 960 OFFCURVE",
"136 996 OFFCURVE",
"136 1030 CURVE SMOOTH",
"136 1056 OFFCURVE",
"124 1071 OFFCURVE",
"99 1071 CURVE SMOOTH",
"67 1071 OFFCURVE",
"31 1030 OFFCURVE",
"31 997 CURVE SMOOTH",
"31 981 OFFCURVE",
"35 964 OFFCURVE",
"52 947 CURVE",
"25 926 OFFCURVE",
"0 915 OFFCURVE",
"-21 915 CURVE SMOOTH",
"-49 915 OFFCURVE",
"-64 931 OFFCURVE",
"-64 964 CURVE SMOOTH",
"-64 988 OFFCURVE",
"-58 1008 OFFCURVE",
"-58 1016 CURVE SMOOTH",
"-58 1028 OFFCURVE",
"-67 1031 OFFCURVE",
"-74 1031 CURVE SMOOTH",
"-98 1031 OFFCURVE",
"-135 1004 OFFCURVE",
"-154 980 CURVE",
"-147 972 LINE",
"-129 985 OFFCURVE",
"-106 994 OFFCURVE",
"-88 994 CURVE SMOOTH",
"-83 994 LINE",
"-88 973 OFFCURVE",
"-92 956 OFFCURVE",
"-92 941 CURVE SMOOTH",
"-92 884 OFFCURVE",
"-63 869 OFFCURVE",
"-29 869 CURVE SMOOTH"
);
},
{
closed = 1;
nodes = (
"70 991 OFFCURVE",
"60 1001 OFFCURVE",
"60 1013 CURVE SMOOTH",
"60 1027 OFFCURVE",
"69 1035 OFFCURVE",
"83 1035 CURVE SMOOTH",
"98 1035 OFFCURVE",
"104 1027 OFFCURVE",
"104 1016 CURVE SMOOTH",
"104 999 OFFCURVE",
"94 989 OFFCURVE",
"84 979 CURVE"
);
}
);
width = 0;
}
);
note = DammatanAltNS;
},
{
glyphname = FathaAltNS;
lastChange = "2017-06-19 19:10:36 +0000";
layers = (
{
layerId = "67C28EBA-5AA6-4F74-BBA1-5BB358529C60";
paths = (
{
closed = 1;
nodes = (
"-106 867 OFFCURVE",
"-87 879 OFFCURVE",
"-59 894 CURVE SMOOTH",
"94 978 LINE SMOOTH",
"125 995 OFFCURVE",
"142 1017 OFFCURVE",
"154 1053 CURVE",
"141 1060 LINE",
"137 1057 OFFCURVE",
"125 1049 OFFCURVE",
"86 1027 CURVE SMOOTH",
"-36 959 LINE SMOOTH",
"-104 921 OFFCURVE",
"-120 901 OFFCURVE",
"-129 863 CURVE",
"-117 855 LINE"
);
}
);
width = 0;
},
{
layerId = "0A5D7F3A-D11E-4113-AD15-39410F1DC5C2";
paths = (
{
closed = 1;
nodes = (
"-101 874 OFFCURVE",
"-88 883 OFFCURVE",
"-56 901 CURVE SMOOTH",
"83 977 LINE SMOOTH",
"113 994 OFFCURVE",
"127 1015 OFFCURVE",
"138 1043 CURVE",
"129 1048 LINE",
"125 1045 OFFCURVE",
"117 1041 OFFCURVE",
"107 1035 CURVE SMOOTH",
"52 1003 OFFCURVE",
"-5 975 OFFCURVE",
"-59 940 CURVE SMOOTH",
"-96 916 OFFCURVE",
"-108 901 OFFCURVE",
"-116 870 CURVE",
"-109 865 LINE"
);
}
);
width = 0;
}
);
note = FathaAltNS;
},
{
glyphname = FathatanAltNS;
lastChange = "2017-06-19 19:10:36 +0000";
layers = (
{
layerId = "67C28EBA-5AA6-4F74-BBA1-5BB358529C60";
paths = (
{
closed = 1;
nodes = (
"-96 969 OFFCURVE",
"-77 981 OFFCURVE",
"-49 996 CURVE SMOOTH",
"104 1080 LINE SMOOTH",
"135 1097 OFFCURVE",
"152 1119 OFFCURVE",
"164 1155 CURVE",
"151 1162 LINE",
"147 1159 OFFCURVE",
"135 1151 OFFCURVE",
"96 1129 CURVE SMOOTH",
"-26 1061 LINE SMOOTH",
"-94 1023 OFFCURVE",
"-110 1003 OFFCURVE",
"-119 965 CURVE",
"-107 957 LINE"
);
},
{
closed = 1;
nodes = (
"-106 867 OFFCURVE",
"-87 879 OFFCURVE",
"-59 894 CURVE SMOOTH",
"94 978 LINE SMOOTH",
"125 995 OFFCURVE",
"142 1017 OFFCURVE",
"154 1053 CURVE",
"141 1060 LINE",
"137 1057 OFFCURVE",
"125 1049 OFFCURVE",
"86 1027 CURVE SMOOTH",
"-36 959 LINE SMOOTH",
"-104 921 OFFCURVE",
"-120 901 OFFCURVE",
"-129 863 CURVE",
"-117 855 LINE"
);
}
);
width = 0;
},
{
layerId = "0A5D7F3A-D11E-4113-AD15-39410F1DC5C2";
paths = (
{
closed = 1;
nodes = (
"-88 975 OFFCURVE",
"-75 984 OFFCURVE",
"-43 1002 CURVE SMOOTH",
"96 1078 LINE SMOOTH",
"126 1095 OFFCURVE",
"140 1116 OFFCURVE",
"151 1144 CURVE",
"142 1149 LINE",
"138 1146 OFFCURVE",
"130 1142 OFFCURVE",
"120 1136 CURVE SMOOTH",
"65 1103 OFFCURVE",
"8 1076 OFFCURVE",
"-46 1041 CURVE SMOOTH",
"-83 1017 OFFCURVE",
"-95 1002 OFFCURVE",
"-103 971 CURVE",
"-96 966 LINE"
);
},
{
closed = 1;
nodes = (
"-101 874 OFFCURVE",
"-88 883 OFFCURVE",
"-56 901 CURVE SMOOTH",
"83 977 LINE SMOOTH",
"113 994 OFFCURVE",
"127 1015 OFFCURVE",
"138 1043 CURVE",
"129 1048 LINE",
"125 1045 OFFCURVE",
"117 1041 OFFCURVE",
"107 1035 CURVE SMOOTH",
"52 1003 OFFCURVE",
"-5 975 OFFCURVE",
"-59 940 CURVE SMOOTH",
"-96 916 OFFCURVE",
"-108 901 OFFCURVE",
"-116 870 CURVE",
"-109 865 LINE"
);
}
);
width = 0;
}
);
note = FathatanAltNS;
},
{
glyphname = NoonGhunnaMarkAltNS;
lastChange = "2017-06-19 19:10:36 +0000";
layers = (
{
layerId = "67C28EBA-5AA6-4F74-BBA1-5BB358529C60";
paths = (
{
closed = 1;
nodes = (
"76 875 OFFCURVE",
"142 967 OFFCURVE",
"144 1054 CURVE",
"119 1054 LINE",
"104 994 OFFCURVE",
"62 957 OFFCURVE",
"-13 957 CURVE SMOOTH",
"-73 957 OFFCURVE",
"-96 981 OFFCURVE",
"-96 1030 CURVE SMOOTH",
"-96 1036 OFFCURVE",
"-95 1041 OFFCURVE",
"-94 1045 CURVE",
"-119 1048 LINE",
"-126 1030 OFFCURVE",
"-128 1005 OFFCURVE",
"-128 988 CURVE SMOOTH",
"-128 912 OFFCURVE",
"-90 875 OFFCURVE",
"-18 875 CURVE SMOOTH"
);
}
);
width = 0;
},
{
layerId = "0A5D7F3A-D11E-4113-AD15-39410F1DC5C2";
paths = (
{
closed = 1;
nodes = (
"71 882 OFFCURVE",
"129 966 OFFCURVE",
"132 1046 CURVE",
"109 1046 LINE",
"91 967 OFFCURVE",
"38 947 OFFCURVE",
"-12 947 CURVE SMOOTH",
"-67 947 OFFCURVE",
"-87 972 OFFCURVE",
"-87 1013 CURVE SMOOTH",
"-87 1023 OFFCURVE",
"-87 1028 OFFCURVE",
"-85 1039 CURVE",
"-107 1041 LINE",
"-112 1021 OFFCURVE",
"-116 1003 OFFCURVE",
"-116 982 CURVE SMOOTH",
"-116 905 OFFCURVE",
"-64 882 OFFCURVE",
"-16 882 CURVE SMOOTH"
);
}
);
width = 0;
}
);
note = NoonGhunnaMarkAltNS;
},
{
glyphname = RadiallahAltNS;
lastChange = "2017-06-19 19:10:36 +0000";
layers = (
{
layerId = "67C28EBA-5AA6-4F74-BBA1-5BB358529C60";
paths = (
{
closed = 1;
nodes = (
"-142 862 OFFCURVE",
"-137 883 OFFCURVE",
"-137 946 CURVE",
"-122 934 OFFCURVE",
"-102 932 OFFCURVE",
"-82 932 CURVE SMOOTH",
"-31 932 OFFCURVE",
"14 953 OFFCURVE",
"51 995 CURVE SMOOTH",
"88 1037 OFFCURVE",
"106 1076 OFFCURVE",
"106 1112 CURVE SMOOTH",
"106 1142 OFFCURVE",
"82 1153 OFFCURVE",
"60 1153 CURVE SMOOTH",
"-7 1153 OFFCURVE",
"-59 1092 OFFCURVE",
"-118 1010 CURVE",
"-134 1015 OFFCURVE",
"-143 1031 OFFCURVE",
"-144 1057 CURVE SMOOTH",
"-145 1083 OFFCURVE",
"-149 1106 OFFCURVE",
"-155 1126 CURVE",
"-165 1126 LINE",
"-180 1090 OFFCURVE",
"-185 1078 OFFCURVE",
"-190 1065 CURVE",
"-190 1055 OFFCURVE",
"-187 1036 OFFCURVE",
"-182 1005 CURVE SMOOTH",
"-177 974 OFFCURVE",
"-174 929 OFFCURVE",
"-174 870 CURVE SMOOTH",
"-174 850 OFFCURVE",
"-175 832 OFFCURVE",
"-176 813 CURVE",
"-161 812 LINE"
);
},
{
closed = 1;
nodes = (
"-81 1002 OFFCURVE",
"-86 1002 OFFCURVE",
"-91 1002 CURVE",
"-75 1021 LINE SMOOTH",
"-39 1064 OFFCURVE",
"-9 1083 OFFCURVE",
"24 1083 CURVE SMOOTH",
"29 1083 OFFCURVE",
"37 1082 OFFCURVE",
"46 1079 CURVE SMOOTH",
"55 1076 OFFCURVE",
"59 1071 OFFCURVE",
"59 1062 CURVE SMOOTH",
"59 1038 OFFCURVE",
"-3 1001 OFFCURVE",
"-74 1001 CURVE"
);
},
{
closed = 1;
nodes = (
"23 850 OFFCURVE",
"79 864 OFFCURVE",
"113 879 CURVE",
"143 904 OFFCURVE",
"184 987 OFFCURVE",
"207 1096 CURVE",
"191 1099 LINE",
"174 1053 OFFCURVE",
"158 1019 OFFCURVE",
"143 996 CURVE SMOOTH",
"110 944 OFFCURVE",
"12 874 OFFCURVE",
"-19 857 CURVE",
"-15 841 LINE"
);
},
{
closed = 1;
nodes = (
"-44 1139 LINE",
"-20 1155 OFFCURVE",
"-7 1171 OFFCURVE",
"-7 1182 CURVE SMOOTH",
"-7 1192 OFFCURVE",
"-19 1204 OFFCURVE",
"-42 1219 CURVE",
"-46 1219 LINE",
"-85 1176 LINE",
"-85 1171 LINE",
"-73 1162 OFFCURVE",
"-60 1151 OFFCURVE",
"-48 1139 CURVE"
);
}
);
width = 0;
},
{
layerId = "0A5D7F3A-D11E-4113-AD15-39410F1DC5C2";
paths = (
{
closed = 1;
nodes = (
"-132 868 OFFCURVE",
"-128 888 OFFCURVE",
"-128 957 CURVE",
"-114 946 OFFCURVE",
"-96 945 OFFCURVE",
"-78 945 CURVE SMOOTH",
"-34 945 OFFCURVE",
"6 963 OFFCURVE",
"40 1001 CURVE SMOOTH",
"74 1039 OFFCURVE",
"91 1073 OFFCURVE",
"91 1104 CURVE SMOOTH",
"91 1119 OFFCURVE",
"81 1135 OFFCURVE",
"56 1135 CURVE SMOOTH",
"-2 1135 OFFCURVE",
"-60 1069 OFFCURVE",
"-106 1004 CURVE",
"-124 1010 OFFCURVE",
"-133 1027 OFFCURVE",
"-134 1054 CURVE SMOOTH",
"-135 1081 OFFCURVE",
"-138 1101 OFFCURVE",
"-143 1114 CURVE",
"-147 1114 LINE",
"-155 1092 OFFCURVE",
"-167 1071 OFFCURVE",
"-170 1057 CURVE",
"-170 1049 OFFCURVE",
"-168 1029 OFFCURVE",
"-163 998 CURVE SMOOTH",
"-158 967 OFFCURVE",
"-156 928 OFFCURVE",
"-156 881 CURVE SMOOTH",
"-156 846 OFFCURVE",
"-157 832 OFFCURVE",
"-158 829 CURVE",
"-148 827 LINE"
);
},
{
closed = 1;
nodes = (
"-75 999 OFFCURVE",
"-80 999 OFFCURVE",
"-86 1000 CURVE",
"-72 1017 LINE SMOOTH",
"-38 1059 OFFCURVE",
"-12 1074 OFFCURVE",
"18 1074 CURVE SMOOTH",
"28 1074 OFFCURVE",
"49 1071 OFFCURVE",
"49 1055 CURVE SMOOTH",
"49 1030 OFFCURVE",
"-8 999 OFFCURVE",
"-70 999 CURVE SMOOTH"
);
},
{
closed = 1;
nodes = (
"58 866 OFFCURVE",
"96 878 OFFCURVE",
"109 888 CURVE SMOOTH",
"130 905 OFFCURVE",
"169 974 OFFCURVE",
"197 1084 CURVE",
"182 1087 LINE",
"170 1053 OFFCURVE",
"157 1023 OFFCURVE",
"143 999 CURVE SMOOTH",
"110 943 OFFCURVE",
"17 876 OFFCURVE",
"-7 864 CURVE",
"-5 853 LINE"
);
},
{
closed = 1;
nodes = (
"-44 1143 LINE",
"-26 1155 OFFCURVE",
"-11 1168 OFFCURVE",
"-11 1181 CURVE SMOOTH",
"-11 1191 OFFCURVE",
"-20 1201 OFFCURVE",
"-42 1215 CURVE",
"-46 1215 LINE",
"-51 1210 OFFCURVE",
"-70 1192 OFFCURVE",
"-82 1175 CURVE",
"-82 1171 LINE",
"-63 1157 OFFCURVE",
"-59 1154 OFFCURVE",
"-48 1143 CURVE"
);
}
);
width = 0;
}
);
note = RadiallahAltNS;
},
{
glyphname = RahmatullahAltNS;
lastChange = "2017-06-19 19:10:36 +0000";
layers = (
{
layerId = "67C28EBA-5AA6-4F74-BBA1-5BB358529C60";
paths = (
{
closed = 1;
nodes = (
"-133 843 LINE",
"-122 890 OFFCURVE",
"-96 935 OFFCURVE",
"-56 976 CURVE SMOOTH",
"-16 1017 OFFCURVE",
"18 1045 OFFCURVE",
"47 1061 CURVE SMOOTH",
"75 1077 OFFCURVE",
"95 1098 OFFCURVE",
"107 1124 CURVE",
"107 1132 LINE",
"86 1143 OFFCURVE",
"10 1152 OFFCURVE",
"-26 1152 CURVE SMOOTH",
"-93 1152 OFFCURVE",
"-117 1129 OFFCURVE",
"-138 1062 CURVE",
"-120 1058 LINE",
"-109 1081 OFFCURVE",
"-96 1086 OFFCURVE",
"-60 1086 CURVE SMOOTH",
"-34 1086 LINE SMOOTH",
"2 1086 OFFCURVE",
"19 1081 OFFCURVE",
"22 1078 CURVE",
"-93 1002 OFFCURVE",
"-138 940 OFFCURVE",
"-166 867 CURVE",
"-143 843 LINE"
);
},
{
closed = 1;
nodes = (
"-1 865 OFFCURVE",
"55 879 OFFCURVE",
"89 894 CURVE",
"119 919 OFFCURVE",
"160 1002 OFFCURVE",
"183 1111 CURVE",
"167 1114 LINE",
"150 1068 OFFCURVE",
"134 1034 OFFCURVE",
"119 1011 CURVE SMOOTH",
"86 959 OFFCURVE",
"-12 889 OFFCURVE",
"-43 872 CURVE",
"-39 856 LINE"
);
}
);
width = 0;
},
{
layerId = "0A5D7F3A-D11E-4113-AD15-39410F1DC5C2";
paths = (
{
closed = 1;
nodes = (
"-130 859 LINE",
"-120 900 OFFCURVE",
"-96 940 OFFCURVE",
"-59 978 CURVE SMOOTH",
"-21 1017 OFFCURVE",
"11 1042 OFFCURVE",
"38 1058 CURVE SMOOTH",
"64 1073 OFFCURVE",
"83 1092 OFFCURVE",
"95 1116 CURVE",
"95 1120 LINE",
"82 1126 OFFCURVE",
"24 1137 OFFCURVE",
"-21 1137 CURVE SMOOTH",
"-75 1137 OFFCURVE",
"-100 1122 OFFCURVE",
"-121 1062 CURVE",
"-107 1057 LINE",
"-97 1078 OFFCURVE",
"-87 1083 OFFCURVE",
"-53 1083 CURVE SMOOTH",
"-21 1083 LINE SMOOTH",
"-11 1083 OFFCURVE",
"26 1079 OFFCURVE",
"26 1077 CURVE",
"-81 1009 OFFCURVE",
"-128 945 OFFCURVE",
"-154 879 CURVE",
"-139 859 LINE"
);
},
{
closed = 1;
nodes = (
"34 881 OFFCURVE",
"72 893 OFFCURVE",
"85 903 CURVE SMOOTH",
"106 919 OFFCURVE",
"145 986 OFFCURVE",
"173 1100 CURVE",
"158 1102 LINE",
"146 1068 OFFCURVE",
"133 1038 OFFCURVE",
"119 1014 CURVE SMOOTH",
"86 958 OFFCURVE",
"-6 892 OFFCURVE",
"-31 879 CURVE",
"-29 868 LINE"
);
}
);
width = 0;
}
);
note = RahmatullahAltNS;
},
{
glyphname = SallallahAltNS;
lastChange = "2017-06-19 19:10:36 +0000";
layers = (
{
layerId = "67C28EBA-5AA6-4F74-BBA1-5BB358529C60";
paths = (
{
closed = 1;
nodes = (
"-86 869 OFFCURVE",
"-81 890 OFFCURVE",
"-81 953 CURVE",
"-66 941 OFFCURVE",
"-46 939 OFFCURVE",
"-26 939 CURVE SMOOTH",
"25 939 OFFCURVE",
"70 960 OFFCURVE",
"107 1002 CURVE SMOOTH",
"144 1044 OFFCURVE",
"162 1083 OFFCURVE",
"162 1119 CURVE SMOOTH",
"162 1149 OFFCURVE",
"138 1160 OFFCURVE",
"116 1160 CURVE SMOOTH",
"50 1160 OFFCURVE",
"-1 1101 OFFCURVE",
"-62 1017 CURVE",
"-78 1022 OFFCURVE",
"-87 1038 OFFCURVE",
"-88 1064 CURVE SMOOTH",
"-89 1090 OFFCURVE",
"-93 1113 OFFCURVE",
"-99 1133 CURVE",
"-109 1133 LINE",
"-124 1098 OFFCURVE",
"-129 1085 OFFCURVE",
"-134 1072 CURVE",
"-134 1062 OFFCURVE",
"-131 1043 OFFCURVE",
"-126 1012 CURVE SMOOTH",
"-121 981 OFFCURVE",
"-118 936 OFFCURVE",
"-118 877 CURVE SMOOTH",
"-118 857 OFFCURVE",
"-119 839 OFFCURVE",
"-120 820 CURVE",
"-105 819 LINE"
);
},
{
closed = 1;
nodes = (
"-22 1008 OFFCURVE",
"-29 1008 OFFCURVE",
"-35 1009 CURVE",
"-19 1028 LINE SMOOTH",
"17 1071 OFFCURVE",
"47 1090 OFFCURVE",
"80 1090 CURVE SMOOTH",
"85 1090 OFFCURVE",
"93 1089 OFFCURVE",
"102 1086 CURVE SMOOTH",
"111 1083 OFFCURVE",
"115 1078 OFFCURVE",
"115 1069 CURVE SMOOTH",
"115 1047 OFFCURVE",
"64 1012 OFFCURVE",
"-15 1008 CURVE"
);
}
);
width = 0;
},
{
layerId = "0A5D7F3A-D11E-4113-AD15-39410F1DC5C2";
paths = (
{
closed = 1;
nodes = (
"-79 874 OFFCURVE",
"-75 892 OFFCURVE",
"-75 963 CURVE",
"-62 954 OFFCURVE",
"-42 951 OFFCURVE",
"-24 951 CURVE SMOOTH",
"20 951 OFFCURVE",
"60 970 OFFCURVE",
"94 1008 CURVE SMOOTH",
"130 1048 OFFCURVE",
"145 1079 OFFCURVE",
"145 1110 CURVE SMOOTH",
"145 1125 OFFCURVE",
"135 1141 OFFCURVE",
"110 1141 CURVE SMOOTH",
"51 1141 OFFCURVE",
"-2 1076 OFFCURVE",
"-43 1024 CURVE SMOOTH",
"-47 1019 OFFCURVE",
"-50 1014 OFFCURVE",
"-53 1011 CURVE",
"-70 1017 OFFCURVE",
"-80 1032 OFFCURVE",
"-80 1060 CURVE SMOOTH",
"-80 1084 OFFCURVE",
"-84 1107 OFFCURVE",
"-90 1120 CURVE",
"-94 1120 LINE",
"-117 1063 LINE",
"-117 1055 OFFCURVE",
"-114 1036 OFFCURVE",
"-109 1004 CURVE SMOOTH",
"-104 973 OFFCURVE",
"-102 934 OFFCURVE",
"-102 887 CURVE SMOOTH",
"-102 854 OFFCURVE",
"-103 839 OFFCURVE",
"-104 835 CURVE",
"-95 833 LINE"
);
},
{
closed = 1;
nodes = (
"-21 1004 OFFCURVE",
"-27 1005 OFFCURVE",
"-33 1006 CURVE",
"-19 1023 LINE SMOOTH",
"16 1065 OFFCURVE",
"42 1080 OFFCURVE",
"71 1080 CURVE SMOOTH",
"80 1080 OFFCURVE",
"103 1077 OFFCURVE",
"103 1061 CURVE SMOOTH",
"103 1036 OFFCURVE",
"44 1004 OFFCURVE",
"-17 1004 CURVE SMOOTH"
);
}
);
width = 0;
}
);
note = SallallahAltNS;
},
{
glyphname = ShaddaAltNS;
lastChange = "2017-06-19 19:10:36 +0000";
layers = (
{
layerId = "67C28EBA-5AA6-4F74-BBA1-5BB358529C60";
paths = (
{
closed = 1;
nodes = (
"-45 862 OFFCURVE",
"-18 899 OFFCURVE",
"-6 938 CURVE",
"1 932 OFFCURVE",
"15 928 OFFCURVE",
"27 928 CURVE SMOOTH",
"92 928 OFFCURVE",
"125 994 OFFCURVE",
"125 1060 CURVE SMOOTH",
"125 1077 LINE",
"98 1072 LINE",
"92 1023 OFFCURVE",
"75 996 OFFCURVE",
"45 996 CURVE SMOOTH",
"30 996 OFFCURVE",
"19 1003 OFFCURVE",
"13 1016 CURVE",
"-10 1011 LINE",
"-22 956 OFFCURVE",
"-39 928 OFFCURVE",
"-74 928 CURVE SMOOTH",
"-93 928 OFFCURVE",
"-103 938 OFFCURVE",
"-105 958 CURVE SMOOTH",
"-106 970 LINE",
"-129 966 LINE",
"-136 948 OFFCURVE",
"-139 934 OFFCURVE",
"-139 917 CURVE SMOOTH",
"-139 883 OFFCURVE",
"-117 862 OFFCURVE",
"-88 862 CURVE SMOOTH"
);
}
);
width = 0;
},
{
layerId = "0A5D7F3A-D11E-4113-AD15-39410F1DC5C2";
paths = (
{
closed = 1;
nodes = (
"-45 881 OFFCURVE",
"-24 900 OFFCURVE",
"-6 942 CURVE",
"0 937 OFFCURVE",
"11 934 OFFCURVE",
"19 934 CURVE SMOOTH",
"79 934 OFFCURVE",
"97 995 OFFCURVE",
"97 1043 CURVE SMOOTH",
"97 1054 LINE",
"79 1051 LINE",
"73 1007 OFFCURVE",
"65 985 OFFCURVE",
"40 985 CURVE SMOOTH",
"26 985 OFFCURVE",
"14 991 OFFCURVE",
"8 1003 CURVE",
"-8 1000 LINE",
"-21 949 OFFCURVE",
"-35 932 OFFCURVE",
"-62 932 CURVE SMOOTH",
"-77 932 OFFCURVE",
"-85 939 OFFCURVE",
"-89 961 CURVE",
"-89 966 LINE",
"-102 964 LINE",
"-108 953 OFFCURVE",
"-111 939 OFFCURVE",
"-111 923 CURVE SMOOTH",
"-111 897 OFFCURVE",
"-98 881 OFFCURVE",
"-74 881 CURVE SMOOTH"
);
}
);
width = 0;
}
);
note = ShaddaAltNS;
},
{
glyphname = Tah2DotsAboveAltNS;
lastChange = "2017-06-19 19:10:36 +0000";
layers = (
{
layerId = "67C28EBA-5AA6-4F74-BBA1-5BB358529C60";
paths = (
{
closed = 1;
nodes = (
"12 949 OFFCURVE",
"52 965 OFFCURVE",
"83 997 CURVE SMOOTH",
"114 1029 OFFCURVE",
"129 1062 OFFCURVE",
"129 1096 CURVE SMOOTH",
"129 1111 OFFCURVE",
"118 1128 OFFCURVE",
"92 1128 CURVE SMOOTH",
"53 1128 OFFCURVE",
"23 1106 OFFCURVE",
"-4 1073 CURVE",
"2 1094 OFFCURVE",
"7 1112 OFFCURVE",
"9 1142 CURVE SMOOTH",
"11 1172 LINE SMOOTH",
"14 1216 OFFCURVE",
"17 1260 OFFCURVE",
"25 1283 CURVE",
"10 1286 LINE",
"-12 1248 OFFCURVE",
"-24 1221 OFFCURVE",
"-26 1187 CURVE SMOOTH",
"-30 1108 LINE SMOOTH",
"-32 1077 OFFCURVE",
"-34 1056 OFFCURVE",
"-35 1043 CURVE SMOOTH",
"-36 1029 OFFCURVE",
"-49 1010 OFFCURVE",
"-74 985 CURVE",
"-90 980 OFFCURVE",
"-121 976 OFFCURVE",
"-135 974 CURVE",
"-137 955 LINE",
"-110 950 OFFCURVE",
"-70 949 OFFCURVE",
"-39 949 CURVE SMOOTH"
);
},
{
closed = 1;
nodes = (
"-50 780 LINE",
"-25 796 OFFCURVE",
"-6 814 OFFCURVE",
"3 828 CURVE",
"28 805 OFFCURVE",
"36 798 OFFCURVE",
"41 792 CURVE",
"47 792 LINE",
"87 818 OFFCURVE",
"108 843 OFFCURVE",
"108 860 CURVE SMOOTH",
"108 879 OFFCURVE",
"92 894 OFFCURVE",
"51 921 CURVE",
"45 921 LINE",
"29 908 OFFCURVE",
"15 893 OFFCURVE",
"-1 874 CURVE",
"-10 885 OFFCURVE",
"-25 897 OFFCURVE",
"-46 909 CURVE",
"-52 909 LINE",
"-67 898 OFFCURVE",
"-102 861 OFFCURVE",
"-115 840 CURVE",
"-115 833 LINE",
"-95 817 OFFCURVE",
"-76 802 OFFCURVE",
"-56 780 CURVE"
);
},
{
closed = 1;
nodes = (
"-8 1030 OFFCURVE",
"28 1071 OFFCURVE",
"67 1071 CURVE SMOOTH",
"76 1071 OFFCURVE",
"92 1070 OFFCURVE",
"92 1054 CURVE SMOOTH",
"92 1037 OFFCURVE",
"53 1014 OFFCURVE",
"-32 994 CURVE"
);
}
);
width = 0;
},
{
layerId = "0A5D7F3A-D11E-4113-AD15-39410F1DC5C2";
paths = (
{
closed = 1;
nodes = (
"-13 958 OFFCURVE",
"10 962 OFFCURVE",
"32 971 CURVE SMOOTH",
"76 989 OFFCURVE",
"116 1049 OFFCURVE",
"116 1091 CURVE SMOOTH",
"116 1102 OFFCURVE",
"106 1119 OFFCURVE",
"82 1119 CURVE SMOOTH",
"44 1119 OFFCURVE",
"16 1091 OFFCURVE",
"-3 1068 CURVE",
"2 1089 OFFCURVE",
"7 1112 OFFCURVE",
"8 1132 CURVE SMOOTH",
"12 1202 OFFCURVE",
"17 1244 OFFCURVE",
"21 1259 CURVE",
"8 1262 LINE",
"-2 1245 OFFCURVE",
"-9 1230 OFFCURVE",
"-14 1217 CURVE SMOOTH",
"-25 1189 OFFCURVE",
"-25 1182 OFFCURVE",
"-27 1100 CURVE SMOOTH",
"-28 1073 OFFCURVE",
"-33 1040 OFFCURVE",
"-36 1029 CURVE",
"-67 990 LINE",
"-93 984 OFFCURVE",
"-111 981 OFFCURVE",
"-123 981 CURVE",
"-125 963 LINE",
"-101 960 OFFCURVE",
"-71 958 OFFCURVE",
"-36 958 CURVE SMOOTH"
);
},
{
closed = 1;
nodes = (
"-49 805 LINE",
"-25 823 OFFCURVE",
"-8 840 OFFCURVE",
"-1 853 CURVE",
"42 814 LINE",
"47 814 LINE",
"81 838 OFFCURVE",
"100 859 OFFCURVE",
"100 875 CURVE SMOOTH",
"100 892 OFFCURVE",
"85 907 OFFCURVE",
"50 929 CURVE",
"45 929 LINE",
"39 924 OFFCURVE",
"14 900 OFFCURVE",
"-1 881 CURVE",
"-8 893 OFFCURVE",
"-22 905 OFFCURVE",
"-46 920 CURVE",
"-52 920 LINE",
"-60 915 OFFCURVE",
"-95 878 OFFCURVE",
"-108 859 CURVE",
"-108 854 LINE",
"-90 839 OFFCURVE",
"-73 822 OFFCURVE",
"-55 805 CURVE"
);
},
{
closed = 1;
nodes = (
"5 1040 OFFCURVE",
"25 1069 OFFCURVE",
"55 1069 CURVE SMOOTH",
"66 1069 OFFCURVE",
"78 1063 OFFCURVE",
"78 1051 CURVE SMOOTH",
"78 1029 OFFCURVE",
"4 1003 OFFCURVE",
"-29 999 CURVE"
);
}
);
width = 0;
}
);
note = Tah2DotsAboveAltNS;
},
{
glyphname = SukunHahAltNS;
lastChange = "2017-06-19 19:10:36 +0000";
layers = (
{
layerId = "67C28EBA-5AA6-4F74-BBA1-5BB358529C60";
paths = (
{
closed = 1;
nodes = (
"-72 875 OFFCURVE",
"-48 879 OFFCURVE",
"-13 886 CURVE SMOOTH",
"37 896 OFFCURVE",
"122 971 OFFCURVE",
"127 981 CURVE",
"123 998 LINE",
"44 1032 OFFCURVE",
"-6 1038 OFFCURVE",
"-31 1038 CURVE SMOOTH",
"-71 1038 OFFCURVE",
"-96 998 OFFCURVE",
"-109 968 CURVE",
"-92 963 LINE",
"-85 970 OFFCURVE",
"-77 974 OFFCURVE",
"-61 974 CURVE SMOOTH",
"-29 974 OFFCURVE",
"12 963 OFFCURVE",
"41 952 CURVE",
"41 949 LINE",
"33 938 OFFCURVE",
"-24 916 OFFCURVE",
"-111 892 CURVE",
"-109 870 LINE"
);
}
);
width = 0;
},
{
layerId = "0A5D7F3A-D11E-4113-AD15-39410F1DC5C2";
paths = (
{
closed = 1;
nodes = (
"-83 879 OFFCURVE",
"-74 879 OFFCURVE",
"-11 892 CURVE SMOOTH",
"33 901 OFFCURVE",
"111 969 OFFCURVE",
"116 979 CURVE",
"112 994 LINE",
"43 1024 OFFCURVE",
"-6 1030 OFFCURVE",
"-33 1030 CURVE SMOOTH",
"-62 1030 OFFCURVE",
"-83 1000 OFFCURVE",
"-97 967 CURVE",
"-86 961 LINE",
"-81 966 OFFCURVE",
"-71 972 OFFCURVE",
"-55 972 CURVE SMOOTH",
"-34 972 OFFCURVE",
"2 966 OFFCURVE",
"46 951 CURVE",
"46 948 LINE",
"39 939 OFFCURVE",
"-25 913 OFFCURVE",
"-99 893 CURVE",
"-98 878 LINE"
);
}
);
width = 0;
}
);
note = SukunHahAltNS;
},
{
glyphname = SukunJazmAltNS;
lastChange = "2017-06-19 19:10:36 +0000";
layers = (
{
layerId = "67C28EBA-5AA6-4F74-BBA1-5BB358529C60";
paths = (
{
closed = 1;
nodes = (
"-105 905 OFFCURVE",
"-54 945 OFFCURVE",
"-6 982 CURVE",
"63 939 OFFCURVE",
"103 916 OFFCURVE",
"133 891 CURVE",
"148 899 LINE",
"145 925 OFFCURVE",
"138 946 OFFCURVE",
"125 962 CURVE SMOOTH",
"97 996 OFFCURVE",
"29 1045 OFFCURVE",
"-1 1063 CURVE",
"-14 1061 LINE",
"-102 981 OFFCURVE",
"-150 931 OFFCURVE",
"-153 872 CURVE",
"-137 869 LINE"
);
}
);
width = 0;
},
{
layerId = "0A5D7F3A-D11E-4113-AD15-39410F1DC5C2";
paths = (
{
closed = 1;
nodes = (
"-102 908 OFFCURVE",
"-66 941 OFFCURVE",
"-5 989 CURVE",
"48 956 OFFCURVE",
"105 915 OFFCURVE",
"125 900 CURVE",
"134 904 LINE",
"128 952 OFFCURVE",
"113 969 OFFCURVE",
"63 1009 CURVE SMOOTH",
"30 1035 OFFCURVE",
"23 1039 OFFCURVE",
"-1 1054 CURVE",
"-13 1052 LINE",
"-112 965 OFFCURVE",
"-137 923 OFFCURVE",
"-139 881 CURVE",
"-129 879 LINE"
);
}
);
width = 0;
}
);
note = SukunJazmAltNS;
},
{
glyphname = WavyHamzaAboveAltNS;
lastChange = "2017-06-19 19:10:36 +0000";
layers = (
{
layerId = "67C28EBA-5AA6-4F74-BBA1-5BB358529C60";
paths = (
{
closed = 1;
nodes = (
"-141 805 LINE",
"-133 833 OFFCURVE",
"-113 855 OFFCURVE",
"-66 855 CURVE SMOOTH",
"-21 855 OFFCURVE",
"23 867 OFFCURVE",
"65 887 CURVE SMOOTH",
"107 907 OFFCURVE",
"136 938 OFFCURVE",
"151 980 CURVE",
"137 989 LINE",
"116 969 OFFCURVE",
"78 943 OFFCURVE",
"52 943 CURVE SMOOTH",
"17 943 OFFCURVE",
"-7 959 OFFCURVE",
"-7 983 CURVE SMOOTH",
"-7 1008 OFFCURVE",
"16 1027 OFFCURVE",
"45 1027 CURVE SMOOTH",
"59 1027 OFFCURVE",
"75 1020 OFFCURVE",
"83 1008 CURVE",
"91 1008 LINE",
"99 1014 OFFCURVE",
"109 1024 OFFCURVE",
"109 1043 CURVE SMOOTH",
"109 1066 OFFCURVE",
"89 1075 OFFCURVE",
"64 1075 CURVE SMOOTH",
"11 1075 OFFCURVE",
"-75 990 OFFCURVE",
"-75 937 CURVE SMOOTH",
"-75 926 OFFCURVE",
"-72 916 OFFCURVE",
"-67 909 CURVE",
"-68 906 LINE",
"-72 906 LINE SMOOTH",
"-132 906 OFFCURVE",
"-159 877 OFFCURVE",
"-159 826 CURVE SMOOTH",
"-159 818 OFFCURVE",
"-158 811 OFFCURVE",
"-157 805 CURVE"
);
}
);
width = 0;
},
{
layerId = "0A5D7F3A-D11E-4113-AD15-39410F1DC5C2";
paths = (
{
closed = 1;
nodes = (
"-147 812 LINE",
"-139 844 OFFCURVE",
"-111 860 OFFCURVE",
"-66 861 CURVE SMOOTH",
"7 863 OFFCURVE",
"106 891 OFFCURVE",
"138 980 CURVE",
"129 985 LINE",
"102 958 OFFCURVE",
"71 943 OFFCURVE",
"52 943 CURVE SMOOTH",
"14 943 OFFCURVE",
"-11 960 OFFCURVE",
"-11 984 CURVE SMOOTH",
"-11 1010 OFFCURVE",
"20 1025 OFFCURVE",
"42 1025 CURVE SMOOTH",
"55 1025 OFFCURVE",
"66 1020 OFFCURVE",
"76 1011 CURVE",
"80 1011 LINE",
"88 1014 OFFCURVE",
"96 1025 OFFCURVE",
"96 1038 CURVE SMOOTH",
"96 1059 OFFCURVE",
"76 1066 OFFCURVE",
"59 1066 CURVE SMOOTH",
"11 1066 OFFCURVE",
"-65 992 OFFCURVE",
"-65 941 CURVE SMOOTH",
"-65 922 OFFCURVE",
"-58 916 OFFCURVE",
"-50 910 CURVE",
"-51 906 LINE",
"-64 906 LINE SMOOTH",
"-139 906 OFFCURVE",
"-159 871 OFFCURVE",
"-159 825 CURVE SMOOTH",
"-159 820 OFFCURVE",
"-158 815 OFFCURVE",
"-158 812 CURVE"
);
}
);
width = 0;
}
);
note = WavyHamzaAboveAltNS;
},
{
glyphname = SukunAltNS;
lastChange = "2017-06-19 19:10:36 +0000";
layers = (
{
layerId = "67C28EBA-5AA6-4F74-BBA1-5BB358529C60";
paths = (
{
closed = 1;
nodes = (
"44 860 OFFCURVE",
"82 901 OFFCURVE",
"82 962 CURVE SMOOTH",
"82 1016 OFFCURVE",
"50 1065 OFFCURVE",
"7 1065 CURVE SMOOTH",
"-50 1065 OFFCURVE",
"-84 998 OFFCURVE",
"-84 940 CURVE SMOOTH",
"-84 897 OFFCURVE",
"-59 860 OFFCURVE",
"-10 860 CURVE SMOOTH"
);
},
{
closed = 1;
nodes = (
"-27 920 OFFCURVE",
"-50 926 OFFCURVE",
"-50 956 CURVE SMOOTH",
"-50 983 OFFCURVE",
"-28 1003 OFFCURVE",
"-1 1003 CURVE SMOOTH",
"30 1003 OFFCURVE",
"49 987 OFFCURVE",
"49 964 CURVE SMOOTH",
"49 936 OFFCURVE",
"26 920 OFFCURVE",
"-3 920 CURVE SMOOTH"
);
}
);
width = 0;
},
{
layerId = "0A5D7F3A-D11E-4113-AD15-39410F1DC5C2";
paths = (
{
closed = 1;
nodes = (
"43 869 OFFCURVE",
"74 908 OFFCURVE",
"74 961 CURVE SMOOTH",
"74 1004 OFFCURVE",
"47 1056 OFFCURVE",
"6 1056 CURVE SMOOTH",
"-47 1056 OFFCURVE",
"-76 994 OFFCURVE",
"-76 942 CURVE SMOOTH",
"-76 896 OFFCURVE",
"-48 869 OFFCURVE",
"-9 869 CURVE SMOOTH"
);
},
{
closed = 1;
nodes = (
"-40 919 OFFCURVE",
"-46 941 OFFCURVE",
"-46 957 CURVE SMOOTH",
"-46 982 OFFCURVE",
"-26 1003 OFFCURVE",
"-1 1003 CURVE SMOOTH",
"21 1003 OFFCURVE",
"46 988 OFFCURVE",
"46 964 CURVE SMOOTH",
"46 935 OFFCURVE",
"21 919 OFFCURVE",
"-2 919 CURVE SMOOTH"
);
}
);
width = 0;
}
);
note = SukunAltNS;
},
{
glyphname = SukunZeroAltNS;
lastChange = "2017-06-19 19:10:36 +0000";
layers = (
{
layerId = "67C28EBA-5AA6-4F74-BBA1-5BB358529C60";
paths = (
{
closed = 1;
nodes = (
"65 845 OFFCURVE",
"111 895 OFFCURVE",
"111 967 CURVE SMOOTH",
"111 1046 OFFCURVE",
"75 1105 OFFCURVE",
"-3 1105 CURVE SMOOTH",
"-66 1105 OFFCURVE",
"-113 1054 OFFCURVE",
"-113 983 CURVE SMOOTH",
"-113 895 OFFCURVE",
"-70 845 OFFCURVE",
"1 845 CURVE SMOOTH"
);
},
{
closed = 1;
nodes = (
"-23 872 OFFCURVE",
"-35 918 OFFCURVE",
"-35 1011 CURVE SMOOTH",
"-35 1061 OFFCURVE",
"-25 1078 OFFCURVE",
"-3 1078 CURVE SMOOTH",
"21 1078 OFFCURVE",
"33 1032 OFFCURVE",
"33 939 CURVE SMOOTH",
"33 889 OFFCURVE",
"23 872 OFFCURVE",
"1 872 CURVE SMOOTH"
);
}
);
width = 0;
},
{
layerId = "0A5D7F3A-D11E-4113-AD15-39410F1DC5C2";
paths = (
{
closed = 1;
nodes = (
"53 857 OFFCURVE",
"87 904 OFFCURVE",
"87 968 CURVE SMOOTH",
"87 1043 OFFCURVE",
"58 1092 OFFCURVE",
"-2 1092 CURVE SMOOTH",
"-52 1092 OFFCURVE",
"-89 1048 OFFCURVE",
"-89 982 CURVE SMOOTH",
"-89 901 OFFCURVE",
"-56 857 OFFCURVE",
"1 857 CURVE SMOOTH"
);
},
{
closed = 1;
nodes = (
"-21 881 OFFCURVE",
"-32 923 OFFCURVE",
"-32 1008 CURVE SMOOTH",
"-32 1051 OFFCURVE",
"-24 1069 OFFCURVE",
"-2 1069 CURVE SMOOTH",
"19 1069 OFFCURVE",
"30 1026 OFFCURVE",
"30 941 CURVE SMOOTH",
"30 900 OFFCURVE",
"23 881 OFFCURVE",
"1 881 CURVE SMOOTH"
);
}
);
width = 0;
}
);
note = SukunZeroAltNS;
},
{
glyphname = TahSmallAltNS;
lastChange = "2017-06-19 19:10:36 +0000";
layers = (
{
layerId = "67C28EBA-5AA6-4F74-BBA1-5BB358529C60";
paths = (
{
closed = 1;
nodes = (
"13 822 OFFCURVE",
"58 840 OFFCURVE",
"92 877 CURVE SMOOTH",
"125 913 OFFCURVE",
"142 949 OFFCURVE",
"142 984 CURVE SMOOTH",
"142 1003 OFFCURVE",
"129 1020 OFFCURVE",
"101 1020 CURVE SMOOTH",
"65 1020 OFFCURVE",
"30 1001 OFFCURVE",
"-5 959 CURVE",
"-6 962 LINE",
"6 1000 OFFCURVE",
"9 1016 OFFCURVE",
"10 1035 CURVE SMOOTH",
"12 1068 LINE SMOOTH",
"16 1134 OFFCURVE",
"21 1172 OFFCURVE",
"27 1191 CURVE",
"10 1194 LINE",
"-15 1153 OFFCURVE",
"-27 1121 OFFCURVE",
"-29 1086 CURVE SMOOTH",
"-37 946 LINE SMOOTH",
"-39 914 OFFCURVE",
"-45 899 OFFCURVE",
"-82 862 CURVE",
"-99 857 OFFCURVE",
"-123 854 OFFCURVE",
"-150 850 CURVE",
"-152 829 LINE",
"-123 823 OFFCURVE",
"-82 822 OFFCURVE",
"-44 822 CURVE SMOOTH"
);
},
{
closed = 1;
nodes = (
"-15 900 LINE SMOOTH",
"14 938 OFFCURVE",
"45 957 OFFCURVE",
"72 957 CURVE SMOOTH",
"82 957 OFFCURVE",
"99 954 OFFCURVE",
"99 938 CURVE SMOOTH",
"99 922 OFFCURVE",
"62 894 OFFCURVE",
"-36 872 CURVE"
);
}
);
width = 0;
},
{
layerId = "0A5D7F3A-D11E-4113-AD15-39410F1DC5C2";
paths = (
{
closed = 1;
nodes = (
"-14 838 OFFCURVE",
"10 843 OFFCURVE",
"35 854 CURVE SMOOTH",
"85 875 OFFCURVE",
"129 938 OFFCURVE",
"129 986 CURVE SMOOTH",
"129 1000 OFFCURVE",
"117 1018 OFFCURVE",
"90 1018 CURVE SMOOTH",
"48 1018 OFFCURVE",
"18 985 OFFCURVE",
"-4 960 CURVE",
"3 984 OFFCURVE",
"7 1007 OFFCURVE",
"9 1033 CURVE SMOOTH",
"15 1110 OFFCURVE",
"19 1157 OFFCURVE",
"24 1173 CURVE",
"9 1177 LINE",
"-29 1111 OFFCURVE",
"-27 1096 OFFCURVE",
"-31 996 CURVE SMOOTH",
"-33 955 OFFCURVE",
"-36 930 OFFCURVE",
"-41 917 CURVE",
"-75 875 LINE",
"-103 869 OFFCURVE",
"-124 865 OFFCURVE",
"-137 864 CURVE",
"-139 845 LINE",
"-112 840 OFFCURVE",
"-79 838 OFFCURVE",
"-41 838 CURVE SMOOTH"
);
},
{
closed = 1;
nodes = (
"15 945 OFFCURVE",
"32 961 OFFCURVE",
"62 961 CURVE SMOOTH",
"76 961 OFFCURVE",
"87 954 OFFCURVE",
"87 942 CURVE SMOOTH",
"87 914 OFFCURVE",
"-11 888 OFFCURVE",
"-33 884 CURVE"
);
}
);
width = 0;
}
);
note = TahSmallAltNS;
},
{
glyphname = TakhallusAltNS;
lastChange = "2017-06-19 19:10:36 +0000";
layers = (
{
layerId = "67C28EBA-5AA6-4F74-BBA1-5BB358529C60";
paths = (
{
closed = 1;
nodes = (
"-104 882 OFFCURVE",
"-73 890 OFFCURVE",
"-39 906 CURVE SMOOTH",
"-5 922 OFFCURVE",
"20 938 OFFCURVE",
"36 952 CURVE SMOOTH",
"52 966 OFFCURVE",
"62 973 OFFCURVE",
"66 973 CURVE SMOOTH",
"70 973 OFFCURVE",
"77 969 OFFCURVE",
"87 960 CURVE SMOOTH",
"97 951 OFFCURVE",
"109 947 OFFCURVE",
"123 947 CURVE SMOOTH",
"159 947 OFFCURVE",
"184 975 OFFCURVE",
"207 1055 CURVE",
"185 1060 LINE",
"174 1032 OFFCURVE",
"163 1017 OFFCURVE",
"141 1017 CURVE SMOOTH",
"133 1017 OFFCURVE",
"125 1021 OFFCURVE",
"117 1029 CURVE",
"108 1037 OFFCURVE",
"100 1041 OFFCURVE",
"93 1041 CURVE SMOOTH",
"86 1041 OFFCURVE",
"76 1034 OFFCURVE",
"65 1020 CURVE SMOOTH",
"54 1005 OFFCURVE",
"30 991 OFFCURVE",
"-7 974 CURVE SMOOTH",
"-44 957 OFFCURVE",
"-119 945 OFFCURVE",
"-234 936 CURVE",
"-237 925 LINE",
"-224 914 OFFCURVE",
"-161 887 OFFCURVE",
"-132 882 CURVE"
);
}
);
width = 0;
},
{
layerId = "0A5D7F3A-D11E-4113-AD15-39410F1DC5C2";
paths = (
{
closed = 1;
nodes = (
"-85 892 OFFCURVE",
"-56 900 OFFCURVE",
"-26 916 CURVE SMOOTH",
"3 931 OFFCURVE",
"24 944 OFFCURVE",
"36 956 CURVE SMOOTH",
"47 967 OFFCURVE",
"55 973 OFFCURVE",
"59 973 CURVE SMOOTH",
"62 973 OFFCURVE",
"68 969 OFFCURVE",
"79 961 CURVE",
"89 953 OFFCURVE",
"100 948 OFFCURVE",
"110 948 CURVE SMOOTH",
"147 948 OFFCURVE",
"167 982 OFFCURVE",
"186 1047 CURVE",
"168 1053 LINE",
"154 1021 OFFCURVE",
"141 1013 OFFCURVE",
"126 1013 CURVE SMOOTH",
"119 1013 OFFCURVE",
"112 1017 OFFCURVE",
"105 1024 CURVE SMOOTH",
"98 1031 OFFCURVE",
"91 1035 OFFCURVE",
"84 1035 CURVE SMOOTH",
"77 1035 OFFCURVE",
"69 1028 OFFCURVE",
"58 1014 CURVE SMOOTH",
"47 1000 OFFCURVE",
"24 986 OFFCURVE",
"-12 971 CURVE SMOOTH",
"-47 957 OFFCURVE",
"-114 946 OFFCURVE",
"-213 938 CURVE",
"-217 932 LINE",
"-207 922 OFFCURVE",
"-172 909 OFFCURVE",
"-114 892 CURVE"
);
}
);
width = 0;
}
);
note = TakhallusAltNS;
},
{
glyphname = OneDotBelowAltNS;
lastChange = "2017-06-19 19:10:36 +0000";
layers = (
{
layerId = "67C28EBA-5AA6-4F74-BBA1-5BB358529C60";
paths = (
{
closed = 1;
nodes = (
"3 -196 LINE",
"49 -164 OFFCURVE",
"95 -124 OFFCURVE",
"95 -91 CURVE SMOOTH",
"95 -59 OFFCURVE",
"64 -34 OFFCURVE",
"9 1 CURVE",
"-1 1 LINE",
"-18 -10 OFFCURVE",
"-79 -77 OFFCURVE",
"-97 -105 CURVE",
"-97 -115 LINE",
"-68 -136 OFFCURVE",
"-48 -154 OFFCURVE",
"-5 -196 CURVE"
);
}
);
width = 0;
},
{
layerId = "0A5D7F3A-D11E-4113-AD15-39410F1DC5C2";
paths = (
{
closed = 1;
nodes = (
"4 -187 LINE",
"60 -147 OFFCURVE",
"87 -116 OFFCURVE",
"87 -92 CURVE SMOOTH",
"87 -66 OFFCURVE",
"61 -41 OFFCURVE",
"9 -8 CURVE",
"0 -8 LINE",
"-17 -19 OFFCURVE",
"-69 -78 OFFCURVE",
"-87 -104 CURVE",
"-87 -112 LINE",
"-60 -133 OFFCURVE",
"-32 -158 OFFCURVE",
"-4 -187 CURVE"
);
}
);
width = 0;
}
);
note = OneDotBelowAltNS;
},
{
glyphname = TwoDotsBelowAltNS;
lastChange = "2017-06-19 19:10:36 +0000";
layers = (
{
layerId = "67C28EBA-5AA6-4F74-BBA1-5BB358529C60";
paths = (
{
closed = 1;
nodes = (
"-70 -207 LINE",
"-33 -182 OFFCURVE",
"-5 -157 OFFCURVE",
"10 -134 CURVE",
"26 -147 OFFCURVE",
"42 -162 OFFCURVE",
"70 -189 CURVE",
"78 -189 LINE",
"124 -157 OFFCURVE",
"170 -117 OFFCURVE",
"170 -84 CURVE SMOOTH",
"170 -52 OFFCURVE",
"139 -27 OFFCURVE",
"84 8 CURVE",
"74 8 LINE",
"62 0 OFFCURVE",
"32 -31 OFFCURVE",
"4 -64 CURVE",
"-9 -49 OFFCURVE",
"-30 -32 OFFCURVE",
"-64 -10 CURVE",
"-74 -10 LINE",
"-91 -21 OFFCURVE",
"-152 -88 OFFCURVE",
"-170 -116 CURVE",
"-170 -126 LINE",
"-141 -147 OFFCURVE",
"-129 -158 OFFCURVE",
"-78 -207 CURVE"
);
}
);
width = 0;
},
{
layerId = "0A5D7F3A-D11E-4113-AD15-39410F1DC5C2";
paths = (
{
closed = 1;
nodes = (
"-68 -198 LINE",
"-26 -168 OFFCURVE",
"0 -142 OFFCURVE",
"9 -121 CURVE",
"29 -137 OFFCURVE",
"50 -156 OFFCURVE",
"73 -179 CURVE",
"82 -179 LINE",
"135 -141 OFFCURVE",
"162 -109 OFFCURVE",
"162 -84 CURVE SMOOTH",
"162 -57 OFFCURVE",
"136 -33 OFFCURVE",
"83 0 CURVE",
"75 0 LINE",
"63 -7 OFFCURVE",
"28 -45 OFFCURVE",
"4 -74 CURVE",
"-8 -56 OFFCURVE",
"-31 -39 OFFCURVE",
"-64 -19 CURVE",
"-73 -19 LINE",
"-89 -28 OFFCURVE",
"-143 -89 OFFCURVE",
"-160 -114 CURVE",
"-160 -123 LINE",
"-134 -144 OFFCURVE",
"-106 -169 OFFCURVE",
"-77 -198 CURVE"
);
}
);
width = 0;
}
);
note = TwoDotsBelowAltNS;
},
{
glyphname = ThreeDotsDownBelowAltNS;
lastChange = "2017-06-19 19:10:36 +0000";
layers = (
{
layerId = "67C28EBA-5AA6-4F74-BBA1-5BB358529C60";
paths = (
{
closed = 1;
nodes = (
"-72 -207 LINE",
"-35 -180 OFFCURVE",
"-8 -154 OFFCURVE",
"6 -133 CURVE",
"53 -174 OFFCURVE",
"60 -180 OFFCURVE",
"68 -189 CURVE",
"76 -189 LINE",
"122 -157 OFFCURVE",
"168 -117 OFFCURVE",
"168 -84 CURVE SMOOTH",
"168 -52 OFFCURVE",
"137 -27 OFFCURVE",
"82 8 CURVE",
"72 8 LINE",
"61 1 OFFCURVE",
"32 -29 OFFCURVE",
"2 -63 CURVE",
"-11 -49 OFFCURVE",
"-32 -32 OFFCURVE",
"-66 -10 CURVE",
"-76 -10 LINE",
"-93 -21 OFFCURVE",
"-154 -88 OFFCURVE",
"-172 -116 CURVE",
"-172 -126 LINE",
"-143 -147 OFFCURVE",
"-127 -162 OFFCURVE",
"-80 -207 CURVE"
);
},
{
closed = 1;
nodes = (
"4 -343 LINE",
"56 -304 OFFCURVE",
"82 -280 OFFCURVE",
"82 -256 CURVE SMOOTH",
"82 -229 OFFCURVE",
"43 -198 OFFCURVE",
"11 -176 CURVE",
"3 -176 LINE",
"-19 -190 OFFCURVE",
"-62 -233 OFFCURVE",
"-83 -264 CURVE",
"-83 -272 LINE",
"-50 -298 OFFCURVE",
"-43 -306 OFFCURVE",
"-5 -343 CURVE"
);
}
);
width = 0;
},
{
layerId = "0A5D7F3A-D11E-4113-AD15-39410F1DC5C2";
paths = (
{
closed = 1;
nodes = (
"-70 -198 LINE",
"-28 -168 OFFCURVE",
"-2 -142 OFFCURVE",
"7 -121 CURVE",
"27 -137 OFFCURVE",
"48 -156 OFFCURVE",
"71 -179 CURVE",
"80 -179 LINE",
"133 -141 OFFCURVE",
"160 -109 OFFCURVE",
"160 -84 CURVE SMOOTH",
"160 -57 OFFCURVE",
"134 -33 OFFCURVE",
"82 0 CURVE",
"73 0 LINE",
"61 -7 OFFCURVE",
"25 -45 OFFCURVE",
"2 -74 CURVE",
"-10 -57 OFFCURVE",
"-33 -40 OFFCURVE",
"-66 -19 CURVE",
"-75 -19 LINE",
"-90 -28 OFFCURVE",
"-144 -88 OFFCURVE",
"-162 -114 CURVE",
"-162 -123 LINE",
"-135 -144 OFFCURVE",
"-108 -169 OFFCURVE",
"-79 -198 CURVE"
);
},
{
closed = 1;
nodes = (
"5 -342 LINE",
"66 -297 OFFCURVE",
"83 -275 OFFCURVE",
"83 -255 CURVE SMOOTH",
"83 -234 OFFCURVE",
"60 -208 OFFCURVE",
"12 -175 CURVE",
"4 -175 LINE",
"-6 -181 OFFCURVE",
"-53 -224 OFFCURVE",
"-82 -263 CURVE",
"-82 -271 LINE",
"-74 -276 OFFCURVE",
"-20 -323 OFFCURVE",
"-3 -342 CURVE"
);
}
);
width = 0;
}
);
note = ThreeDotsDownBelowAltNS;
},
{
glyphname = HamzaBelowAltNS;
lastChange = "2017-06-19 19:10:36 +0000";
layers = (
{
layerId = "67C28EBA-5AA6-4F74-BBA1-5BB358529C60";
paths = (
{
closed = 1;
nodes = (
"-68 -288 OFFCURVE",
"-40 -265 OFFCURVE",
"-13 -218 CURVE SMOOTH",
"14 -171 OFFCURVE",
"37 -148 OFFCURVE",
"56 -148 CURVE SMOOTH",
"74 -148 OFFCURVE",
"84 -159 OFFCURVE",
"84 -172 CURVE SMOOTH",
"84 -175 OFFCURVE",
"83 -179 OFFCURVE",
"82 -183 CURVE",
"100 -188 LINE",
"117 -168 OFFCURVE",
"134 -123 OFFCURVE",
"134 -96 CURVE SMOOTH",
"134 -60 OFFCURVE",
"112 -50 OFFCURVE",
"92 -50 CURVE SMOOTH",
"62 -50 OFFCURVE",
"42 -71 OFFCURVE",
"17 -110 CURVE SMOOTH",
"-12 -155 LINE SMOOTH",
"-30 -182 OFFCURVE",
"-45 -190 OFFCURVE",
"-59 -190 CURVE SMOOTH",
"-76 -190 OFFCURVE",
"-84 -181 OFFCURVE",
"-84 -167 CURVE SMOOTH",
"-84 -163 OFFCURVE",
"-83 -159 OFFCURVE",
"-82 -155 CURVE",
"-101 -150 LINE",
"-116 -168 OFFCURVE",
"-137 -206 OFFCURVE",
"-137 -243 CURVE SMOOTH",
"-137 -272 OFFCURVE",
"-121 -288 OFFCURVE",
"-98 -288 CURVE SMOOTH"
);
}
);
width = 0;
},
{
layerId = "0A5D7F3A-D11E-4113-AD15-39410F1DC5C2";
paths = (
{
closed = 1;
nodes = (
"-65 -277 OFFCURVE",
"-44 -259 OFFCURVE",
"-19 -220 CURVE SMOOTH",
"15 -168 LINE SMOOTH",
"32 -143 OFFCURVE",
"42 -135 OFFCURVE",
"55 -135 CURVE SMOOTH",
"64 -135 OFFCURVE",
"75 -142 OFFCURVE",
"75 -161 CURVE",
"91 -165 LINE",
"108 -146 OFFCURVE",
"122 -120 OFFCURVE",
"122 -94 CURVE SMOOTH",
"122 -68 OFFCURVE",
"104 -61 OFFCURVE",
"88 -61 CURVE SMOOTH",
"64 -61 OFFCURVE",
"45 -75 OFFCURVE",
"17 -117 CURVE SMOOTH",
"-18 -169 LINE SMOOTH",
"-36 -196 OFFCURVE",
"-45 -202 OFFCURVE",
"-58 -202 CURVE SMOOTH",
"-68 -202 OFFCURVE",
"-77 -193 OFFCURVE",
"-77 -177 CURVE",
"-94 -173 LINE",
"-111 -191 OFFCURVE",
"-125 -218 OFFCURVE",
"-125 -244 CURVE SMOOTH",
"-125 -266 OFFCURVE",
"-112 -277 OFFCURVE",
"-90 -277 CURVE SMOOTH"
);
}
);
width = 0;
}
);
note = HamzaBelowAltNS;
},
{
glyphname = HamzaBelowAF_AltNS;
lastChange = "2017-06-19 19:10:36 +0000";
layers = (
{
layerId = "67C28EBA-5AA6-4F74-BBA1-5BB358529C60";
paths = (
{
closed = 1;
nodes = (
"-79 -317 OFFCURVE",
"-42 -296 OFFCURVE",
"4 -275 CURVE SMOOTH",
"93 -234 OFFCURVE",
"125 -220 OFFCURVE",
"145 -160 CURVE",
"131 -151 LINE",
"104 -176 OFFCURVE",
"67 -197 OFFCURVE",
"46 -197 CURVE SMOOTH",
"11 -197 OFFCURVE",
"-13 -181 OFFCURVE",
"-13 -157 CURVE SMOOTH",
"-13 -132 OFFCURVE",
"10 -113 OFFCURVE",
"39 -113 CURVE SMOOTH",
"53 -113 OFFCURVE",
"69 -120 OFFCURVE",
"77 -132 CURVE",
"85 -132 LINE",
"93 -126 OFFCURVE",
"103 -116 OFFCURVE",
"103 -97 CURVE SMOOTH",
"103 -85 OFFCURVE",
"98 -77 OFFCURVE",
"89 -72 CURVE",
"79 -67 OFFCURVE",
"69 -65 OFFCURVE",
"58 -65 CURVE SMOOTH",
"5 -65 OFFCURVE",
"-81 -150 OFFCURVE",
"-81 -203 CURVE SMOOTH",
"-81 -225 OFFCURVE",
"-68 -241 OFFCURVE",
"-57 -248 CURVE",
"-58 -252 LINE",
"-82 -266 OFFCURVE",
"-108 -291 OFFCURVE",
"-119 -327 CURVE",
"-107 -338 LINE"
);
}
);
width = 0;
},
{
layerId = "0A5D7F3A-D11E-4113-AD15-39410F1DC5C2";
paths = (
{
closed = 1;
nodes = (
"-66 -304 OFFCURVE",
"-31 -284 OFFCURVE",
"9 -266 CURVE SMOOTH",
"99 -226 OFFCURVE",
"116 -212 OFFCURVE",
"133 -164 CURVE",
"124 -158 LINE",
"106 -176 OFFCURVE",
"72 -200 OFFCURVE",
"46 -200 CURVE SMOOTH",
"8 -200 OFFCURVE",
"-16 -183 OFFCURVE",
"-16 -159 CURVE SMOOTH",
"-16 -133 OFFCURVE",
"14 -119 OFFCURVE",
"36 -119 CURVE SMOOTH",
"49 -119 OFFCURVE",
"61 -124 OFFCURVE",
"70 -133 CURVE",
"75 -133 LINE",
"82 -130 OFFCURVE",
"90 -120 OFFCURVE",
"90 -105 CURVE SMOOTH",
"90 -84 OFFCURVE",
"70 -77 OFFCURVE",
"54 -77 CURVE SMOOTH",
"6 -77 OFFCURVE",
"-70 -151 OFFCURVE",
"-70 -202 CURVE SMOOTH",
"-70 -215 OFFCURVE",
"-67 -225 OFFCURVE",
"-61 -231 CURVE",
"-54 -237 OFFCURVE",
"-50 -242 OFFCURVE",
"-47 -246 CURVE",
"-48 -250 LINE",
"-63 -258 OFFCURVE",
"-93 -284 OFFCURVE",
"-103 -319 CURVE",
"-96 -325 LINE"
);
}
);
width = 0;
}
);
note = HamzaBelowAF_AltNS;
},
{
glyphname = AlefInferiorAltNS;
lastChange = "2017-06-19 19:10:36 +0000";
layers = (
{
layerId = "67C28EBA-5AA6-4F74-BBA1-5BB358529C60";
paths = (
{
closed = 1;
nodes = (
"16 -229 OFFCURVE",
"31 -177 OFFCURVE",
"34 -129 CURVE SMOOTH",
"35 -109 LINE SMOOTH",
"38 -34 OFFCURVE",
"40 -11 OFFCURVE",
"45 1 CURVE",
"28 4 LINE",
"0 -50 OFFCURVE",
"-9 -69 OFFCURVE",
"-11 -125 CURVE SMOOTH",
"-13 -173 LINE SMOOTH",
"-15 -227 OFFCURVE",
"-19 -259 OFFCURVE",
"-23 -278 CURVE",
"-6 -281 LINE"
);
}
);
width = 0;
},
{
layerId = "0A5D7F3A-D11E-4113-AD15-39410F1DC5C2";
paths = (
{
closed = 1;
nodes = (
"13 -228 OFFCURVE",
"28 -174 OFFCURVE",
"30 -129 CURVE SMOOTH",
"31 -112 LINE SMOOTH",
"33 -52 OFFCURVE",
"37 -21 OFFCURVE",
"40 -11 CURVE",
"29 -8 LINE",
"1 -63 OFFCURVE",
"-4 -80 OFFCURVE",
"-6 -125 CURVE SMOOTH",
"-8 -169 LINE SMOOTH",
"-10 -218 OFFCURVE",
"-14 -249 OFFCURVE",
"-17 -265 CURVE",
"-5 -267 LINE"
);
}
);
width = 0;
}
);
note = AlefInferiorAltNS;
},
{
glyphname = KasraAltNS;
lastChange = "2017-06-19 19:10:36 +0000";
layers = (
{
layerId = "67C28EBA-5AA6-4F74-BBA1-5BB358529C60";
paths = (
{
closed = 1;
nodes = (
"-110 -185 OFFCURVE",
"-91 -173 OFFCURVE",
"-63 -158 CURVE SMOOTH",
"90 -74 LINE SMOOTH",
"121 -57 OFFCURVE",
"138 -35 OFFCURVE",
"150 1 CURVE",
"137 8 LINE",
"132 4 OFFCURVE",
"124 -1 OFFCURVE",
"113 -7 CURVE SMOOTH",
"-39 -93 LINE SMOOTH",
"-108 -132 OFFCURVE",
"-124 -151 OFFCURVE",
"-133 -189 CURVE",
"-121 -197 LINE"
);
}
);
width = 0;
},
{
layerId = "0A5D7F3A-D11E-4113-AD15-39410F1DC5C2";
paths = (
{
closed = 1;
nodes = (
"-104 -175 OFFCURVE",
"-88 -163 OFFCURVE",
"-58 -147 CURVE SMOOTH",
"79 -73 LINE SMOOTH",
"109 -57 OFFCURVE",
"123 -36 OFFCURVE",
"134 -6 CURVE",
"125 -1 LINE",
"121 -4 OFFCURVE",
"114 -9 OFFCURVE",
"104 -15 CURVE SMOOTH",
"48 -47 OFFCURVE",
"-3 -72 OFFCURVE",
"-63 -109 CURVE SMOOTH",
"-89 -125 OFFCURVE",
"-114 -149 OFFCURVE",
"-120 -179 CURVE",
"-112 -185 LINE"
);
}
);
width = 0;
}
);
note = KasraAltNS;
},
{
glyphname = KasratanAltNS;
lastChange = "2017-06-19 19:10:36 +0000";
layers = (
{
layerId = "67C28EBA-5AA6-4F74-BBA1-5BB358529C60";
paths = (
{
closed = 1;
nodes = (
"-110 -185 OFFCURVE",
"-91 -173 OFFCURVE",
"-63 -158 CURVE SMOOTH",
"90 -74 LINE SMOOTH",
"121 -57 OFFCURVE",
"138 -35 OFFCURVE",
"150 1 CURVE",
"137 8 LINE",
"132 4 OFFCURVE",
"124 -1 OFFCURVE",
"113 -7 CURVE SMOOTH",
"-39 -93 LINE SMOOTH",
"-108 -132 OFFCURVE",
"-124 -151 OFFCURVE",
"-133 -189 CURVE",
"-121 -197 LINE"
);
},
{
closed = 1;
nodes = (
"-120 -288 OFFCURVE",
"-101 -276 OFFCURVE",
"-73 -261 CURVE SMOOTH",
"80 -177 LINE SMOOTH",
"111 -160 OFFCURVE",
"128 -138 OFFCURVE",
"140 -102 CURVE",
"127 -95 LINE",
"122 -99 OFFCURVE",
"114 -104 OFFCURVE",
"103 -110 CURVE SMOOTH",
"-49 -196 LINE SMOOTH",
"-118 -235 OFFCURVE",
"-134 -254 OFFCURVE",
"-143 -292 CURVE",
"-131 -300 LINE"
);
}
);
width = 0;
},
{
layerId = "0A5D7F3A-D11E-4113-AD15-39410F1DC5C2";
paths = (
{
closed = 1;
nodes = (
"-104 -175 OFFCURVE",
"-88 -163 OFFCURVE",
"-58 -147 CURVE SMOOTH",
"79 -73 LINE SMOOTH",
"109 -57 OFFCURVE",
"123 -36 OFFCURVE",
"134 -6 CURVE",
"125 -1 LINE",
"121 -4 OFFCURVE",
"114 -9 OFFCURVE",
"104 -15 CURVE SMOOTH",
"48 -47 OFFCURVE",
"-3 -72 OFFCURVE",
"-63 -109 CURVE SMOOTH",
"-89 -125 OFFCURVE",
"-114 -149 OFFCURVE",
"-120 -179 CURVE",
"-112 -185 LINE"
);
},
{
closed = 1;
nodes = (
"-117 -275 OFFCURVE",
"-101 -263 OFFCURVE",
"-71 -247 CURVE SMOOTH",
"66 -173 LINE SMOOTH",
"96 -157 OFFCURVE",
"110 -136 OFFCURVE",
"121 -106 CURVE",
"112 -101 LINE",
"108 -104 OFFCURVE",
"101 -109 OFFCURVE",
"91 -115 CURVE SMOOTH",
"36 -148 OFFCURVE",
"-16 -172 OFFCURVE",
"-76 -209 CURVE SMOOTH",
"-102 -225 OFFCURVE",
"-127 -249 OFFCURVE",
"-133 -279 CURVE",
"-125 -285 LINE"
);
}
);
width = 0;
}
);
note = KasratanAltNS;
},
